<?xml version="1.0" encoding="UTF-8" standalone="no"?>
<!-- Created with Inkscape (http://www.inkscape.org/) -->

<svg
   xmlns:dc="http://purl.org/dc/elements/1.1/"
   xmlns:cc="http://creativecommons.org/ns#"
   xmlns:rdf="http://www.w3.org/1999/02/22-rdf-syntax-ns#"
   xmlns:svg="http://www.w3.org/2000/svg"
   xmlns="http://www.w3.org/2000/svg"
   xmlns:sodipodi="http://sodipodi.sourceforge.net/DTD/sodipodi-0.dtd"
   xmlns:inkscape="http://www.inkscape.org/namespaces/inkscape"
   version="1.1"
   id="svg2"
   xml:space="preserve"
   width="803.13196"
   height="180.3136"
   viewBox="0 0 803.13194 180.3136"
   sodipodi:docname="logo.svg"
   inkscape:version="0.92.4 5da689c313, 2019-01-14"><metadata
     id="metadata8"><rdf:RDF><cc:Work
         rdf:about=""><dc:format>image/svg+xml</dc:format><dc:type
           rdf:resource="http://purl.org/dc/dcmitype/StillImage" /><dc:title></dc:title></cc:Work></rdf:RDF></metadata><defs
     id="defs6"><clipPath
       clipPathUnits="userSpaceOnUse"
       id="clipPath18"><path
         d="M 0,595.276 H 841.89 V 0 H 0 Z"
         id="path16"
         inkscape:connector-curvature="0" /></clipPath><clipPath
       clipPathUnits="userSpaceOnUse"
       id="clipPath54"><path
         d="m 320.054,332.619 c -11.177,-2.759 -19.253,-8.991 -18.038,-13.916 v 0 c 1.216,-4.925 11.265,-6.679 22.442,-3.92 v 0 c 11.179,2.761 19.257,8.993 18.04,13.917 v 0 c -0.825,3.344 -5.723,5.226 -12.281,5.227 v 0 c -3.101,0 -6.573,-0.421 -10.163,-1.308"
         id="path52"
         inkscape:connector-curvature="0" /></clipPath><radialGradient
       fx="0"
       fy="0"
       cx="0"
       cy="0"
       r="1"
       gradientUnits="userSpaceOnUse"
       gradientTransform="matrix(16.111422,0,0,-16.111422,322.25693,323.70145)"
       spreadMethod="pad"
       id="radialGradient66"><stop
         style="stop-opacity:1;stop-color:#fff200"
         offset="0"
         id="stop60" /><stop
         style="stop-opacity:1;stop-color:#fff200"
         offset="0.53239563"
         id="stop62" /><stop
         style="stop-opacity:1;stop-color:#f1511b"
         offset="1"
         id="stop64" /></radialGradient><clipPath
       clipPathUnits="userSpaceOnUse"
       id="clipPath76"><path
         d="M 0,595.276 H 841.89 V 0 H 0 Z"
         id="path74"
         inkscape:connector-curvature="0" /></clipPath><clipPath
       clipPathUnits="userSpaceOnUse"
       id="clipPath88"><path
         d="m 295.816,350.945 c -0.602,-0.464 -6.516,-3.873 -6.763,-6.253 v 0 c -0.248,-2.382 0.463,-3.937 0.88,-4.54 v 0 c 0.417,-0.601 5.771,-5.812 6.161,-6.114 v 0 c 2.012,-1.559 3.482,-1.112 4.815,-2.143 v 0 c 1.547,-1.197 1.622,-1.098 2.412,-1.654 v 0 c 0.786,-0.557 2.36,-0.511 2.87,-0.233 v 0 c 0.509,0.279 0.603,0.603 0.649,0.972 v 0 c 0.046,0.372 0.137,1.114 -0.046,1.901 v 0 c -0.185,0.787 -4.289,3.712 -5.605,6.297 v 0 c -2.409,4.737 -1.714,11.303 -2.501,11.812 v 0 c -0.366,0.237 -0.882,0.344 -1.39,0.344 v 0 c -0.585,0 -1.159,-0.142 -1.482,-0.389"
         id="path86"
         inkscape:connector-curvature="0" /></clipPath><radialGradient
       fx="0"
       fy="0"
       cx="0"
       cy="0"
       r="1"
       gradientUnits="userSpaceOnUse"
       gradientTransform="matrix(9.898488,0,0,-9.898488,297.95288,340.57074)"
       spreadMethod="pad"
       id="radialGradient100"><stop
         style="stop-opacity:1;stop-color:#fff200"
         offset="0"
         id="stop94" /><stop
         style="stop-opacity:1;stop-color:#fff200"
         offset="0.53239563"
         id="stop96" /><stop
         style="stop-opacity:1;stop-color:#f1511b"
         offset="1"
         id="stop98" /></radialGradient><clipPath
       clipPathUnits="userSpaceOnUse"
       id="clipPath110"><path
         d="M 0,595.276 H 841.89 V 0 H 0 Z"
         id="path108"
         inkscape:connector-curvature="0" /></clipPath><clipPath
       clipPathUnits="userSpaceOnUse"
       id="clipPath122"><path
         d="m 305.315,356.316 c 0,0 -2.647,-1.556 -3.891,-3.581 v 0 c -1.245,-2.024 -0.622,-7.002 0.156,-9.335 v 0 c 0.779,-2.335 4.798,-8.572 5.446,-9.337 v 0 c 0.646,-0.766 2.243,-1.32 3.114,-1.089 v 0 c 0.868,0.23 2.888,1.047 2.411,1.867 v 0 c -0.479,0.818 -3.501,2.567 -4.435,8.637 v 0 c -0.934,6.067 0.311,10.97 0,12.525 v 0 c -0.12,0.6 -0.563,0.784 -1.062,0.784 v 0 c -0.797,0 -1.739,-0.471 -1.739,-0.471"
         id="path120"
         inkscape:connector-curvature="0" /></clipPath><radialGradient
       fx="0"
       fy="0"
       cx="0"
       cy="0"
       r="1"
       gradientUnits="userSpaceOnUse"
       gradientTransform="matrix(9.4297743,0,0,-9.4297743,306.66959,344.85394)"
       spreadMethod="pad"
       id="radialGradient134"><stop
         style="stop-opacity:1;stop-color:#fff200"
         offset="0"
         id="stop128" /><stop
         style="stop-opacity:1;stop-color:#fff200"
         offset="0.53239563"
         id="stop130" /><stop
         style="stop-opacity:1;stop-color:#f1511b"
         offset="1"
         id="stop132" /></radialGradient><clipPath
       clipPathUnits="userSpaceOnUse"
       id="clipPath144"><path
         d="M 0,595.276 H 841.89 V 0 H 0 Z"
         id="path142"
         inkscape:connector-curvature="0" /></clipPath><clipPath
       clipPathUnits="userSpaceOnUse"
       id="clipPath156"><path
         d="m 322.238,359.699 c -0.118,-0.117 -4.92,-5.27 -5.077,-5.513 v 0 c -1.751,-2.715 -2.364,-3.852 -2.315,-5.884 v 0 c 0.072,-3.059 -0.166,-4.972 0.068,-6.225 v 0 c 0.233,-1.257 0.598,-3.966 1.629,-6.048 v 0 c 0.331,-0.666 2.037,-1.062 2.543,-1.1 v 0 c 1.012,-0.079 1.517,0.173 1.984,0.495 v 0 c 0.467,0.321 2.744,3.793 3.579,5.486 v 0 c 0.837,1.692 1.176,2.888 1.868,4.59 v 0 c 0.691,1.701 0.564,1.275 0.935,2.529 v 0 c 0.368,1.255 0.476,1.372 0.698,3.345 v 0 c 0.226,1.974 0.33,2.081 0.311,3.345 v 0 c -0.019,1.265 -0.009,2.5 -0.465,3.541 v 0 c -0.458,1.04 -1.107,2.147 -2.257,2.693 v 0 c -0.174,0.083 -0.394,0.126 -0.646,0.126 v 0 c -0.794,0 -1.902,-0.428 -2.855,-1.38"
         id="path154"
         inkscape:connector-curvature="0" /></clipPath><radialGradient
       fx="0"
       fy="0"
       cx="0"
       cy="0"
       r="1"
       gradientUnits="userSpaceOnUse"
       gradientTransform="matrix(10.434668,0,0,-10.434668,321.63608,347.99695)"
       spreadMethod="pad"
       id="radialGradient168"><stop
         style="stop-opacity:1;stop-color:#fff200"
         offset="0"
         id="stop162" /><stop
         style="stop-opacity:1;stop-color:#fff200"
         offset="0.53239563"
         id="stop164" /><stop
         style="stop-opacity:1;stop-color:#f1511b"
         offset="1"
         id="stop166" /></radialGradient><clipPath
       clipPathUnits="userSpaceOnUse"
       id="clipPath178"><path
         d="M 0,595.276 H 841.89 V 0 H 0 Z"
         id="path176"
         inkscape:connector-curvature="0" /></clipPath><clipPath
       clipPathUnits="userSpaceOnUse"
       id="clipPath190"><path
         d="m 337.267,360.208 c -1.325,-0.827 -2.142,-1.654 -1.806,-1.321 v 0 c 0.622,0.626 -3.17,-2.436 -4.144,-4.14 v 0 c -0.971,-1.704 -1.008,-3.338 -1.182,-6.782 v 0 c -0.174,-3.442 -5.217,-11.27 -5.217,-11.27 v 0 l 6.191,-0.07 c 0,0 9.254,12.141 10.54,14.368 v 0 c 1.287,2.226 3.546,6.259 3.581,7.964 v 0 c 0.034,1.704 -0.484,2.504 -3.722,2.644 v 0 c -0.063,0.003 -0.125,0.004 -0.187,0.004 v 0 c -1.455,0 -2.936,-0.699 -4.054,-1.397"
         id="path188"
         inkscape:connector-curvature="0" /></clipPath><radialGradient
       fx="0"
       fy="0"
       cx="0"
       cy="0"
       r="1"
       gradientUnits="userSpaceOnUse"
       gradientTransform="matrix(11.383102,0,0,-11.383102,335.07501,349.11499)"
       spreadMethod="pad"
       id="radialGradient202"><stop
         style="stop-opacity:1;stop-color:#fff200"
         offset="0"
         id="stop196" /><stop
         style="stop-opacity:1;stop-color:#fff200"
         offset="0.53239563"
         id="stop198" /><stop
         style="stop-opacity:1;stop-color:#f1511b"
         offset="1"
         id="stop200" /></radialGradient><clipPath
       clipPathUnits="userSpaceOnUse"
       id="clipPath212"><path
         d="M 0,595.276 H 841.89 V 0 H 0 Z"
         id="path210"
         inkscape:connector-curvature="0" /></clipPath><clipPath
       clipPathUnits="userSpaceOnUse"
       id="clipPath224"><path
         d="m 343.472,350.107 c -5.645,-7.145 -11.989,-16.05 -8.002,-14.697 v 0 c 3.99,1.354 6.806,4.036 12.451,11.182 v 0 c 5.647,7.147 9.23,13.727 8.002,14.698 v 0 c -0.102,0.081 -0.235,0.12 -0.395,0.12 v 0 c -1.763,0 -6.877,-4.752 -12.056,-11.303"
         id="path222"
         inkscape:connector-curvature="0" /></clipPath><radialGradient
       fx="0"
       fy="0"
       cx="0"
       cy="0"
       r="1"
       gradientUnits="userSpaceOnUse"
       gradientTransform="matrix(12.065649,0,0,-12.065649,345.19302,348.34122)"
       spreadMethod="pad"
       id="radialGradient236"><stop
         style="stop-opacity:1;stop-color:#fff200"
         offset="0"
         id="stop230" /><stop
         style="stop-opacity:1;stop-color:#fff200"
         offset="0.53239563"
         id="stop232" /><stop
         style="stop-opacity:1;stop-color:#f1511b"
         offset="1"
         id="stop234" /></radialGradient><clipPath
       clipPathUnits="userSpaceOnUse"
       id="clipPath246"><path
         d="M 0,595.276 H 841.89 V 0 H 0 Z"
         id="path244"
         inkscape:connector-curvature="0" /></clipPath><clipPath
       clipPathUnits="userSpaceOnUse"
       id="clipPath258"><path
         d="m 367.095,354.525 c 0,0 -10.351,-3.734 -14.863,-7.313 v 0 c -4.511,-3.579 -12.447,-12.216 -12.447,-12.216 v 0 l 2.255,-1.323 c 0,0 15.714,6.927 17.662,7.936 v 0 c 1.944,1.012 12.451,7.081 13.925,8.481 v 0 c 1.48,1.402 4.593,4.047 3.736,5.758 v 0 c -0.189,0.377 -0.792,0.524 -1.617,0.524 v 0 c -2.926,0 -8.651,-1.847 -8.651,-1.847"
         id="path256"
         inkscape:connector-curvature="0" /></clipPath><radialGradient
       fx="0"
       fy="0"
       cx="0"
       cy="0"
       r="1"
       gradientUnits="userSpaceOnUse"
       gradientTransform="matrix(15.56605,0,0,-15.56605,358.64725,345.02246)"
       spreadMethod="pad"
       id="radialGradient270"><stop
         style="stop-opacity:1;stop-color:#fff200"
         offset="0"
         id="stop264" /><stop
         style="stop-opacity:1;stop-color:#fff200"
         offset="0.53239563"
         id="stop266" /><stop
         style="stop-opacity:1;stop-color:#f1511b"
         offset="1"
         id="stop268" /></radialGradient><clipPath
       clipPathUnits="userSpaceOnUse"
       id="clipPath280"><path
         d="M 0,595.276 H 841.89 V 0 H 0 Z"
         id="path278"
         inkscape:connector-curvature="0" /></clipPath><clipPath
       clipPathUnits="userSpaceOnUse"
       id="clipPath292"><path
         d="m 377.675,345.344 c -2.492,-0.156 -13.459,-3.969 -15.873,-4.9 v 0 c -2.415,-0.934 -17.043,-7.004 -16.26,-7.394 v 0 c 0.774,-0.388 1.009,-1.01 2.019,-0.856 v 0 c 1.014,0.156 14.241,2.258 16.185,2.959 v 0 c 1.945,0.699 13.852,3.266 16.419,4.278 v 0 c 2.567,1.013 10.97,4.436 10.891,5.601 v 0 c -0.033,0.508 -2.094,0.663 -4.618,0.663 v 0 c -3.285,0 -7.355,-0.263 -8.763,-0.351"
         id="path290"
         inkscape:connector-curvature="0" /></clipPath><radialGradient
       fx="0"
       fy="0"
       cx="0"
       cy="0"
       r="1"
       gradientUnits="userSpaceOnUse"
       gradientTransform="matrix(16.797779,0,0,-16.797779,368.284,338.93207)"
       spreadMethod="pad"
       id="radialGradient304"><stop
         style="stop-opacity:1;stop-color:#fff200"
         offset="0"
         id="stop298" /><stop
         style="stop-opacity:1;stop-color:#fff200"
         offset="0.53239563"
         id="stop300" /><stop
         style="stop-opacity:1;stop-color:#f1511b"
         offset="1"
         id="stop302" /></radialGradient><clipPath
       clipPathUnits="userSpaceOnUse"
       id="clipPath314"><path
         d="M 0,595.276 H 841.89 V 0 H 0 Z"
         id="path312"
         inkscape:connector-curvature="0" /></clipPath><clipPath
       clipPathUnits="userSpaceOnUse"
       id="clipPath326"><path
         d="m 382.657,338.342 c -2.259,-0.312 -7.626,-2.256 -9.494,-2.723 v 0 c -1.868,-0.466 -25.29,-5.447 -25.29,-5.447 v 0 l 0.229,-0.173 c 0,0 18.446,1.185 21.48,1.341 v 0 c 3.034,0.155 14.548,1.243 17.118,1.634 v 0 c 2.568,0.388 10.192,3.655 10.192,4.668 v 0 c 0,0.65 -4.959,0.882 -9.097,0.882 v 0 c -2.293,0 -4.334,-0.071 -5.138,-0.182"
         id="path324"
         inkscape:connector-curvature="0" /></clipPath><radialGradient
       fx="0"
       fy="0"
       cx="0"
       cy="0"
       r="1"
       gradientUnits="userSpaceOnUse"
       gradientTransform="matrix(17.591049,0,0,-17.591049,372.38254,334.26108)"
       spreadMethod="pad"
       id="radialGradient338"><stop
         style="stop-opacity:1;stop-color:#fff200"
         offset="0"
         id="stop332" /><stop
         style="stop-opacity:1;stop-color:#fff200"
         offset="0.53239563"
         id="stop334" /><stop
         style="stop-opacity:1;stop-color:#f1511b"
         offset="1"
         id="stop336" /></radialGradient><clipPath
       clipPathUnits="userSpaceOnUse"
       id="clipPath348"><path
         d="M 0,595.276 H 841.89 V 0 H 0 Z"
         id="path346"
         inkscape:connector-curvature="0" /></clipPath><clipPath
       clipPathUnits="userSpaceOnUse"
       id="clipPath360"><path
         d="m 348.655,327.76 h -0.235 c 0,0 -2.336,-2.179 0.155,-2.179 v 0 c 2.489,0 18.208,-3.577 20.927,-3.968 v 0 c 2.727,-0.39 10.193,-0.467 12.296,-0.312 v 0 c 2.101,0.156 6.767,1.246 6.692,2.024 v 0 c -0.077,0.778 -3.578,2.101 -5.446,2.489 v 0 c -1.868,0.389 -9.107,1.402 -11.206,1.868 v 0 c -0.788,0.176 -4.246,0.231 -8.261,0.231 v 0 c -6.688,0 -14.922,-0.153 -14.922,-0.153"
         id="path358"
         inkscape:connector-curvature="0" /></clipPath><radialGradient
       fx="0"
       fy="0"
       cx="0"
       cy="0"
       r="1"
       gradientUnits="userSpaceOnUse"
       gradientTransform="matrix(14.709438,0,0,-14.709438,367.95834,324.56927)"
       spreadMethod="pad"
       id="radialGradient372"><stop
         style="stop-opacity:1;stop-color:#fff200"
         offset="0"
         id="stop366" /><stop
         style="stop-opacity:1;stop-color:#fff200"
         offset="0.53239563"
         id="stop368" /><stop
         style="stop-opacity:1;stop-color:#f1511b"
         offset="1"
         id="stop370" /></radialGradient><clipPath
       clipPathUnits="userSpaceOnUse"
       id="clipPath382"><path
         d="M 0,595.276 H 841.89 V 0 H 0 Z"
         id="path380"
         inkscape:connector-curvature="0" /></clipPath><clipPath
       clipPathUnits="userSpaceOnUse"
       id="clipPath394"><path
         d="m 346.981,323.285 c -1.128,-0.115 -1.401,-0.698 -1.401,-0.698 v 0 c 0,0 -0.661,-0.583 -0.118,-1.519 v 0 c 0.543,-0.932 6.926,-2.8 9.102,-3.035 v 0 c 2.18,-0.232 8.02,-3.035 10.856,-4.201 v 0 c 2.838,-1.166 5.875,-1.166 9.335,-1.399 v 0 c 3.465,-0.234 8.213,1.206 8.365,2.101 v 0 c 0.159,0.893 -8.712,4.667 -10.815,4.784 v 0 c -0.856,0.047 -2.24,0.024 -3.736,0 v 0 c -2.177,-0.034 -4.589,-0.068 -5.951,0.117 v 0 c -2.262,0.307 -14.129,3.854 -15.576,3.853 v 0 c -0.023,0 -0.044,-0.001 -0.061,-0.003"
         id="path392"
         inkscape:connector-curvature="0" /></clipPath><radialGradient
       fx="0"
       fy="0"
       cx="0"
       cy="0"
       r="1"
       gradientUnits="userSpaceOnUse"
       gradientTransform="matrix(13.932236,0,0,-13.932236,364.185,317.84784)"
       spreadMethod="pad"
       id="radialGradient406"><stop
         style="stop-opacity:1;stop-color:#fff200"
         offset="0"
         id="stop400" /><stop
         style="stop-opacity:1;stop-color:#fff200"
         offset="0.53239563"
         id="stop402" /><stop
         style="stop-opacity:1;stop-color:#f1511b"
         offset="1"
         id="stop404" /></radialGradient><clipPath
       clipPathUnits="userSpaceOnUse"
       id="clipPath416"><path
         d="M 0,595.276 H 841.89 V 0 H 0 Z"
         id="path414"
         inkscape:connector-curvature="0" /></clipPath><clipPath
       clipPathUnits="userSpaceOnUse"
       id="clipPath428"><path
         d="m 338.771,317.878 c 0,0 8.397,-7.727 10.735,-8.246 v 0 c 2.803,-0.622 12.06,-3.736 15.41,-5.602 v 0 c 2.064,-1.155 12.447,0.156 12.603,1.012 v 0 c 0.156,0.854 -6.535,3.267 -7.937,4.745 v 0 c -1.401,1.478 -6.77,3.422 -8.714,3.969 v 0 c -1.944,0.543 -5.134,0.699 -6.768,1.554 v 0 c -1.636,0.858 -8.247,3.035 -10.04,4.826 v 0 c -0.18,0.18 -0.422,0.256 -0.706,0.256 v 0 c -1.625,0 -4.583,-2.514 -4.583,-2.514"
         id="path426"
         inkscape:connector-curvature="0" /></clipPath><radialGradient
       fx="0"
       fy="0"
       cx="0"
       cy="0"
       r="1"
       gradientUnits="userSpaceOnUse"
       gradientTransform="matrix(14.93492,0,0,-14.93492,358.14633,311.98383)"
       spreadMethod="pad"
       id="radialGradient440"><stop
         style="stop-opacity:1;stop-color:#fff200"
         offset="0"
         id="stop434" /><stop
         style="stop-opacity:1;stop-color:#fff200"
         offset="0.53239563"
         id="stop436" /><stop
         style="stop-opacity:1;stop-color:#f1511b"
         offset="1"
         id="stop438" /></radialGradient><clipPath
       clipPathUnits="userSpaceOnUse"
       id="clipPath450"><path
         d="M 0,595.276 H 841.89 V 0 H 0 Z"
         id="path448"
         inkscape:connector-curvature="0" /></clipPath><clipPath
       clipPathUnits="userSpaceOnUse"
       id="clipPath462"><path
         d="m 333.958,314.969 c -0.692,-0.498 2.713,-14.597 3.799,-16.774 v 0 c 1.094,-2.18 6.152,-7.159 7.473,-8.404 v 0 c 1.321,-1.246 6.767,-2.491 7.701,-1.868 v 0 c 0.935,0.622 1.633,4.203 -0.155,7.937 v 0 c -1.152,2.402 -4.917,10.911 -6.069,12.215 v 0 c -1.477,1.674 -6.611,5.564 -8.479,8.093 v 0 c -0.165,0.223 -0.431,0.314 -0.754,0.314 v 0 c -1.14,-0.001 -2.979,-1.125 -3.516,-1.513"
         id="path460"
         inkscape:connector-curvature="0" /></clipPath><radialGradient
       fx="0"
       fy="0"
       cx="0"
       cy="0"
       r="1"
       gradientUnits="userSpaceOnUse"
       gradientTransform="matrix(12.37858,0,0,-12.37858,343.87521,302.11935)"
       spreadMethod="pad"
       id="radialGradient474"><stop
         style="stop-opacity:1;stop-color:#fff200"
         offset="0"
         id="stop468" /><stop
         style="stop-opacity:1;stop-color:#fff200"
         offset="0.53239563"
         id="stop470" /><stop
         style="stop-opacity:1;stop-color:#f1511b"
         offset="1"
         id="stop472" /></radialGradient><clipPath
       clipPathUnits="userSpaceOnUse"
       id="clipPath484"><path
         d="M 0,595.276 H 841.89 V 0 H 0 Z"
         id="path482"
         inkscape:connector-curvature="0" /></clipPath><clipPath
       clipPathUnits="userSpaceOnUse"
       id="clipPath496"><path
         d="m 329.979,314.455 c -0.7,-0.078 -1.905,-0.584 -2.801,-2.1 v 0 -0.078 c 0,0 -2.841,-9.687 -1.05,-15.367 v 0 c 1.791,-5.679 4.98,-10.855 8.676,-12.412 v 0 c 3.693,-1.553 6.572,-0.543 7.548,-0.117 v 0 c 0.969,0.428 0.83,4.164 -0.353,5.37 v 0 c -1.983,2.023 -6.221,7.858 -7.159,9.765 v 0 c -1.783,3.644 -1.632,10.934 -2.099,12.06 v 0 c -0.457,1.104 -1.996,2.881 -2.717,2.881 v 0 c -0.015,0 -0.031,-10e-4 -0.045,-0.002"
         id="path494"
         inkscape:connector-curvature="0" /></clipPath><radialGradient
       fx="0"
       fy="0"
       cx="0"
       cy="0"
       r="1"
       gradientUnits="userSpaceOnUse"
       gradientTransform="matrix(12.515017,0,0,-12.515017,334.26428,299.05994)"
       spreadMethod="pad"
       id="radialGradient508"><stop
         style="stop-opacity:1;stop-color:#fff200"
         offset="0"
         id="stop502" /><stop
         style="stop-opacity:1;stop-color:#fff200"
         offset="0.53239563"
         id="stop504" /><stop
         style="stop-opacity:1;stop-color:#f1511b"
         offset="1"
         id="stop506" /></radialGradient><clipPath
       clipPathUnits="userSpaceOnUse"
       id="clipPath518"><path
         d="M 0,595.276 H 841.89 V 0 H 0 Z"
         id="path516"
         inkscape:connector-curvature="0" /></clipPath><clipPath
       clipPathUnits="userSpaceOnUse"
       id="clipPath530"><path
         d="m 316.44,302.008 c -0.582,-4.283 -0.32,-11.876 -0.077,-12.84 v 0 c 0.427,-1.712 1.401,-4.787 5.563,-6.223 v 0 c 5.876,-2.031 7.703,4.317 5.174,7.311 v 0 c -2.527,2.997 -3.461,6.071 -3.617,9.223 v 0 c -0.155,3.15 0.972,9.453 1.399,10.658 v 0 c 0.429,1.206 1.246,3.035 -1.09,3.383 v 0 c -0.052,0.008 -0.106,0.012 -0.16,0.012 v 0 c -2.37,-10e-4 -6.622,-7.341 -7.192,-11.524"
         id="path528"
         inkscape:connector-curvature="0" /></clipPath><radialGradient
       fx="0"
       fy="0"
       cx="0"
       cy="0"
       r="1"
       gradientUnits="userSpaceOnUse"
       gradientTransform="matrix(11.761834,0,0,-11.761834,322.1488,298.04193)"
       spreadMethod="pad"
       id="radialGradient542"><stop
         style="stop-opacity:1;stop-color:#fff200"
         offset="0"
         id="stop536" /><stop
         style="stop-opacity:1;stop-color:#fff200"
         offset="0.53239563"
         id="stop538" /><stop
         style="stop-opacity:1;stop-color:#f1511b"
         offset="1"
         id="stop540" /></radialGradient><clipPath
       clipPathUnits="userSpaceOnUse"
       id="clipPath552"><path
         d="M 0,595.276 H 841.89 V 0 H 0 Z"
         id="path550"
         inkscape:connector-curvature="0" /></clipPath><clipPath
       clipPathUnits="userSpaceOnUse"
       id="clipPath564"><path
         d="m 313.561,311.966 c -0.446,-0.233 -3.403,-6.827 -4.355,-8.403 v 0 c -0.954,-1.576 -4.474,-3.21 -6.925,-6.38 v 0 c -2.45,-3.171 -6.537,-5.409 -7.316,-7.703 v 0 c -0.777,-2.297 -0.854,-2.141 -0.156,-3.951 v 0 c 0.755,-1.944 4.075,-2.733 8.23,2.335 v 0 c 2.391,2.919 4.668,7.702 6.711,10.174 v 0 c 0.843,1.019 4.025,9.609 4.511,10.736 v 0 c 0.487,1.129 0.974,2.258 0.623,2.802 v 0 c -0.229,0.357 -0.533,0.514 -0.842,0.514 v 0 c -0.163,0 -0.327,-0.044 -0.481,-0.124"
         id="path562"
         inkscape:connector-curvature="0" /></clipPath><radialGradient
       fx="0"
       fy="0"
       cx="0"
       cy="0"
       r="1"
       gradientUnits="userSpaceOnUse"
       gradientTransform="matrix(12.321194,0,0,-12.321194,304.66699,298.06201)"
       spreadMethod="pad"
       id="radialGradient576"><stop
         style="stop-opacity:1;stop-color:#fff200"
         offset="0"
         id="stop570" /><stop
         style="stop-opacity:1;stop-color:#fff200"
         offset="0.53239563"
         id="stop572" /><stop
         style="stop-opacity:1;stop-color:#f1511b"
         offset="1"
         id="stop574" /></radialGradient><clipPath
       clipPathUnits="userSpaceOnUse"
       id="clipPath586"><path
         d="M 0,595.276 H 841.89 V 0 H 0 Z"
         id="path584"
         inkscape:connector-curvature="0" /></clipPath><clipPath
       clipPathUnits="userSpaceOnUse"
       id="clipPath598"><path
         d="m 307.589,312.666 c -1.224,-0.352 -11.204,-8.636 -12.721,-9.861 v 0 c -1.517,-1.227 -8.11,-8.578 -9.042,-10.155 v 0 c -0.936,-1.576 -1.754,-3.151 -0.293,-4.026 v 0 c 1.458,-0.876 1.925,-0.76 4.025,1.224 v 0 c 2.101,1.984 11.905,8.289 12.898,9.513 v 0 c 0.991,1.226 8.285,10.444 8.752,12.312 v 0 c 0.26,1.039 -0.51,1.338 -1.455,1.338 v 0 c -0.754,0 -1.62,-0.19 -2.164,-0.345"
         id="path596"
         inkscape:connector-curvature="0" /></clipPath><radialGradient
       fx="0"
       fy="0"
       cx="0"
       cy="0"
       r="1"
       gradientUnits="userSpaceOnUse"
       gradientTransform="matrix(12.864318,0,0,-12.864318,297.99744,300.55707)"
       spreadMethod="pad"
       id="radialGradient610"><stop
         style="stop-opacity:1;stop-color:#fff200"
         offset="0"
         id="stop604" /><stop
         style="stop-opacity:1;stop-color:#fff200"
         offset="0.53239563"
         id="stop606" /><stop
         style="stop-opacity:1;stop-color:#f1511b"
         offset="1"
         id="stop608" /></radialGradient><clipPath
       clipPathUnits="userSpaceOnUse"
       id="clipPath620"><path
         d="M 0,595.276 H 841.89 V 0 H 0 Z"
         id="path618"
         inkscape:connector-curvature="0" /></clipPath><clipPath
       clipPathUnits="userSpaceOnUse"
       id="clipPath632"><path
         d="m 302.339,314.651 c -0.992,-0.235 -8.228,-4.846 -8.228,-4.846 v 0 c 0,0 -18.033,-12.603 -19.258,-13.771 v 0 c -1.227,-1.165 -6.302,-7.819 0.058,-7.176 v 0 c 6.361,0.641 7.819,1.342 9.395,4.142 v 0 c 2.685,6.011 20.075,19.433 20.367,20.424 v 0 c 0.242,0.823 -0.843,1.286 -1.786,1.286 v 0 c -0.193,0 -0.38,-0.02 -0.548,-0.059"
         id="path630"
         inkscape:connector-curvature="0" /></clipPath><radialGradient
       fx="0"
       fy="0"
       cx="0"
       cy="0"
       r="1"
       gradientUnits="userSpaceOnUse"
       gradientTransform="matrix(14.812145,0,0,-14.812145,288.24072,301.76184)"
       spreadMethod="pad"
       id="radialGradient644"><stop
         style="stop-opacity:1;stop-color:#fff200"
         offset="0"
         id="stop638" /><stop
         style="stop-opacity:1;stop-color:#fff200"
         offset="0.53239563"
         id="stop640" /><stop
         style="stop-opacity:1;stop-color:#f1511b"
         offset="1"
         id="stop642" /></radialGradient><clipPath
       clipPathUnits="userSpaceOnUse"
       id="clipPath654"><path
         d="M 0,595.276 H 841.89 V 0 H 0 Z"
         id="path652"
         inkscape:connector-curvature="0" /></clipPath><clipPath
       clipPathUnits="userSpaceOnUse"
       id="clipPath666"><path
         d="m 288.1,313.599 c -2.919,-0.991 -12.138,-4.201 -14.356,-5.077 v 0 c -2.218,-0.875 -6.594,-4.318 -8.051,-5.543 v 0 c -1.461,-1.226 -4.086,-4.202 -3.386,-4.961 v 0 c 0.7,-0.757 7.47,-0.293 9.979,0.526 v 0 c 2.51,0.817 12.487,6.827 13.48,7.469 v 0 c 0.992,0.642 14.238,7.937 15.23,9.102 v 0 c 0.993,1.168 -0.409,2.103 -1.165,2.278 v 0 c -0.022,0.005 -0.05,0.008 -0.083,0.008 v 0 c -1.133,0 -8.813,-2.837 -11.648,-3.802"
         id="path664"
         inkscape:connector-curvature="0" /></clipPath><radialGradient
       fx="0"
       fy="0"
       cx="0"
       cy="0"
       r="1"
       gradientUnits="userSpaceOnUse"
       gradientTransform="matrix(15.505232,0,0,-15.505232,281.7645,307.51752)"
       spreadMethod="pad"
       id="radialGradient678"><stop
         style="stop-opacity:1;stop-color:#fff200"
         offset="0"
         id="stop672" /><stop
         style="stop-opacity:1;stop-color:#fff200"
         offset="0.53239563"
         id="stop674" /><stop
         style="stop-opacity:1;stop-color:#f1511b"
         offset="1"
         id="stop676" /></radialGradient><clipPath
       clipPathUnits="userSpaceOnUse"
       id="clipPath688"><path
         d="M 0,595.276 H 841.89 V 0 H 0 Z"
         id="path686"
         inkscape:connector-curvature="0" /></clipPath><clipPath
       clipPathUnits="userSpaceOnUse"
       id="clipPath700"><path
         d="m 284.599,317.918 c -2.567,-0.466 -7.703,-1.343 -9.862,-2.102 v 0 c -2.159,-0.759 -12.664,-4.784 -14.763,-5.601 v 0 c -2.101,-0.817 -6.595,-2.509 -6.245,-4.552 v 0 c 0.351,-2.042 5.31,-2.625 11.788,0.525 v 0 c 6.476,3.152 11.613,5.252 13.947,6.361 v 0 c 2.334,1.108 19.257,5.31 19.722,6.01 v 0 c 0.467,0.701 -0.524,1.227 -1.34,1.4 v 0 c -0.039,0.008 -0.099,0.013 -0.178,0.013 v 0 c -1.568,-10e-4 -10.625,-1.609 -13.069,-2.054"
         id="path698"
         inkscape:connector-curvature="0" /></clipPath><radialGradient
       fx="0"
       fy="0"
       cx="0"
       cy="0"
       r="1"
       gradientUnits="userSpaceOnUse"
       gradientTransform="matrix(17.083677,0,0,-17.083677,276.5079,311.9751)"
       spreadMethod="pad"
       id="radialGradient712"><stop
         style="stop-opacity:1;stop-color:#fff200"
         offset="0"
         id="stop706" /><stop
         style="stop-opacity:1;stop-color:#fff200"
         offset="0.53239563"
         id="stop708" /><stop
         style="stop-opacity:1;stop-color:#f1511b"
         offset="1"
         id="stop710" /></radialGradient><clipPath
       clipPathUnits="userSpaceOnUse"
       id="clipPath722"><path
         d="M 0,595.276 H 841.89 V 0 H 0 Z"
         id="path720"
         inkscape:connector-curvature="0" /></clipPath><clipPath
       clipPathUnits="userSpaceOnUse"
       id="clipPath734"><path
         d="m 277.655,324.278 c -6.419,-0.058 -14.063,-2.218 -15.172,-2.274 v 0 c -1.109,-0.06 -8.87,-2.628 -8.521,-4.086 v 0 c 0.351,-1.46 9.454,-0.875 10.855,-0.816 v 0 c 1.398,0.056 16.281,1.341 17.622,1.749 v 0 c 1.341,0.409 16.806,2.335 17.507,2.86 v 0 c 0.7,0.525 0.641,1.051 -0.057,1.867 v 0 c -0.703,0.817 -3.56,0.525 -3.56,0.525 v 0 c 0,0 -16.012,0.176 -18.455,0.176 v 0 c -0.093,0 -0.167,0 -0.219,-10e-4"
         id="path732"
         inkscape:connector-curvature="0" /></clipPath><radialGradient
       fx="0"
       fy="0"
       cx="0"
       cy="0"
       r="1"
       gradientUnits="userSpaceOnUse"
       gradientTransform="matrix(16.641203,0,0,-16.641203,277.19659,320.60812)"
       spreadMethod="pad"
       id="radialGradient746"><stop
         style="stop-opacity:1;stop-color:#fff200"
         offset="0"
         id="stop740" /><stop
         style="stop-opacity:1;stop-color:#fff200"
         offset="0.53239563"
         id="stop742" /><stop
         style="stop-opacity:1;stop-color:#f1511b"
         offset="1"
         id="stop744" /></radialGradient><clipPath
       clipPathUnits="userSpaceOnUse"
       id="clipPath756"><path
         d="M 0,595.276 H 841.89 V 0 H 0 Z"
         id="path754"
         inkscape:connector-curvature="0" /></clipPath><clipPath
       clipPathUnits="userSpaceOnUse"
       id="clipPath768"><path
         d="m 261.84,333.031 c -0.116,-1.632 0.292,-1.458 3.619,-3.092 v 0 c 3.326,-1.634 10.444,-3.093 13.654,-3.269 v 0 c 3.209,-0.173 19.549,-2.042 20.657,-1.75 v 0 c 1.11,0.291 1.459,0.582 0.876,1.4 v 0 c -0.583,0.818 -7.469,2.917 -7.469,2.917 v 0 c 0,0 -13.306,3.91 -15.172,4.32 v 0 c -1.868,0.408 -6.711,1.985 -9.454,1.985 v 0 c -2.741,0 -6.593,-0.876 -6.711,-2.511"
         id="path766"
         inkscape:connector-curvature="0" /></clipPath><radialGradient
       fx="0"
       fy="0"
       cx="0"
       cy="0"
       r="1"
       gradientUnits="userSpaceOnUse"
       gradientTransform="matrix(14.328562,0,0,-14.328562,281.37378,330.21518)"
       spreadMethod="pad"
       id="radialGradient780"><stop
         style="stop-opacity:1;stop-color:#fff200"
         offset="0"
         id="stop774" /><stop
         style="stop-opacity:1;stop-color:#fff200"
         offset="0.53239563"
         id="stop776" /><stop
         style="stop-opacity:1;stop-color:#f1511b"
         offset="1"
         id="stop778" /></radialGradient><clipPath
       clipPathUnits="userSpaceOnUse"
       id="clipPath790"><path
         d="M 0,595.276 H 841.89 V 0 H 0 Z"
         id="path788"
         inkscape:connector-curvature="0" /></clipPath><clipPath
       clipPathUnits="userSpaceOnUse"
       id="clipPath802"><path
         d="m 275.671,339.159 c -2.684,-0.235 -3.678,-1.284 -1.694,-2.452 v 0 c 3.23,-1.9 25.151,-8.635 28.186,-9.336 v 0 c 0.648,-0.15 1.168,0.175 0.527,1.227 v 0 c -0.643,1.049 -5.311,2.742 -6.712,3.966 v 0 c -1.4,1.227 -7.937,3.444 -11.145,4.844 v 0 c -2.753,1.201 -5.547,1.801 -7.979,1.801 v 0 c -0.405,0 -0.8,-0.017 -1.183,-0.05"
         id="path800"
         inkscape:connector-curvature="0" /></clipPath><radialGradient
       fx="0"
       fy="0"
       cx="0"
       cy="0"
       r="1"
       gradientUnits="userSpaceOnUse"
       gradientTransform="matrix(11.423477,0,0,-11.423477,287.95737,333.27249)"
       spreadMethod="pad"
       id="radialGradient814"><stop
         style="stop-opacity:1;stop-color:#fff200"
         offset="0"
         id="stop808" /><stop
         style="stop-opacity:1;stop-color:#fff200"
         offset="0.53239563"
         id="stop810" /><stop
         style="stop-opacity:1;stop-color:#f1511b"
         offset="1"
         id="stop812" /></radialGradient><clipPath
       clipPathUnits="userSpaceOnUse"
       id="clipPath824"><path
         d="M 0,595.276 H 841.89 V 0 H 0 Z"
         id="path822"
         inkscape:connector-curvature="0" /></clipPath></defs><sodipodi:namedview
     pagecolor="#ffffff"
     bordercolor="#666666"
     borderopacity="1"
     objecttolerance="10"
     gridtolerance="10"
     guidetolerance="10"
     inkscape:pageopacity="0"
     inkscape:pageshadow="2"
     inkscape:window-width="2560"
     inkscape:window-height="1440"
     id="namedview4"
     showgrid="false"
     fit-margin-top="0"
     fit-margin-left="0"
     fit-margin-right="0"
     fit-margin-bottom="0"
     inkscape:zoom="0.59468211"
     inkscape:cx="1047.1753"
     inkscape:cy="-385.8123"
     inkscape:window-x="0"
     inkscape:window-y="0"
     inkscape:window-maximized="1"
     inkscape:current-layer="g10" /><g
     id="g10"
     inkscape:groupmode="layer"
     inkscape:label="Anabell_logo v křivkách"
     transform="matrix(1.3333333,0,0,-1.3333333,-159.8468,486.53159)"><g
       id="g12"><g
         id="g14"
         clip-path="url(#clipPath18)"><g
           id="g20"
           transform="translate(174.9341,279.5783)"><path
             d="M 0,0 C 7.435,0 15.577,0.18 24.25,0.713 22.304,12.215 19.649,26.375 16.463,43.191 6.728,28.679 -2.301,14.339 -10.619,0.18 -7.256,0 -3.715,0 0,0 m 21.773,74.167 c 2.124,-0.353 4.425,-0.707 6.549,-0.707 2.301,0 4.78,0.354 7.08,0.707 6.904,-41.597 14.161,-82.13 21.95,-121.605 -4.78,0.885 -9.559,1.239 -14.162,1.239 -4.602,0 -9.205,-0.354 -13.629,-1.239 -0.531,11.86 -1.769,24.073 -3.717,36.998 -6.903,0.172 -13.806,0.352 -20.533,0.352 -7.612,0 -15.399,-0.18 -22.833,-0.533 -7.966,-11.506 -14.692,-23.719 -20.71,-36.817 -2.833,0.534 -5.842,0.713 -8.675,0.713 -2.653,0 -5.487,-0.179 -8.142,-0.713 25.135,37.883 50.803,78.417 76.822,121.605"
             style="fill:#5a74c2;fill-opacity:1;fill-rule:nonzero;stroke:none"
             id="path22"
             inkscape:connector-curvature="0" /></g><g
           id="g24"
           transform="translate(255.647,316.9299)"><path
             d="m 0,0 c 4.072,-0.533 8.143,-0.709 12.036,-0.709 4.072,0 7.965,0.176 11.86,0.709 -1.592,-4.781 -2.654,-9.206 -3.364,-13.454 8.321,10.088 19.471,15.398 30.447,15.398 14.515,0 22.303,-7.077 22.303,-20.532 0,-10.088 -6.904,-31.682 -12.567,-66.201 -4.072,0.533 -8.143,0.885 -12.391,0.885 -4.073,0 -8.321,-0.352 -12.569,-0.885 9.736,37.35 14.162,58.59 14.162,63.725 0,6.547 -3.541,10.443 -8.673,10.443 -19.825,0 -26.729,-24.426 -33.278,-74.168 -4.425,0.533 -8.674,0.885 -12.922,0.885 -4.248,0 -8.318,-0.352 -12.391,-0.885 C -10.266,-55.936 -4.425,-27.791 0,0"
             style="fill:#5a74c2;fill-opacity:1;fill-rule:nonzero;stroke:none"
             id="path26"
             inkscape:connector-curvature="0" /></g><g
           id="g28"
           transform="translate(388.9336,277.2815)"><path
             d="m 0,0 c -17.524,0 -26.553,-7.611 -26.553,-21.422 0,-8.849 3.187,-13.271 9.914,-13.271 11.151,0 14.514,11.147 17.877,34.693 z m -26.198,-47.438 c -14.869,0 -24.074,9.555 -24.074,23.892 0,20.183 13.453,26.023 39.651,29.032 10.974,1.24 15.399,1.059 15.399,13.806 0,8.142 -5.663,12.745 -15.576,12.745 -8.32,0 -14.692,-3.543 -18.763,-8.853 l -0.885,0.357 c 0.885,4.602 1.416,8.141 1.593,10.975 7.789,4.953 17.525,7.433 28.675,7.433 18.055,0 27.968,-8.144 27.968,-21.418 0,-6.373 -2.301,-15.758 -5.131,-28.142 -2.837,-12.573 -4.96,-20.709 -4.96,-24.957 0,-4.249 2.123,-6.373 6.198,-6.373 1.239,0 2.478,0.172 4.069,0.525 l -0.533,-4.248 c -4.068,-2.477 -8.848,-3.535 -14.335,-3.535 -8.673,0 -14.691,4.248 -16.815,11.679 -5.311,-8.849 -12.569,-12.918 -22.481,-12.918"
             style="fill:#5a74c2;fill-opacity:1;fill-rule:nonzero;stroke:none"
             id="path30"
             inkscape:connector-curvature="0" /></g><g
           id="g32"
           transform="translate(467.877,297.9885)"><path
             d="m 0,0 c -6.017,-11.504 -10.445,-29.031 -10.445,-42.129 0,-10.794 5.31,-16.994 13.632,-16.994 5.839,0 11.329,3.543 15.222,10.449 5.487,9.555 9.911,25.842 9.911,39.824 0,12.213 -5.487,18.939 -14.16,18.939 C 8.673,10.089 3.362,6.373 0,0 m -12.745,66.91 c 4.425,-0.532 8.673,-0.709 12.921,-0.709 4.249,0 8.321,0.177 12.393,0.709 C 9.911,58.768 7.611,50.094 5.663,40.713 L -0.354,11.33 c 5.488,6.193 13.808,9.736 23.187,9.736 18.765,0 30.269,-12.746 30.269,-33.809 0,-15.049 -5.311,-30.091 -13.984,-40.18 -8.497,-10.088 -19.647,-15.402 -31.507,-15.402 -12.036,0 -20.533,4.954 -25.843,15.221 -6.902,-4.42 -13.275,-8.848 -18.585,-13.45 l -4.073,0.706 c 13.275,50.096 22.482,94.347 28.145,132.758"
             style="fill:#5a74c2;fill-opacity:1;fill-rule:nonzero;stroke:none"
             id="path34"
             inkscape:connector-curvature="0" /></g><g
           id="g36"
           transform="translate(572.4854,279.758)"><path
             d="m 0,0 c 5.311,0 10.978,0.174 16.641,0.354 1.59,5.666 2.299,10.619 2.299,15.042 0,10.27 -3.718,15.403 -11.33,15.403 -12.035,0 -19.469,-9.91 -23.185,-30.445 C -10.617,0.174 -5.487,0 0,0 m 2.833,-49.915 c -27.614,0 -43.898,15.042 -43.898,37.703 0,30.267 20.003,51.509 47.614,51.509 22.128,0 33.987,-11.507 33.987,-32.751 0,-3.889 -0.533,-8.67 -1.595,-14.157 -7.254,0 -14.866,0.174 -22.476,0.174 -10.798,0 -21.776,-0.174 -33.103,-0.354 -0.352,-3.01 -0.532,-5.659 -0.532,-7.783 0,-16.468 9.029,-25.139 25.49,-25.139 7.258,0 13.631,1.772 19.471,5.308 l 2.124,-1.765 c -1.947,-2.484 -3.716,-5.486 -5.487,-9.029 -6.372,-2.657 -13.45,-3.716 -21.595,-3.716"
             style="fill:#5a74c2;fill-opacity:1;fill-rule:nonzero;stroke:none"
             id="path38"
             inkscape:connector-curvature="0" /></g><g
           id="g40"
           transform="translate(646.123,364.8987)"><path
             d="m 0,0 c 4.249,-0.532 8.673,-0.709 12.922,-0.709 4.425,0 8.849,0.177 13.274,0.709 C 11.503,-62.661 2.83,-107.268 -0.887,-132.758 c -4.07,0.533 -8.142,0.885 -12.391,0.885 -4.245,0 -8.493,-0.352 -12.921,-0.885 C -18.408,-104.078 -9.206,-59.652 0,0"
             style="fill:#5a74c2;fill-opacity:1;fill-rule:nonzero;stroke:none"
             id="path42"
             inkscape:connector-curvature="0" /></g><g
           id="g44"
           transform="translate(696.0381,364.8987)"><path
             d="m 0,0 c 4.249,-0.532 8.673,-0.709 12.922,-0.709 4.425,0 8.85,0.177 13.274,0.709 C 11.503,-62.661 2.83,-107.268 -0.885,-132.758 c -4.072,0.533 -8.144,0.885 -12.392,0.885 -4.246,0 -8.494,-0.352 -12.922,-0.885 C -18.408,-104.078 -9.206,-59.652 0,0"
             style="fill:#5a74c2;fill-opacity:1;fill-rule:nonzero;stroke:none"
             id="path46"
             inkscape:connector-curvature="0" /></g></g></g><g
       id="g48"><g
         id="g50"
         clip-path="url(#clipPath54)"><g
           id="g56"><g
             id="g58"><path
               d="m 320.054,332.619 c -11.177,-2.759 -19.253,-8.991 -18.038,-13.916 v 0 c 1.216,-4.925 11.265,-6.679 22.442,-3.92 v 0 c 11.179,2.761 19.257,8.993 18.04,13.917 v 0 c -0.825,3.344 -5.723,5.226 -12.281,5.227 v 0 c -3.101,0 -6.573,-0.421 -10.163,-1.308"
               style="fill:url(#radialGradient66);stroke:none"
               id="path68"
               inkscape:connector-curvature="0" /></g></g></g></g><g
       id="g70"><g
         id="g72"
         clip-path="url(#clipPath76)"><g
           id="g78"
           transform="translate(342.4976,328.6994)"><path
             d="m 0,0 c -1.214,4.925 -11.264,6.681 -22.443,3.92 -11.178,-2.76 -19.254,-8.991 -18.038,-13.916 1.216,-4.926 11.264,-6.68 22.442,-3.92 C -6.861,-11.155 1.217,-4.924 0,0 Z"
             style="fill:none;stroke:#231f20;stroke-width:0.5;stroke-linecap:butt;stroke-linejoin:miter;stroke-miterlimit:4;stroke-dasharray:none;stroke-opacity:1"
             id="path80"
             inkscape:connector-curvature="0" /></g></g></g><g
       id="g82"><g
         id="g84"
         clip-path="url(#clipPath88)"><g
           id="g90"><g
             id="g92"><path
               d="m 295.816,350.945 c -0.602,-0.464 -6.516,-3.873 -6.763,-6.253 v 0 c -0.248,-2.382 0.463,-3.937 0.88,-4.54 v 0 c 0.417,-0.601 5.771,-5.812 6.161,-6.114 v 0 c 2.012,-1.559 3.482,-1.112 4.815,-2.143 v 0 c 1.547,-1.197 1.622,-1.098 2.412,-1.654 v 0 c 0.786,-0.557 2.36,-0.511 2.87,-0.233 v 0 c 0.509,0.279 0.603,0.603 0.649,0.972 v 0 c 0.046,0.372 0.137,1.114 -0.046,1.901 v 0 c -0.185,0.787 -4.289,3.712 -5.605,6.297 v 0 c -2.409,4.737 -1.714,11.303 -2.501,11.812 v 0 c -0.366,0.237 -0.882,0.344 -1.39,0.344 v 0 c -0.585,0 -1.159,-0.142 -1.482,-0.389"
               style="fill:url(#radialGradient100);stroke:none"
               id="path102"
               inkscape:connector-curvature="0" /></g></g></g></g><g
       id="g104"><g
         id="g106"
         clip-path="url(#clipPath110)"><g
           id="g112"
           transform="translate(306.7935,332.8811)"><path
             d="m 0,0 c -0.185,0.787 -4.288,3.712 -5.604,6.298 -2.41,4.736 -1.714,11.302 -2.501,11.811 -0.789,0.51 -2.27,0.416 -2.872,-0.045 -0.602,-0.464 -6.517,-3.873 -6.763,-6.253 -0.248,-2.382 0.463,-3.937 0.88,-4.54 0.417,-0.601 5.771,-5.812 6.16,-6.115 2.013,-1.558 3.482,-1.111 4.815,-2.142 1.547,-1.198 1.623,-1.098 2.412,-1.654 0.786,-0.557 2.361,-0.51 2.87,-0.233 C -0.093,-2.594 0,-2.27 0.046,-1.9 0.092,-1.529 0.184,-0.787 0,0 Z"
             style="fill:none;stroke:#231f20;stroke-width:0.5;stroke-linecap:butt;stroke-linejoin:miter;stroke-miterlimit:4;stroke-dasharray:none;stroke-opacity:1"
             id="path114"
             inkscape:connector-curvature="0" /></g></g></g><g
       id="g116"><g
         id="g118"
         clip-path="url(#clipPath122)"><g
           id="g124"><g
             id="g126"><path
               d="m 305.315,356.316 c 0,0 -2.647,-1.556 -3.891,-3.581 v 0 c -1.245,-2.024 -0.622,-7.002 0.156,-9.335 v 0 c 0.779,-2.335 4.798,-8.572 5.446,-9.337 v 0 c 0.646,-0.766 2.243,-1.32 3.114,-1.089 v 0 c 0.868,0.23 2.888,1.047 2.411,1.867 v 0 c -0.479,0.818 -3.501,2.567 -4.435,8.637 v 0 c -0.934,6.067 0.311,10.97 0,12.525 v 0 c -0.12,0.6 -0.563,0.784 -1.062,0.784 v 0 c -0.797,0 -1.739,-0.471 -1.739,-0.471"
               style="fill:url(#radialGradient134);stroke:none"
               id="path136"
               inkscape:connector-curvature="0" /></g></g></g></g><g
       id="g138"><g
         id="g140"
         clip-path="url(#clipPath144)"><g
           id="g146"
           transform="translate(312.5508,334.841)"><path
             d="m 0,0 c -0.478,0.817 -3.501,2.567 -4.435,8.637 -0.934,6.067 0.311,10.969 0,12.525 -0.312,1.558 -2.801,0.314 -2.801,0.314 0,0 -2.646,-1.557 -3.89,-3.581 -1.246,-2.025 -0.623,-7.002 0.155,-9.336 0.779,-2.335 4.799,-8.572 5.446,-9.337 0.647,-0.766 2.243,-1.321 3.114,-1.089 C -1.543,-1.637 0.477,-0.819 0,0 Z"
             style="fill:none;stroke:#231f20;stroke-width:0.5;stroke-linecap:butt;stroke-linejoin:miter;stroke-miterlimit:4;stroke-dasharray:none;stroke-opacity:1"
             id="path148"
             inkscape:connector-curvature="0" /></g></g></g><g
       id="g150"><g
         id="g152"
         clip-path="url(#clipPath156)"><g
           id="g158"><g
             id="g160"><path
               d="m 322.238,359.699 c -0.118,-0.117 -4.92,-5.27 -5.077,-5.513 v 0 c -1.751,-2.715 -2.364,-3.852 -2.315,-5.884 v 0 c 0.072,-3.059 -0.166,-4.972 0.068,-6.225 v 0 c 0.233,-1.257 0.598,-3.966 1.629,-6.048 v 0 c 0.331,-0.666 2.037,-1.062 2.543,-1.1 v 0 c 1.012,-0.079 1.517,0.173 1.984,0.495 v 0 c 0.467,0.321 2.744,3.793 3.579,5.486 v 0 c 0.837,1.692 1.176,2.888 1.868,4.59 v 0 c 0.691,1.701 0.564,1.275 0.935,2.529 v 0 c 0.368,1.255 0.476,1.372 0.698,3.345 v 0 c 0.226,1.974 0.33,2.081 0.311,3.345 v 0 c -0.019,1.265 -0.009,2.5 -0.465,3.541 v 0 c -0.458,1.04 -1.107,2.147 -2.257,2.693 v 0 c -0.174,0.083 -0.394,0.126 -0.646,0.126 v 0 c -0.794,0 -1.902,-0.428 -2.855,-1.38"
               style="fill:url(#radialGradient168);stroke:none"
               id="path170"
               inkscape:connector-curvature="0" /></g></g></g></g><g
       id="g172"><g
         id="g174"
         clip-path="url(#clipPath178)"><g
           id="g180"
           transform="translate(316.543,336.0295)"><path
             d="m 0,0 c -1.031,2.082 -1.396,4.791 -1.629,6.047 -0.233,1.254 0.004,3.166 -0.068,6.225 -0.05,2.033 0.564,3.169 2.315,5.884 0.157,0.243 4.959,5.397 5.077,5.514 1.255,1.254 2.78,1.599 3.501,1.254 1.15,-0.547 1.799,-1.653 2.257,-2.694 0.457,-1.041 0.446,-2.275 0.465,-3.541 0.02,-1.263 -0.085,-1.371 -0.311,-3.344 C 11.384,13.371 11.277,13.254 10.908,12 10.538,10.745 10.665,11.172 9.974,9.471 9.282,7.769 8.943,6.572 8.106,4.881 7.271,3.188 4.994,-0.284 4.527,-0.605 4.06,-0.928 3.555,-1.179 2.543,-1.101 2.038,-1.062 0.331,-0.666 0,0 Z"
             style="fill:none;stroke:#231f20;stroke-width:0.5;stroke-linecap:butt;stroke-linejoin:miter;stroke-miterlimit:4;stroke-dasharray:none;stroke-opacity:1"
             id="path182"
             inkscape:connector-curvature="0" /></g></g></g><g
       id="g184"><g
         id="g186"
         clip-path="url(#clipPath190)"><g
           id="g192"><g
             id="g194"><path
               d="m 337.267,360.208 c -1.325,-0.827 -2.142,-1.654 -1.806,-1.321 v 0 c 0.622,0.626 -3.17,-2.436 -4.144,-4.14 v 0 c -0.971,-1.704 -1.008,-3.338 -1.182,-6.782 v 0 c -0.174,-3.442 -5.217,-11.27 -5.217,-11.27 v 0 l 6.191,-0.07 c 0,0 9.254,12.141 10.54,14.368 v 0 c 1.287,2.226 3.546,6.259 3.581,7.964 v 0 c 0.034,1.704 -0.484,2.504 -3.722,2.644 v 0 c -0.063,0.003 -0.125,0.004 -0.187,0.004 v 0 c -1.455,0 -2.936,-0.699 -4.054,-1.397"
               style="fill:url(#radialGradient202);stroke:none"
               id="path204"
               inkscape:connector-curvature="0" /></g></g></g></g><g
       id="g206"><g
         id="g208"
         clip-path="url(#clipPath212)"><g
           id="g214"
           transform="translate(324.9185,336.6955)"><path
             d="m 0,0 c 0,0 5.042,7.827 5.217,11.27 0.173,3.443 0.21,5.078 1.182,6.781 0.974,1.705 4.766,4.766 4.143,4.14 -0.63,-0.627 2.816,2.852 6.047,2.714 3.238,-0.139 3.757,-0.939 3.723,-2.643 C 20.277,20.557 18.018,16.523 16.731,14.297 15.444,12.07 6.191,-0.07 6.191,-0.07 Z"
             style="fill:none;stroke:#231f20;stroke-width:0.5;stroke-linecap:butt;stroke-linejoin:miter;stroke-miterlimit:4;stroke-dasharray:none;stroke-opacity:1"
             id="path216"
             inkscape:connector-curvature="0" /></g></g></g><g
       id="g218"><g
         id="g220"
         clip-path="url(#clipPath224)"><g
           id="g226"><g
             id="g228"><path
               d="m 343.472,350.107 c -5.645,-7.145 -11.989,-16.05 -8.002,-14.697 v 0 c 3.99,1.354 6.806,4.036 12.451,11.182 v 0 c 5.647,7.147 9.23,13.727 8.002,14.698 v 0 c -0.102,0.081 -0.235,0.12 -0.395,0.12 v 0 c -1.763,0 -6.877,-4.752 -12.056,-11.303"
               style="fill:url(#radialGradient236);stroke:none"
               id="path238"
               inkscape:connector-curvature="0" /></g></g></g></g><g
       id="g240"><g
         id="g242"
         clip-path="url(#clipPath246)"><g
           id="g248"
           transform="translate(347.9214,346.592)"><path
             d="M 0,0 C 5.646,7.146 9.23,13.727 8.002,14.697 6.774,15.668 1.201,10.662 -4.449,3.516 -10.094,-3.63 -16.438,-12.535 -12.451,-11.182 -8.461,-9.828 -5.646,-7.146 0,0 Z"
             style="fill:none;stroke:#231f20;stroke-width:0.5;stroke-linecap:butt;stroke-linejoin:miter;stroke-miterlimit:4;stroke-dasharray:none;stroke-opacity:1"
             id="path250"
             inkscape:connector-curvature="0" /></g></g></g><g
       id="g252"><g
         id="g254"
         clip-path="url(#clipPath258)"><g
           id="g260"><g
             id="g262"><path
               d="m 367.095,354.525 c 0,0 -10.351,-3.734 -14.863,-7.313 v 0 c -4.511,-3.579 -12.447,-12.216 -12.447,-12.216 v 0 l 2.255,-1.323 c 0,0 15.714,6.927 17.662,7.936 v 0 c 1.944,1.012 12.451,7.081 13.925,8.481 v 0 c 1.48,1.402 4.593,4.047 3.736,5.758 v 0 c -0.189,0.377 -0.792,0.524 -1.617,0.524 v 0 c -2.926,0 -8.651,-1.847 -8.651,-1.847"
               style="fill:url(#radialGradient270);stroke:none"
               id="path272"
               inkscape:connector-curvature="0" /></g></g></g></g><g
       id="g274"><g
         id="g276"
         clip-path="url(#clipPath280)"><g
           id="g282"
           transform="translate(339.7847,334.9963)"><path
             d="m 0,0 c 0,0 7.937,8.637 12.447,12.216 4.512,3.579 14.863,7.313 14.863,7.313 0,0 9.411,3.035 10.268,1.323 0.858,-1.711 -2.256,-4.356 -3.736,-5.758 C 32.368,13.693 21.861,7.625 19.917,6.613 17.969,5.604 2.256,-1.323 2.256,-1.323 Z"
             style="fill:none;stroke:#231f20;stroke-width:0.5;stroke-linecap:butt;stroke-linejoin:miter;stroke-miterlimit:4;stroke-dasharray:none;stroke-opacity:1"
             id="path284"
             inkscape:connector-curvature="0" /></g></g></g><g
       id="g286"><g
         id="g288"
         clip-path="url(#clipPath292)"><g
           id="g294"><g
             id="g296"><path
               d="m 377.675,345.344 c -2.492,-0.156 -13.459,-3.969 -15.873,-4.9 v 0 c -2.415,-0.934 -17.043,-7.004 -16.26,-7.394 v 0 c 0.774,-0.388 1.009,-1.01 2.019,-0.856 v 0 c 1.014,0.156 14.241,2.258 16.185,2.959 v 0 c 1.945,0.699 13.852,3.266 16.419,4.278 v 0 c 2.567,1.013 10.97,4.436 10.891,5.601 v 0 c -0.033,0.508 -2.094,0.663 -4.618,0.663 v 0 c -3.285,0 -7.355,-0.263 -8.763,-0.351"
               style="fill:url(#radialGradient304);stroke:none"
               id="path306"
               inkscape:connector-curvature="0" /></g></g></g></g><g
       id="g308"><g
         id="g310"
         clip-path="url(#clipPath314)"><g
           id="g316"
           transform="translate(345.5415,333.05)"><path
             d="m 0,0 c -0.782,0.39 13.845,6.46 16.26,7.394 2.415,0.931 13.382,4.744 15.873,4.9 2.491,0.156 13.305,0.856 13.382,-0.312 C 45.594,10.817 37.191,7.394 34.624,6.382 32.057,5.369 20.149,2.802 18.205,2.103 16.26,1.401 3.034,-0.7 2.02,-0.856 1.01,-1.011 0.775,-0.389 0,0 Z"
             style="fill:none;stroke:#231f20;stroke-width:0.5;stroke-linecap:butt;stroke-linejoin:miter;stroke-miterlimit:4;stroke-dasharray:none;stroke-opacity:1"
             id="path318"
             inkscape:connector-curvature="0" /></g></g></g><g
       id="g320"><g
         id="g322"
         clip-path="url(#clipPath326)"><g
           id="g328"><g
             id="g330"><path
               d="m 382.657,338.342 c -2.259,-0.312 -7.626,-2.256 -9.494,-2.723 v 0 c -1.868,-0.466 -25.29,-5.447 -25.29,-5.447 v 0 l 0.229,-0.173 c 0,0 18.446,1.185 21.48,1.341 v 0 c 3.034,0.155 14.548,1.243 17.118,1.634 v 0 c 2.568,0.388 10.192,3.655 10.192,4.668 v 0 c 0,0.65 -4.959,0.882 -9.097,0.882 v 0 c -2.293,0 -4.334,-0.071 -5.138,-0.182"
               style="fill:url(#radialGradient338);stroke:none"
               id="path340"
               inkscape:connector-curvature="0" /></g></g></g></g><g
       id="g342"><g
         id="g344"
         clip-path="url(#clipPath348)"><g
           id="g350"
           transform="translate(348.1021,329.9983)"><path
             d="m 0,0 c 0,0 18.446,1.186 21.48,1.342 3.034,0.155 14.548,1.243 17.119,1.634 2.567,0.387 10.191,3.655 10.191,4.668 0,1.01 -11.98,1.01 -14.235,0.7 C 32.295,8.032 26.929,6.088 25.061,5.621 23.193,5.154 -0.229,0.174 -0.229,0.174 Z"
             style="fill:none;stroke:#231f20;stroke-width:0.5;stroke-linecap:butt;stroke-linejoin:miter;stroke-miterlimit:4;stroke-dasharray:none;stroke-opacity:1"
             id="path352"
             inkscape:connector-curvature="0" /></g></g></g><g
       id="g354"><g
         id="g356"
         clip-path="url(#clipPath360)"><g
           id="g362"><g
             id="g364"><path
               d="m 348.655,327.76 h -0.235 c 0,0 -2.336,-2.179 0.155,-2.179 v 0 c 2.489,0 18.208,-3.577 20.927,-3.968 v 0 c 2.727,-0.39 10.193,-0.467 12.296,-0.312 v 0 c 2.101,0.156 6.767,1.246 6.692,2.024 v 0 c -0.077,0.778 -3.578,2.101 -5.446,2.489 v 0 c -1.868,0.389 -9.107,1.402 -11.206,1.868 v 0 c -0.788,0.176 -4.246,0.231 -8.261,0.231 v 0 c -6.688,0 -14.922,-0.153 -14.922,-0.153"
               style="fill:url(#radialGradient372);stroke:none"
               id="path374"
               inkscape:connector-curvature="0" /></g></g></g></g><g
       id="g376"><g
         id="g378"
         clip-path="url(#clipPath382)"><g
           id="g384"
           transform="translate(348.6553,327.76)"><path
             d="m 0,0 c 0,0 21.083,0.391 23.183,-0.078 2.099,-0.466 9.338,-1.479 11.206,-1.867 1.868,-0.389 5.369,-1.711 5.445,-2.49 C 39.91,-5.213 35.243,-6.303 33.143,-6.459 31.04,-6.614 23.574,-6.537 20.847,-6.146 18.128,-5.756 2.408,-2.179 -0.08,-2.179 -2.571,-2.179 -0.235,0 -0.235,0 Z"
             style="fill:none;stroke:#231f20;stroke-width:0.5;stroke-linecap:butt;stroke-linejoin:miter;stroke-miterlimit:4;stroke-dasharray:none;stroke-opacity:1"
             id="path386"
             inkscape:connector-curvature="0" /></g></g></g><g
       id="g388"><g
         id="g390"
         clip-path="url(#clipPath394)"><g
           id="g396"><g
             id="g398"><path
               d="m 346.981,323.285 c -1.128,-0.115 -1.401,-0.698 -1.401,-0.698 v 0 c 0,0 -0.661,-0.583 -0.118,-1.519 v 0 c 0.543,-0.932 6.926,-2.8 9.102,-3.035 v 0 c 2.18,-0.232 8.02,-3.035 10.856,-4.201 v 0 c 2.838,-1.166 5.875,-1.166 9.335,-1.399 v 0 c 3.465,-0.234 8.213,1.206 8.365,2.101 v 0 c 0.159,0.893 -8.712,4.667 -10.815,4.784 v 0 c -0.856,0.047 -2.24,0.024 -3.736,0 v 0 c -2.177,-0.034 -4.589,-0.068 -5.951,0.117 v 0 c -2.262,0.307 -14.129,3.854 -15.576,3.853 v 0 c -0.023,0 -0.044,-0.001 -0.061,-0.003"
               style="fill:url(#radialGradient406);stroke:none"
               id="path408"
               inkscape:connector-curvature="0" /></g></g></g></g><g
       id="g410"><g
         id="g412"
         clip-path="url(#clipPath416)"><g
           id="g418"
           transform="translate(346.981,323.2854)"><path
             d="m 0,0 c 1.127,0.117 13.34,-3.539 15.637,-3.851 2.298,-0.311 7.587,0 9.687,-0.116 2.103,-0.117 10.974,-3.891 10.815,-4.785 -0.152,-0.894 -4.899,-2.334 -8.366,-2.101 -3.459,0.234 -6.497,0.234 -9.334,1.4 -2.836,1.166 -8.676,3.969 -10.856,4.201 -2.176,0.234 -8.559,2.103 -9.102,3.034 -0.543,0.937 0.118,1.52 0.118,1.52 0,0 0.273,0.583 1.401,0.698 z"
             style="fill:none;stroke:#231f20;stroke-width:0.5;stroke-linecap:butt;stroke-linejoin:miter;stroke-miterlimit:4;stroke-dasharray:none;stroke-opacity:1"
             id="path420"
             inkscape:connector-curvature="0" /></g></g></g><g
       id="g422"><g
         id="g424"
         clip-path="url(#clipPath428)"><g
           id="g430"><g
             id="g432"><path
               d="m 338.771,317.878 c 0,0 8.397,-7.727 10.735,-8.246 v 0 c 2.803,-0.622 12.06,-3.736 15.41,-5.602 v 0 c 2.064,-1.155 12.447,0.156 12.603,1.012 v 0 c 0.156,0.854 -6.535,3.267 -7.937,4.745 v 0 c -1.401,1.478 -6.77,3.422 -8.714,3.969 v 0 c -1.944,0.543 -5.134,0.699 -6.768,1.554 v 0 c -1.636,0.858 -8.247,3.035 -10.04,4.826 v 0 c -0.18,0.18 -0.422,0.256 -0.706,0.256 v 0 c -1.625,0 -4.583,-2.514 -4.583,-2.514"
               style="fill:url(#radialGradient440);stroke:none"
               id="path442"
               inkscape:connector-curvature="0" /></g></g></g></g><g
       id="g444"><g
         id="g446"
         clip-path="url(#clipPath450)"><g
           id="g452"
           transform="translate(338.771,317.8781)"><path
             d="m 0,0 c 0,0 4.079,3.468 5.29,2.258 1.792,-1.791 8.403,-3.968 10.039,-4.825 1.634,-0.857 4.823,-1.012 6.768,-1.555 1.944,-0.547 7.313,-2.491 8.714,-3.969 1.401,-1.478 8.093,-3.891 7.937,-4.746 -0.156,-0.855 -10.539,-2.166 -12.603,-1.012 -3.35,1.867 -12.607,4.981 -15.41,5.603 C 8.397,-7.728 0,0 0,0 Z"
             style="fill:none;stroke:#231f20;stroke-width:0.5;stroke-linecap:butt;stroke-linejoin:miter;stroke-miterlimit:4;stroke-dasharray:none;stroke-opacity:1"
             id="path454"
             inkscape:connector-curvature="0" /></g></g></g><g
       id="g456"><g
         id="g458"
         clip-path="url(#clipPath462)"><g
           id="g464"><g
             id="g466"><path
               d="m 333.958,314.969 c -0.692,-0.498 2.713,-14.597 3.799,-16.774 v 0 c 1.094,-2.18 6.152,-7.159 7.473,-8.404 v 0 c 1.321,-1.246 6.767,-2.491 7.701,-1.868 v 0 c 0.935,0.622 1.633,4.203 -0.155,7.937 v 0 c -1.152,2.402 -4.917,10.911 -6.069,12.215 v 0 c -1.477,1.674 -6.611,5.564 -8.479,8.093 v 0 c -0.165,0.223 -0.431,0.314 -0.754,0.314 v 0 c -1.14,-0.001 -2.979,-1.125 -3.516,-1.513"
               style="fill:url(#radialGradient474);stroke:none"
               id="path476"
               inkscape:connector-curvature="0" /></g></g></g></g><g
       id="g478"><g
         id="g480"
         clip-path="url(#clipPath484)"><g
           id="g486"
           transform="translate(333.9575,314.969)"><path
             d="m 0,0 c 0.69,0.498 3.523,2.209 4.271,1.199 1.868,-2.529 7.001,-6.42 8.479,-8.093 1.152,-1.303 4.917,-9.813 6.068,-12.215 1.789,-3.735 1.09,-7.315 0.156,-7.937 -0.934,-0.623 -6.38,0.622 -7.702,1.868 -1.321,1.244 -6.379,6.225 -7.472,8.405 C 2.714,-14.597 -0.691,-0.498 0,0 Z"
             style="fill:none;stroke:#231f20;stroke-width:0.5;stroke-linecap:butt;stroke-linejoin:miter;stroke-miterlimit:4;stroke-dasharray:none;stroke-opacity:1"
             id="path488"
             inkscape:connector-curvature="0" /></g></g></g><g
       id="g490"><g
         id="g492"
         clip-path="url(#clipPath496)"><g
           id="g498"><g
             id="g500"><path
               d="m 329.979,314.455 c -0.7,-0.078 -1.905,-0.584 -2.801,-2.1 v 0 -0.078 c 0,0 -2.841,-9.687 -1.05,-15.367 v 0 c 1.791,-5.679 4.98,-10.855 8.676,-12.412 v 0 c 3.693,-1.553 6.572,-0.543 7.548,-0.117 v 0 c 0.969,0.428 0.83,4.164 -0.353,5.37 v 0 c -1.983,2.023 -6.221,7.858 -7.159,9.765 v 0 c -1.783,3.644 -1.632,10.934 -2.099,12.06 v 0 c -0.457,1.104 -1.996,2.881 -2.717,2.881 v 0 c -0.015,0 -0.031,-10e-4 -0.045,-0.002"
               style="fill:url(#radialGradient508);stroke:none"
               id="path510"
               inkscape:connector-curvature="0" /></g></g></g></g><g
       id="g512"><g
         id="g514"
         clip-path="url(#clipPath518)"><g
           id="g520"
           transform="translate(327.1777,312.3547)"><path
             d="m 0,0 c 0.896,1.517 2.101,2.022 2.801,2.1 0.7,0.079 2.295,-1.75 2.762,-2.878 0.467,-1.127 0.316,-8.416 2.1,-12.061 0.938,-1.906 5.176,-7.742 7.158,-9.765 1.183,-1.206 1.322,-4.942 0.353,-5.37 -0.975,-0.425 -3.854,-1.436 -7.549,0.118 C 3.93,-26.3 0.741,-21.124 -1.05,-15.444 -2.84,-9.765 0,-0.077 0,-0.077"
             style="fill:none;stroke:#231f20;stroke-width:0.5;stroke-linecap:butt;stroke-linejoin:miter;stroke-miterlimit:4;stroke-dasharray:none;stroke-opacity:1"
             id="path522"
             inkscape:connector-curvature="0" /></g></g></g><g
       id="g524"><g
         id="g526"
         clip-path="url(#clipPath530)"><g
           id="g532"><g
             id="g534"><path
               d="m 316.44,302.008 c -0.582,-4.283 -0.32,-11.876 -0.077,-12.84 v 0 c 0.427,-1.712 1.401,-4.787 5.563,-6.223 v 0 c 5.876,-2.031 7.703,4.317 5.174,7.311 v 0 c -2.527,2.997 -3.461,6.071 -3.617,9.223 v 0 c -0.155,3.15 0.972,9.453 1.399,10.658 v 0 c 0.429,1.206 1.246,3.035 -1.09,3.383 v 0 c -0.052,0.008 -0.106,0.012 -0.16,0.012 v 0 c -2.37,-10e-4 -6.622,-7.341 -7.192,-11.524"
               style="fill:url(#radialGradient542);stroke:none"
               id="path544"
               inkscape:connector-curvature="0" /></g></g></g></g><g
       id="g546"><g
         id="g548"
         clip-path="url(#clipPath552)"><g
           id="g554"
           transform="translate(323.7925,313.5207)"><path
             d="m 0,0 c 2.335,-0.349 1.519,-2.178 1.09,-3.384 -0.427,-1.205 -1.555,-7.508 -1.399,-10.658 0.156,-3.152 1.09,-6.226 3.617,-9.223 2.528,-2.994 0.702,-9.341 -5.174,-7.311 -4.162,1.436 -5.136,4.511 -5.563,6.223 -0.243,0.964 -0.506,8.558 0.077,12.84 C -6.769,-7.233 -2.333,0.351 0,0 Z"
             style="fill:none;stroke:#231f20;stroke-width:0.5;stroke-linecap:butt;stroke-linejoin:miter;stroke-miterlimit:4;stroke-dasharray:none;stroke-opacity:1"
             id="path556"
             inkscape:connector-curvature="0" /></g></g></g><g
       id="g558"><g
         id="g560"
         clip-path="url(#clipPath564)"><g
           id="g566"><g
             id="g568"><path
               d="m 313.561,311.966 c -0.446,-0.233 -3.403,-6.827 -4.355,-8.403 v 0 c -0.954,-1.576 -4.474,-3.21 -6.925,-6.38 v 0 c -2.45,-3.171 -6.537,-5.409 -7.316,-7.703 v 0 c -0.777,-2.297 -0.854,-2.141 -0.156,-3.951 v 0 c 0.755,-1.944 4.075,-2.733 8.23,2.335 v 0 c 2.391,2.919 4.668,7.702 6.711,10.174 v 0 c 0.843,1.019 4.025,9.609 4.511,10.736 v 0 c 0.487,1.129 0.974,2.258 0.623,2.802 v 0 c -0.229,0.357 -0.533,0.514 -0.842,0.514 v 0 c -0.163,0 -0.327,-0.044 -0.481,-0.124"
               style="fill:url(#radialGradient576);stroke:none"
               id="path578"
               inkscape:connector-curvature="0" /></g></g></g></g><g
       id="g580"><g
         id="g582"
         clip-path="url(#clipPath586)"><g
           id="g588"
           transform="translate(314.8838,311.5764)"><path
             d="m 0,0 c 0.351,-0.545 -0.136,-1.673 -0.623,-2.803 -0.485,-1.127 -3.669,-9.716 -4.511,-10.736 -2.042,-2.471 -4.319,-7.255 -6.711,-10.173 -4.155,-5.068 -7.474,-4.28 -8.229,-2.335 -0.699,1.809 -0.621,1.653 0.156,3.95 0.778,2.294 4.864,4.533 7.315,7.703 2.451,3.171 5.971,4.804 6.925,6.38 0.952,1.577 3.909,8.17 4.355,8.404 C -0.875,0.623 -0.349,0.545 0,0 Z"
             style="fill:none;stroke:#231f20;stroke-width:0.5;stroke-linecap:butt;stroke-linejoin:miter;stroke-miterlimit:4;stroke-dasharray:none;stroke-opacity:1"
             id="path590"
             inkscape:connector-curvature="0" /></g></g></g><g
       id="g592"><g
         id="g594"
         clip-path="url(#clipPath598)"><g
           id="g600"><g
             id="g602"><path
               d="m 307.589,312.666 c -1.224,-0.352 -11.204,-8.636 -12.721,-9.861 v 0 c -1.517,-1.227 -8.11,-8.578 -9.042,-10.155 v 0 c -0.936,-1.576 -1.754,-3.151 -0.293,-4.026 v 0 c 1.458,-0.876 1.925,-0.76 4.025,1.224 v 0 c 2.101,1.984 11.905,8.289 12.898,9.513 v 0 c 0.991,1.226 8.285,10.444 8.752,12.312 v 0 c 0.26,1.039 -0.51,1.338 -1.455,1.338 v 0 c -0.754,0 -1.62,-0.19 -2.164,-0.345"
               style="fill:url(#radialGradient610);stroke:none"
               id="path612"
               inkscape:connector-curvature="0" /></g></g></g></g><g
       id="g614"><g
         id="g616"
         clip-path="url(#clipPath620)"><g
           id="g622"
           transform="translate(311.2085,311.6731)"><path
             d="m 0,0 c -0.467,-1.868 -7.762,-11.086 -8.753,-12.313 -0.993,-1.223 -10.796,-7.528 -12.898,-9.512 -2.099,-1.984 -2.567,-2.1 -4.025,-1.225 -1.46,0.876 -0.643,2.451 0.293,4.028 0.932,1.576 7.526,8.927 9.043,10.154 1.517,1.224 11.496,9.51 12.721,9.861 C -2.393,1.343 0.467,1.868 0,0 Z"
             style="fill:none;stroke:#231f20;stroke-width:0.5;stroke-linecap:butt;stroke-linejoin:miter;stroke-miterlimit:4;stroke-dasharray:none;stroke-opacity:1"
             id="path624"
             inkscape:connector-curvature="0" /></g></g></g><g
       id="g626"><g
         id="g628"
         clip-path="url(#clipPath632)"><g
           id="g634"><g
             id="g636"><path
               d="m 302.339,314.651 c -0.992,-0.235 -8.228,-4.846 -8.228,-4.846 v 0 c 0,0 -18.033,-12.603 -19.258,-13.771 v 0 c -1.227,-1.165 -6.302,-7.819 0.058,-7.176 v 0 c 6.361,0.641 7.819,1.342 9.395,4.142 v 0 c 2.685,6.011 20.075,19.433 20.367,20.424 v 0 c 0.242,0.823 -0.843,1.286 -1.786,1.286 v 0 c -0.193,0 -0.38,-0.02 -0.548,-0.059"
               style="fill:url(#radialGradient644);stroke:none"
               id="path646"
               inkscape:connector-curvature="0" /></g></g></g></g><g
       id="g648"><g
         id="g650"
         clip-path="url(#clipPath654)"><g
           id="g656"
           transform="translate(304.6733,313.424)"><path
             d="m 0,0 c -0.292,-0.991 -17.683,-14.413 -20.367,-20.424 -1.576,-2.801 -3.034,-3.501 -9.395,-4.142 -6.36,-0.643 -1.285,6.01 -0.058,7.176 1.225,1.168 19.257,13.771 19.257,13.771 0,0 7.236,4.611 8.228,4.846 C -1.342,1.46 0.291,0.992 0,0 Z"
             style="fill:none;stroke:#231f20;stroke-width:0.5;stroke-linecap:butt;stroke-linejoin:miter;stroke-miterlimit:4;stroke-dasharray:none;stroke-opacity:1"
             id="path658"
             inkscape:connector-curvature="0" /></g></g></g><g
       id="g660"><g
         id="g662"
         clip-path="url(#clipPath666)"><g
           id="g668"><g
             id="g670"><path
               d="m 288.1,313.599 c -2.919,-0.991 -12.138,-4.201 -14.356,-5.077 v 0 c -2.218,-0.875 -6.594,-4.318 -8.051,-5.543 v 0 c -1.461,-1.226 -4.086,-4.202 -3.386,-4.961 v 0 c 0.7,-0.757 7.47,-0.293 9.979,0.526 v 0 c 2.51,0.817 12.487,6.827 13.48,7.469 v 0 c 0.992,0.642 14.238,7.937 15.23,9.102 v 0 c 0.993,1.168 -0.409,2.103 -1.165,2.278 v 0 c -0.022,0.005 -0.05,0.008 -0.083,0.008 v 0 c -1.133,0 -8.813,-2.837 -11.648,-3.802"
               style="fill:url(#radialGradient678);stroke:none"
               id="path680"
               inkscape:connector-curvature="0" /></g></g></g></g><g
       id="g682"><g
         id="g684"
         clip-path="url(#clipPath688)"><g
           id="g690"
           transform="translate(299.8301,317.3928)"><path
             d="m 0,0 c 0.757,-0.175 2.158,-1.109 1.166,-2.277 -0.992,-1.166 -14.238,-8.46 -15.229,-9.102 -0.993,-0.642 -10.971,-6.653 -13.481,-7.47 -2.51,-0.818 -9.279,-1.283 -9.979,-0.526 -0.701,0.76 1.925,3.735 3.385,4.961 1.458,1.226 5.834,4.668 8.052,5.543 2.217,0.877 11.438,4.086 14.356,5.077 C -8.812,-2.801 -0.76,0.176 0,0 Z"
             style="fill:none;stroke:#231f20;stroke-width:0.5;stroke-linecap:butt;stroke-linejoin:miter;stroke-miterlimit:4;stroke-dasharray:none;stroke-opacity:1"
             id="path692"
             inkscape:connector-curvature="0" /></g></g></g><g
       id="g694"><g
         id="g696"
         clip-path="url(#clipPath700)"><g
           id="g702"><g
             id="g704"><path
               d="m 284.599,317.918 c -2.567,-0.466 -7.703,-1.343 -9.862,-2.102 v 0 c -2.159,-0.759 -12.664,-4.784 -14.763,-5.601 v 0 c -2.101,-0.817 -6.595,-2.509 -6.245,-4.552 v 0 c 0.351,-2.042 5.31,-2.625 11.788,0.525 v 0 c 6.476,3.152 11.613,5.252 13.947,6.361 v 0 c 2.334,1.108 19.257,5.31 19.722,6.01 v 0 c 0.467,0.701 -0.524,1.227 -1.34,1.4 v 0 c -0.039,0.008 -0.099,0.013 -0.178,0.013 v 0 c -1.568,-10e-4 -10.625,-1.609 -13.069,-2.054"
               style="fill:url(#radialGradient712);stroke:none"
               id="path714"
               inkscape:connector-curvature="0" /></g></g></g></g><g
       id="g716"><g
         id="g718"
         clip-path="url(#clipPath722)"><g
           id="g724"
           transform="translate(297.8457,319.9592)"><path
             d="m 0,0 c 0.816,-0.173 1.808,-0.699 1.34,-1.4 -0.465,-0.7 -17.387,-4.902 -19.722,-6.01 -2.334,-1.11 -7.471,-3.209 -13.947,-6.361 -6.478,-3.15 -11.437,-2.567 -11.788,-0.526 -0.35,2.043 4.145,3.736 6.245,4.553 2.1,0.816 12.605,4.842 14.763,5.601 2.159,0.759 7.295,1.635 9.862,2.102 C -10.68,-1.574 -0.818,0.177 0,0 Z"
             style="fill:none;stroke:#231f20;stroke-width:0.5;stroke-linecap:butt;stroke-linejoin:miter;stroke-miterlimit:4;stroke-dasharray:none;stroke-opacity:1"
             id="path726"
             inkscape:connector-curvature="0" /></g></g></g><g
       id="g728"><g
         id="g730"
         clip-path="url(#clipPath734)"><g
           id="g736"><g
             id="g738"><path
               d="m 277.655,324.278 c -6.419,-0.058 -14.063,-2.218 -15.172,-2.274 v 0 c -1.109,-0.06 -8.87,-2.628 -8.521,-4.086 v 0 c 0.351,-1.46 9.454,-0.875 10.855,-0.816 v 0 c 1.398,0.056 16.281,1.341 17.622,1.749 v 0 c 1.341,0.409 16.806,2.335 17.507,2.86 v 0 c 0.7,0.525 0.641,1.051 -0.057,1.867 v 0 c -0.703,0.817 -3.56,0.525 -3.56,0.525 v 0 c 0,0 -16.012,0.176 -18.455,0.176 v 0 c -0.093,0 -0.167,0 -0.219,-10e-4"
               style="fill:url(#radialGradient746);stroke:none"
               id="path748"
               inkscape:connector-curvature="0" /></g></g></g></g><g
       id="g750"><g
         id="g752"
         clip-path="url(#clipPath756)"><g
           id="g758"
           transform="translate(299.8887,323.5783)"><path
             d="m 0,0 c 0.699,-0.816 0.757,-1.343 0.057,-1.867 -0.701,-0.526 -16.165,-2.451 -17.507,-2.861 -1.341,-0.407 -16.223,-1.692 -17.622,-1.749 -1.401,-0.058 -10.504,-0.643 -10.855,0.817 -0.349,1.458 7.413,4.026 8.521,4.086 1.109,0.056 8.753,2.216 15.173,2.274 1.418,0.014 18.673,-0.175 18.673,-0.175 0,0 2.857,0.291 3.56,-0.525 z"
             style="fill:none;stroke:#231f20;stroke-width:0.5;stroke-linecap:butt;stroke-linejoin:miter;stroke-miterlimit:4;stroke-dasharray:none;stroke-opacity:1"
             id="path760"
             inkscape:connector-curvature="0" /></g></g></g><g
       id="g762"><g
         id="g764"
         clip-path="url(#clipPath768)"><g
           id="g770"><g
             id="g772"><path
               d="m 261.84,333.031 c -0.116,-1.632 0.292,-1.458 3.619,-3.092 v 0 c 3.326,-1.634 10.444,-3.093 13.654,-3.269 v 0 c 3.209,-0.173 19.549,-2.042 20.657,-1.75 v 0 c 1.11,0.291 1.459,0.582 0.876,1.4 v 0 c -0.583,0.818 -7.469,2.917 -7.469,2.917 v 0 c 0,0 -13.306,3.91 -15.172,4.32 v 0 c -1.868,0.408 -6.711,1.985 -9.454,1.985 v 0 c -2.741,0 -6.593,-0.876 -6.711,-2.511"
               style="fill:url(#radialGradient780);stroke:none"
               id="path782"
               inkscape:connector-curvature="0" /></g></g></g></g><g
       id="g784"><g
         id="g786"
         clip-path="url(#clipPath790)"><g
           id="g792"
           transform="translate(300.646,326.3205)"><path
             d="m 0,0 c 0.583,-0.818 0.234,-1.109 -0.875,-1.4 -1.109,-0.292 -17.449,1.576 -20.658,1.75 -3.21,0.175 -10.328,1.634 -13.655,3.268 -3.326,1.634 -3.734,1.46 -3.619,3.093 0.119,1.635 3.971,2.51 6.712,2.51 2.743,0 7.586,-1.576 9.454,-1.985 1.866,-0.41 15.172,-4.319 15.172,-4.319 0,0 6.886,-2.1 7.469,-2.917 z"
             style="fill:none;stroke:#231f20;stroke-width:0.5;stroke-linecap:butt;stroke-linejoin:miter;stroke-miterlimit:4;stroke-dasharray:none;stroke-opacity:1"
             id="path794"
             inkscape:connector-curvature="0" /></g></g></g><g
       id="g796"><g
         id="g798"
         clip-path="url(#clipPath802)"><g
           id="g804"><g
             id="g806"><path
               d="m 275.671,339.159 c -2.684,-0.235 -3.678,-1.284 -1.694,-2.452 v 0 c 3.23,-1.9 25.151,-8.635 28.186,-9.336 v 0 c 0.648,-0.15 1.168,0.175 0.527,1.227 v 0 c -0.643,1.049 -5.311,2.742 -6.712,3.966 v 0 c -1.4,1.227 -7.937,3.444 -11.145,4.844 v 0 c -2.753,1.201 -5.547,1.801 -7.979,1.801 v 0 c -0.405,0 -0.8,-0.017 -1.183,-0.05"
               style="fill:url(#radialGradient814);stroke:none"
               id="path816"
               inkscape:connector-curvature="0" /></g></g></g></g><g
       id="g818"><g
         id="g820"
         clip-path="url(#clipPath824)"><g
           id="g826"
           transform="translate(302.6895,328.5979)"><path
             d="m 0,0 c 0.642,-1.052 0.122,-1.377 -0.526,-1.227 -3.035,0.702 -24.956,7.436 -28.186,9.336 -1.984,1.168 -0.991,2.217 1.693,2.452 2.684,0.233 5.951,-0.35 9.162,-1.75 C -14.648,7.41 -8.111,5.193 -6.712,3.967 -5.311,2.742 -0.643,1.049 0,0 Z"
             style="fill:none;stroke:#231f20;stroke-width:0.5;stroke-linecap:butt;stroke-linejoin:miter;stroke-miterlimit:4;stroke-dasharray:none;stroke-opacity:1"
             id="path828"
             inkscape:connector-curvature="0" /></g></g></g></g></svg>