<?xml version="1.0" encoding="UTF-8" standalone="no"?>
<!-- Created with Inkscape (http://www.inkscape.org/) -->

<svg
   xmlns:dc="http://purl.org/dc/elements/1.1/"
   xmlns:cc="http://creativecommons.org/ns#"
   xmlns:rdf="http://www.w3.org/1999/02/22-rdf-syntax-ns#"
   xmlns:svg="http://www.w3.org/2000/svg"
   xmlns="http://www.w3.org/2000/svg"
   xmlns:sodipodi="http://sodipodi.sourceforge.net/DTD/sodipodi-0.dtd"
   xmlns:inkscape="http://www.inkscape.org/namespaces/inkscape"
   width="190.89687mm"
   height="120.35159mm"
   viewBox="0 0 190.89687 120.35159"
   version="1.1"
   id="svg8"
   inkscape:version="0.92.4 5da689c313, 2019-01-14"
   sodipodi:docname="angeliny.svg">
  <defs
     id="defs2" />
  <sodipodi:namedview
     id="base"
     pagecolor="#ffffff"
     bordercolor="#666666"
     borderopacity="1.0"
     inkscape:pageopacity="0.0"
     inkscape:pageshadow="2"
     inkscape:zoom="0.7"
     inkscape:cx="221.86703"
     inkscape:cy="31.298299"
     inkscape:document-units="mm"
     inkscape:current-layer="g826"
     showgrid="false"
     fit-margin-top="0"
     fit-margin-left="0"
     fit-margin-right="0"
     fit-margin-bottom="0"
     inkscape:window-width="2560"
     inkscape:window-height="1440"
     inkscape:window-x="0"
     inkscape:window-y="0"
     inkscape:window-maximized="1" />
  <metadata
     id="metadata5">
    <rdf:RDF>
      <cc:Work
         rdf:about="">
        <dc:format>image/svg+xml</dc:format>
        <dc:type
           rdf:resource="http://purl.org/dc/dcmitype/StillImage" />
        <dc:title></dc:title>
      </cc:Work>
    </rdf:RDF>
  </metadata>
  <g
     inkscape:label="Layer 1"
     inkscape:groupmode="layer"
     id="layer1"
     transform="translate(-22.455917,-157.84328)">
    <g
       id="g826"
       transform="translate(24.856066,128.82391)">
      <path
         style="fill:#cdced1;stroke-width:0.26458335"
         d="m 67.016475,148.93069 c -5.0009,-1.35569 -8.138949,-4.36951 -9.058481,-8.69989 -1.133989,-5.34032 0.99659,-10.812 5.280379,-13.5609 3.809574,-2.4446 10.304852,-3.01557 14.870785,-1.30724 2.393471,0.89551 2.465806,0.99483 2.046462,2.80961 -0.349673,1.51329 -0.680064,2.21582 -1.042059,2.21582 -0.09776,0 -0.708258,-0.49556 -1.356664,-1.10124 -1.746565,-1.63149 -3.170182,-2.1951 -5.544545,-2.1951 -5.130125,0 -8.202083,4.0037 -8.202083,10.68983 0,5.87094 3.208567,9.32851 8.302228,8.94654 0.890804,-0.0668 1.947069,-0.25535 2.347251,-0.41899 l 0.727604,-0.29752 v -3.9753 c 0,-2.99373 0.08166,-3.97999 0.330729,-3.99429 1.679178,-0.0964 5.025999,-0.004 5.17275,0.14261 0.101785,0.10178 0.185063,2.26307 0.185063,4.80287 0,3.81853 -0.06869,4.66057 -0.396875,4.86487 -1.026927,0.63928 -5.323388,1.39564 -8.466667,1.49049 -2.671141,0.0806 -3.670559,0.001 -5.195877,-0.41217 z m -21.1996,-0.077 c -0.329231,-0.18792 -1.865706,-1.77043 -3.414392,-3.51668 -4.575911,-5.15966 -10.998952,-12.03854 -11.240786,-12.03854 -0.123391,0 -0.226169,3.36352 -0.228396,7.47448 -0.0021,4.11096 -0.102796,7.63017 -0.223481,7.82046 -0.148058,0.23345 -0.684593,0.31951 -1.649595,0.26458 l -1.430165,-0.0814 -0.0695,-11.64166 c -0.06393,-10.70953 -0.0334,-11.66815 0.381299,-11.9724 0.526497,-0.38627 2.157814,-0.43493 3.061559,-0.0913 0.525508,0.1998 6.472119,6.38018 12.966439,13.47619 0.960334,1.0493 1.570985,1.53576 1.652632,1.31651 0.07123,-0.19125 0.159721,-3.56242 0.19666,-7.49148 l 0.06716,-7.14375 1.497587,-0.0786 c 1.4513,-0.0762 1.502375,-0.0558 1.652447,0.66146 0.217403,1.03902 0.06584,22.74786 -0.160401,22.97409 -0.361818,0.36179 -2.462615,0.40856 -3.059068,0.0681 z m 123.979155,0.0925 c -0.48233,-0.1154 -2.35194,-1.98845 -5.84744,-5.85819 -2.82613,-3.12869 -6.10323,-6.70057 -7.28243,-7.9375 l -2.14401,-2.24896 -0.0122,7.58514 c -0.007,4.17182 -0.0845,7.77346 -0.17279,8.00364 -0.11841,0.3086 -0.52792,0.41852 -1.55918,0.41852 -1.03126,0 -1.44078,-0.10992 -1.55919,-0.41852 -0.26834,-0.69927 -0.17588,-22.69554 0.0972,-23.1275 0.17723,-0.28033 0.72444,-0.39553 1.88533,-0.39688 l 1.63561,-0.002 3.52393,3.70417 c 1.93816,2.03729 5.1063,5.45046 7.04031,7.58482 1.93401,2.13435 3.60382,3.89053 3.7107,3.9026 0.10687,0.0121 0.22594,-3.34156 0.26458,-7.45253 l 0.0703,-7.47452 1.52135,-0.0793 c 1.31413,-0.0685 1.52315,-0.0145 1.53454,0.39687 0.067,2.41813 -0.002,23.17544 -0.0776,23.25071 -0.21125,0.21125 -1.95601,0.31035 -2.62899,0.14933 z M -2.4001492,148.41696 c 0,-0.27058 2.13283038,-5.65816 4.7396229,-11.9724 l 4.7396229,-11.48043 1.3822587,-0.14307 c 0.9188363,-0.0951 1.4921167,-0.0332 1.7099347,0.1846 0.419949,0.41995 9.389767,22.82095 9.389317,23.44864 -3.18e-4,0.42944 -0.274813,0.46478 -3.082892,0.39688 l -3.082553,-0.0745 -1.101023,-3.30729 -1.101022,-3.30729 H 7.2648148 3.3365124 l -0.7484396,2.24896 c -0.411642,1.23693 -0.9383319,2.75497 -1.1704223,3.37344 l -0.42198261,1.12448 h -1.69790854 c -1.47872215,0 -1.69790855,-0.0635 -1.69790855,-0.49197 z m 12.1708336,-9.60602 c 0,-0.5003 -2.1807848,-6.0416 -2.3776756,-6.0416 -0.099104,0 -0.6885244,1.27992 -1.3098224,2.84427 -0.6212983,1.56435 -1.1896109,2.9931 -1.2629169,3.175 -0.101105,0.25088 0.4803908,0.33073 2.4085656,0.33073 1.7589689,0 2.5418493,-0.095 2.5418493,-0.3084 z m 81.0154176,9.78049 c -0.237159,-0.23716 -0.3175,-3.21409 -0.3175,-11.76465 0,-11.04668 0.01791,-11.45673 0.511773,-11.72105 0.547497,-0.29301 11.344595,-0.38639 12.386665,-0.10712 0.5306,0.14219 0.59531,0.32636 0.59531,1.69413 0,0.89652 -0.12308,1.57562 -0.29602,1.63326 -0.16281,0.0543 -1.08554,0.0108 -2.05052,-0.0966 -0.96497,-0.10743 -2.558171,-0.20145 -3.540437,-0.20892 l -1.785937,-0.0136 v 3.30729 3.3073 l 0.992187,0.0581 c 0.545703,0.032 2.242344,0.0617 3.770317,0.0661 l 2.77812,0.008 0.0271,1.39758 c 0.0149,0.76867 -0.0824,1.46525 -0.21621,1.54795 -0.13381,0.0827 -1.84265,0.13327 -3.797406,0.11236 l -3.554108,-0.038 v 4.01338 4.01339 l 3.770314,-0.0994 3.77031,-0.0994 0.0814,1.43017 c 0.0549,0.965 -0.0311,1.50154 -0.26458,1.6496 -0.57535,0.36489 -12.489258,0.28155 -12.860778,-0.09 z m 22.244778,0.10344 c -0.43991,-0.27948 -0.42639,0.16398 -0.3792,-12.42905 l 0.0419,-11.18791 2.71198,0.0754 2.71198,0.0754 0.13229,10.18646 0.13229,10.18645 3.77032,-0.0683 c 2.07367,-0.0376 3.77839,0.022 3.78827,0.13229 0.12943,1.44507 0.0848,2.64568 -0.10817,2.91257 -0.1796,0.24836 -1.76308,0.32972 -6.35833,0.32668 -3.36554,-0.002 -6.26505,-0.0967 -6.44335,-0.21001 z m 22.06627,-0.37234 c -0.21378,-0.87347 -0.22867,-18.94777 -0.0175,-21.27772 l 0.17816,-1.96607 2.67468,0.075 2.67467,0.075 v 11.77396 11.77395 l -2.68106,0.0751 c -2.6011,0.0728 -2.68546,0.0571 -2.82893,-0.52916 z m 47.96521,0.19878 c -0.006,-0.22338 -0.0104,-5.40676 -0.0104,-11.51863 0,-6.11188 0.005,-11.29526 0.0104,-11.51863 0.009,-0.34308 0.43148,-0.39443 2.72238,-0.33073 l 2.71198,0.0754 v 11.77396 11.77395 l -2.71198,0.0754 c -2.2909,0.0637 -2.71359,0.0123 -2.72238,-0.33073 z M 48.716905,105.71383 c 0.120509,-0.6304 3.601939,-6.740142 27.815437,-48.814726 17.255728,-29.984411 15.993245,-27.846428 16.443357,-27.846428 0.276786,0 31.624151,53.86391 31.624151,54.339506 0,0.07156 2.8645,5.093944 6.36555,11.160853 3.50105,6.066905 6.30275,11.194365 6.22601,11.394355 -0.11759,0.30643 -7.0952,0.36362 -44.364097,0.36362 H 48.602747 Z M 106.37859,73.171947 C 98.753858,59.893147 93.168847,50.371026 92.968931,50.309262 92.779862,50.25085 79.333512,73.169174 78.871034,74.338096 c -0.04851,0.122602 6.300308,0.222914 14.10848,0.222914 h 14.196676 z"
         id="path840"
         inkscape:connector-curvature="0" />
      <path
         style="fill:#aeadb1;stroke-width:0.26458335"
         d="m 68.90506,149.007 c -7.201045,-1.11885 -11.534817,-6.23187 -10.847591,-12.79807 0.600586,-5.73836 3.825618,-9.45735 9.524675,-10.98352 2.171895,-0.58162 6.644224,-0.58493 8.847672,-0.007 1.684451,0.44216 3.720036,1.33307 3.720036,1.62815 0,0.57787 -0.881049,3.01191 -1.090221,3.01191 -0.142409,0 -0.684352,-0.41317 -1.20432,-0.91816 -2.087573,-2.02743 -5.4699,-2.79625 -8.245652,-1.8743 -5.202809,1.7281 -7.682003,9.98688 -4.786826,15.94606 0.926486,1.907 2.201032,3.06655 4.043252,3.67843 1.734825,0.57622 4.417271,0.55985 5.736426,-0.035 l 1.035703,-0.46704 0.07301,-3.86551 0.07301,-3.86552 2.447396,-0.0761 2.447396,-0.0761 v 4.61961 4.61962 l -0.859896,0.27918 c -2.792508,0.90661 -8.624144,1.53864 -10.914063,1.18285 z m -70.8897644,-0.59719 c -0.079724,-0.129 1.98717724,-5.39751 4.593113,-11.70782 l 4.7380648,-11.47327 h 1.3705308 1.3705308 l 4.604075,11.50639 c 2.532241,6.32851 4.604075,11.60105 4.604075,11.71676 0,0.11571 -1.265034,0.17658 -2.811186,0.13528 l -2.811186,-0.0751 -1.047696,-3.17491 c -0.576232,-1.7462 -1.171246,-3.32377 -1.322253,-3.50573 -0.196348,-0.23658 -1.3562266,-0.33082 -4.0718238,-0.33082 h -3.797267 l -0.3675477,0.72761 c -0.2021515,0.40018 -0.6950793,1.73963 -1.0953949,2.97656 -1.03056693,3.18433 -1.22664699,3.43958 -2.64217261,3.43958 -0.64290069,0 -1.23413889,-0.10554 -1.31386239,-0.23453 z m 12.0007934,-9.00843 c 0.312889,-0.19802 0.152604,-0.82156 -0.9341315,-3.63397 -0.820755,-2.12407 -1.4514364,-3.39494 -1.684772,-3.39494 -0.458026,0 -3.0441887,6.30142 -2.8228676,6.87818 0.1208696,0.31498 0.6642507,0.39702 2.608375,0.39381 1.3506349,-0.002 2.6256631,-0.11162 2.8333961,-0.24308 z m 17.873209,8.92756 c -0.07304,-0.19033 -0.101713,-5.40621 -0.06372,-11.59085 l 0.06907,-11.24479 1.521259,-0.0793 c 0.836692,-0.0436 1.676122,0.0159 1.8654,0.13229 0.331573,0.2039 10.404208,10.93892 12.925634,13.77562 0.677074,0.76174 1.359858,1.38497 1.517298,1.38497 0.197017,0 0.308137,-2.37133 0.356455,-7.60677 l 0.0702,-7.60677 h 1.190625 1.190625 v 11.50938 11.50937 l -1.340381,0.0783 -1.34038,0.0783 -4.107661,-4.5762 c -7.27718,-8.10725 -10.896817,-11.85944 -11.127201,-11.53466 -0.03094,0.0436 -0.120232,3.65117 -0.198437,8.01679 l -0.14219,7.9375 -1.1269,0.0815 c -0.746575,0.054 -1.171718,-0.0353 -1.259695,-0.26459 z m 107.683512,-0.005 c -0.072,-0.18759 -0.0998,-5.40124 -0.0618,-11.58588 l 0.0691,-11.24479 h 2.38125 2.38125 v 11.50938 11.50937 l -2.31943,0.0765 c -1.70617,0.0563 -2.35404,-0.0137 -2.45032,-0.26458 z m 16.20352,0.15657 c -0.10393,-0.10393 -0.18898,-5.34835 -0.18898,-11.65425 v -11.46528 h 1.55819 c 1.11008,0 1.7073,0.13316 2.07668,0.46302 0.70011,0.62521 10.76812,11.45923 12.39665,13.33982 0.71428,0.82484 1.44569,1.50945 1.62536,1.52135 0.25059,0.0166 0.34303,-1.75008 0.39688,-7.58513 l 0.0702,-7.60677 h 1.19063 1.19062 v 11.50938 11.50937 l -1.32665,0.0778 -1.32665,0.0778 -5.34855,-5.89864 c -8.08903,-8.92098 -9.52424,-10.41636 -9.76705,-10.17649 -0.12252,0.12104 -0.2823,3.75244 -0.35506,8.06979 l -0.13229,7.84972 -0.9355,0.0787 c -0.51452,0.0433 -1.02054,-0.006 -1.12448,-0.11024 z m 31.68607,-0.15656 c -0.072,-0.1876 -0.0998,-5.40125 -0.0618,-11.58589 l 0.0691,-11.24479 h 2.38125 2.38125 v 11.50938 11.50937 l -2.31943,0.0765 c -1.70618,0.0563 -2.35404,-0.0137 -2.45032,-0.26458 z m -92.608183,-0.27503 c -0.06982,-0.18194 -0.09585,-5.3314 -0.05784,-11.44323 l 0.0691,-11.11242 h 6.350001 6.350002 v 1.19063 1.19062 l -3.667199,-0.1007 c -2.91366,-0.08 -3.714734,-0.0256 -3.898551,0.26458 -0.127246,0.20091 -0.233182,1.74969 -0.23541,3.44175 -0.0032,2.43734 0.07974,3.14599 0.399285,3.41119 0.299802,0.24881 1.284589,0.299 3.836455,0.1955 l 3.43313,-0.13924 v 1.29314 1.29315 l -3.38281,-0.17121 c -4.476893,-0.22658 -4.290111,-0.41825 -4.290111,4.40247 0,4.39965 0.10468,4.60677 2.216536,4.38567 0.745438,-0.078 2.307835,-0.17402 3.472005,-0.21327 l 2.11667,-0.0714 0.0806,1.25677 0.0806,1.25677 h -6.372797 c -4.854998,0 -6.403036,-0.0788 -6.499746,-0.33081 z m 22.167303,-11.11242 0.069,-11.44323 h 2.38125 2.38125 l 0.0693,10.17282 c 0.0527,7.72902 0.14802,10.22472 0.39687,10.38889 0.18015,0.11883 1.04191,0.15857 1.91504,0.0883 0.87312,-0.0703 2.4507,-0.19834 3.50573,-0.28459 l 1.91823,-0.15682 v 1.33893 1.33894 h -6.35281 -6.35282 z M 54.889827,106.12771 c -3.051712,-0.0508 -5.660089,-0.2039 -5.796391,-0.3402 -0.154043,-0.15404 -0.144592,-0.37722 0.02498,-0.58977 0.52105,-0.6531 12.201999,-21.02336 12.595472,-21.965075 0.498914,-1.194067 30.263579,-52.821709 30.821426,-53.46062 0.640861,-0.73399 -2.115788,-5.295366 20.780526,34.385175 6.06069,10.503487 11.01943,19.21148 11.01943,19.35109 0,0.139611 2.84791,5.178505 6.32868,11.19754 4.08322,7.06078 6.23875,11.03651 6.07521,11.20527 -0.24347,0.25123 -68.8617,0.43281 -81.849329,0.21659 z M 107.3939,74.627155 C 107.37739,74.21953 93.202555,49.896931 92.965084,49.868751 92.71777,49.839402 78.562352,74.131964 78.562352,74.585738 c 0,0.140483 5.97407,0.239855 14.419792,0.239855 7.930886,0 14.416176,-0.0893 14.411756,-0.198438 z"
         id="path838"
         inkscape:connector-curvature="0" />
      <path
         style="fill:#95949a;stroke-width:0.26458335"
         d="m 68.738368,148.64277 c -3.201372,-0.5073 -6.277357,-2.02369 -7.935183,-3.91185 -3.893653,-4.43463 -3.027645,-13.19527 1.657334,-16.76577 1.420122,-1.0823 3.524825,-2.04975 5.410783,-2.48713 1.76775,-0.40997 6.031261,-0.54667 7.42207,-0.23797 1.612046,0.3578 4.034105,1.22409 4.263567,1.52493 0.148892,0.19521 0.0987,0.80091 -0.131447,1.58605 l -0.372332,1.27023 -1.027232,-0.92804 c -1.933168,-1.7465 -3.00183,-2.14004 -5.813576,-2.14086 -2.298332,-7.9e-4 -2.63638,0.0672 -3.948234,0.79302 -3.542221,1.95975 -5.63884,7.34053 -4.811731,12.34887 0.826375,5.00389 3.687865,7.68139 8.240583,7.7107 1.455541,0.009 2.280123,-0.12563 3.043811,-0.49835 l 1.047446,-0.51122 0.132292,-3.83645 0.132291,-3.83646 2.189258,-0.0769 2.189261,-0.077 -0.07259,4.44257 -0.07259,4.44258 -2.645833,0.59016 c -3.07656,0.68625 -6.775575,0.93521 -8.897943,0.59889 z m -70.3447672,-0.65413 c 0,-0.16047 2.05944185,-5.28758 4.5765374,-11.39356 L 7.5466757,125.4933 h 1.1636796 1.1636793 l 4.4462414,11.10825 c 2.445433,6.10954 4.446242,11.24453 4.446242,11.41109 0,0.20783 -0.760453,0.29217 -2.423971,0.26883 l -2.42397,-0.034 -0.979883,-2.9272 c -1.508359,-4.5059 -0.941704,-4.08495 -5.492423,-4.08021 -2.1413123,0.002 -4.0503946,0.10366 -4.2424054,0.22541 -0.1920105,0.12175 -0.8631039,1.69751 -1.4913187,3.50168 l -1.14220837,3.28032 -1.08836885,0.0165 c -0.62677568,0.009 -1.08836888,-0.10728 -1.08836888,-0.27531 z M 10.14592,139.75249 c 0.617474,-0.23694 0.546989,-0.57408 -0.9359743,-4.47683 -1.0105498,-2.6595 -1.4694225,-3.56465 -1.8071176,-3.56465 -0.6480342,0 -3.5956003,7.31455 -3.1593759,7.84017 0.2166826,0.26109 1.0224019,0.36191 2.8921559,0.36191 1.4254885,0 2.7801285,-0.0723 3.0103119,-0.1606 z m 18.001069,8.29391 c -0.06932,-0.18064 -0.09492,-5.26945 -0.0569,-11.30847 l 0.06913,-10.98005 1.466337,-0.0777 1.466337,-0.0777 6.095746,6.56 c 3.35266,3.608 6.610699,7.12927 7.24009,7.82504 0.629391,0.69578 1.27458,1.22172 1.433753,1.16877 0.196454,-0.0654 0.331894,-2.55366 0.421696,-7.74734 l 0.132292,-7.65106 h 0.926041 0.926042 l 0.06899,11.31094 0.06898,11.31094 -1.127318,-0.004 c -0.620027,-0.002 -1.247648,-0.0915 -1.394717,-0.19844 -0.147068,-0.10691 -2.409256,-2.57321 -5.027083,-5.48067 -6.809843,-7.56328 -9.671619,-10.49189 -10.160595,-10.39792 -0.368816,0.0709 -0.436029,1.04556 -0.552218,8.00811 l -0.132291,7.92741 -0.869143,0.0703 c -0.50604,0.0409 -0.921798,-0.0669 -0.995178,-0.25812 z M 135.71235,136.96545 v -11.36126 l 2.18282,0.0768 2.18281,0.0768 v 11.2448 11.24479 l -2.18281,0.0396 -2.18282,0.0396 z m 16.27582,11.19777 c -0.0749,-0.0749 -0.13623,-5.17655 -0.13623,-11.33693 v -11.2007 h 1.41784 1.41784 l 6.21438,6.68073 c 3.41791,3.6744 6.66695,7.19082 7.22009,7.81427 0.55314,0.62345 1.137,1.08986 1.29746,1.03648 0.19952,-0.0664 0.33359,-2.51597 0.42405,-7.74813 l 0.1323,-7.65106 0.99218,-0.0821 0.99219,-0.0821 v 11.39305 11.39306 h -1.17567 -1.17567 l -4.83769,-5.35781 c -7.20595,-7.9807 -10.10768,-10.90201 -10.62989,-10.70162 -0.39326,0.15091 -0.43733,0.96683 -0.43733,8.09593 v 7.92811 l -0.7898,-0.0225 c -0.4344,-0.0123 -0.85112,-0.0838 -0.92605,-0.15869 z m 31.61377,-11.18586 v -11.37317 l 2.18281,0.0768 2.18281,0.0768 v 11.2448 11.24479 l -2.18281,0.0515 -2.18281,0.0515 z m -92.483206,10.80683 c -0.06986,-0.18204 -0.09589,-5.21243 -0.05784,-11.17865 l 0.06917,-10.84766 h 6.085417 6.085409 v 0.92605 0.92604 l -3.669557,-0.0969 c -2.89456,-0.0764 -3.717925,-0.0205 -3.898551,0.26458 -0.125944,0.1988 -0.230815,1.86492 -0.233042,3.7025 -0.0032,2.62478 0.07957,3.41044 0.386013,3.66476 0.277154,0.23002 1.387735,0.29684 3.836567,0.23084 l 3.4465,-0.0929 -1.1e-4,0.97596 -1.1e-4,0.97595 -3.254232,-0.15376 c -4.662908,-0.22032 -4.418679,-0.47138 -4.418679,4.54227 0,5.17319 -0.155546,4.97182 3.660264,4.73854 1.552107,-0.0949 3.119677,-0.18569 3.483487,-0.20178 0.57967,-0.0256 0.67161,0.0934 0.74357,0.96293 l 0.0821,0.99219 h -6.10969 c -4.646205,0 -6.140117,-0.0793 -6.236703,-0.33099 z m 22.104036,-10.92451 v -11.25549 l 2.18281,0.0768 2.18281,0.0768 0.0693,10.17282 c 0.0527,7.72679 0.1481,10.22558 0.39688,10.39225 0.3151,0.21111 4.29365,0.0683 6.34681,-0.22785 l 0.99218,-0.1431 v 1.08159 1.08159 h -6.08541 -6.08542 z M 54.815998,105.86254 c -2.968509,-0.0508 -5.357813,-0.19885 -5.357813,-0.33203 0,-0.13221 2.359022,-4.32669 5.242274,-9.321083 6.98722,-12.10332 6.930576,-12.001648 7.189211,-12.903457 0.335132,-1.16854 30.731109,-53.725019 31.068193,-53.718782 0.357018,0.0066 30.920847,52.940627 31.134787,53.922874 0.0848,0.389533 1.25785,2.613239 2.60668,4.941573 8.02057,13.845015 9.85063,17.109965 9.68387,17.276735 -0.18719,0.18719 -71.601097,0.30467 -81.567202,0.13417 z M 107.29867,74.713055 c 0.17206,-0.448379 -13.916341,-25.014467 -14.3484,-25.019456 -0.16305,-0.0019 -3.536461,5.609139 -7.496466,12.468935 -5.469602,9.474822 -7.115242,12.526095 -6.847295,12.695949 0.193995,0.122973 6.696532,0.225415 14.450084,0.227643 11.961387,0.0034 14.119297,-0.05309 14.242077,-0.373071 z"
         id="path836"
         inkscape:connector-curvature="0" />
      <path
         style="fill:#74889a;stroke-width:0.26458335"
         d="m 60.151596,105.68707 c -0.139586,-0.36376 7.376702,-13.630794 7.926448,-13.991019 0.163817,-0.107342 11.430194,-0.166873 25.036392,-0.132292 l 24.738544,0.06288 0.74643,1.190625 c 2.36715,3.775813 7.3379,12.726996 7.19549,12.957426 -0.11344,0.18355 -10.76968,0.27174 -32.836674,0.27174 -27.278886,0 -32.691484,-0.0593 -32.80663,-0.35936 z m 1.803059,-22.459861 c 0.115281,-0.558255 29.52591,-51.726597 30.506734,-53.075331 0.374343,-0.514765 0.508002,-0.559883 0.783817,-0.264583 0.595217,0.637271 30.624344,52.896436 30.659274,53.355802 0.0316,0.415634 -2.08278,0.45062 -31.019536,0.513279 l -31.05345,0.06724 z m 45.524925,-8.302868 c 0.22668,-0.226679 0.10992,-0.440383 -6.63104,-12.13729 -8.165378,-14.16854 -7.734014,-13.477089 -8.143838,-13.054082 -0.731126,0.754645 -14.434532,24.833914 -14.277483,25.088026 0.182417,0.295158 28.758891,0.396811 29.052361,0.103346 z"
         id="path834"
         inkscape:connector-curvature="0" />
      <path
         style="fill:#57738c;stroke-width:0.26458335"
         d="m 60.636831,105.8712 c -0.181901,-0.0734 -0.330729,-0.25186 -0.330729,-0.39658 0,-0.3155 7.063645,-12.589095 7.627898,-13.254022 0.371305,-0.437558 1.82359,-0.460473 25.151035,-0.396875 l 24.756975,0.06749 1.6892,2.910417 c 6.05489,10.43233 6.22636,10.75515 5.84208,10.99836 -0.38872,0.24602 -64.129468,0.31613 -64.736459,0.0712 z m 1.521354,-22.713806 c 0,-0.57608 30.490341,-53.313039 30.816085,-53.300376 0.284996,0.01108 30.53163,52.315858 30.76162,53.195323 0.12922,0.494151 -0.50113,0.504502 -30.722888,0.504502 -27.338459,0 -30.854817,-0.04552 -30.854817,-0.399449 z M 107.58691,74.549749 C 107.28032,73.377335 93.238274,49.414074 92.899324,49.484846 92.504963,49.567189 78.550364,73.569992 78.359155,74.494864 l -0.123074,0.595312 h 14.746076 c 14.718233,0 14.745813,-0.0011 14.604753,-0.540427 z"
         id="path832"
         inkscape:connector-curvature="0" />
      <path
         style="fill:#224b71;stroke-width:0.26458335"
         d="m 60.570685,105.5331 c 0,-0.13681 1.712145,-3.20267 3.804764,-6.813023 l 3.804764,-6.564276 24.59571,-0.0675 c 23.170227,-0.06359 24.619197,-0.04059 25.000937,0.396875 0.43226,0.495353 7.61674,12.897104 7.61674,13.147904 0,0.0818 -14.58515,0.14876 -32.411456,0.14876 -20.055486,0 -32.411459,-0.0948 -32.411459,-0.24874 z M 62.202283,83.056487 C 62.62921,81.915172 92.781558,30.132799 92.982144,30.19645 c 0.315042,0.09997 30.525036,52.285743 30.545356,52.765081 0.0111,0.262765 -6.29764,0.330729 -30.699695,0.330729 -17.863355,0 -30.676816,-0.09865 -30.625522,-0.235773 z M 107.82706,74.979681 C 108.03554,74.436383 93.3677,49.123484 92.899229,49.21811 c -0.335052,0.06768 -2.161334,3.14787 -12.001487,20.241643 -1.743498,3.028709 -2.864498,5.248944 -2.771958,5.490104 0.136904,0.356759 1.903344,0.404903 14.85636,0.404903 12.443766,0 14.723086,-0.05759 14.844916,-0.375079 z"
         id="path830"
         inkscape:connector-curvature="0" />
      <path
         style="fill:#043562;stroke-width:0.26458335"
         d="m 61.082559,105.05424 c 0.146248,-0.25466 1.85271,-3.20146 3.792135,-6.548439 l 3.526229,-6.085416 24.502677,-0.06751 24.50267,-0.06751 3.72908,6.469631 c 2.051,3.558304 3.72909,6.535474 3.72909,6.615954 0,0.0805 -14.41075,0.14632 -32.023896,0.14632 -30.423856,0 -32.010607,-0.0231 -31.757985,-0.46302 z m 1.725099,-22.489585 c 0.09731,-0.254661 2.001176,-3.618177 4.230822,-7.474479 2.229647,-3.856302 8.897462,-15.405364 14.817369,-25.664583 5.919906,-10.259219 10.854539,-18.745906 10.965852,-18.859305 0.163745,-0.166814 30.455239,51.882017 30.455239,52.330184 0,0.07216 -13.6454,0.131204 -30.323104,0.131204 -28.770152,0 -30.314038,-0.02371 -30.146178,-0.463021 z m 44.969512,-7.105911 c 0.23019,-0.08833 0.41852,-0.329425 0.41852,-0.535766 0,-0.561784 -14.608293,-25.800145 -15.026306,-25.960551 -0.19831,-0.0761 -0.522676,0.02675 -0.720815,0.228548 -0.198138,0.2018 -3.001097,4.950816 -6.228794,10.553368 -3.227697,5.602552 -6.449634,11.172378 -7.159858,12.377388 -1.309703,2.222127 -1.558105,3.08128 -0.960586,3.322384 0.476742,0.192368 29.177789,0.206518 29.677839,0.01463 z"
         id="path828"
         inkscape:connector-curvature="0" />
    </g>
  </g>
</svg>
