<?xml version="1.0" encoding="UTF-8" standalone="no"?>
<!-- Created with Inkscape (http://www.inkscape.org/) -->

<svg
   xmlns:dc="http://purl.org/dc/elements/1.1/"
   xmlns:cc="http://creativecommons.org/ns#"
   xmlns:rdf="http://www.w3.org/1999/02/22-rdf-syntax-ns#"
   xmlns:svg="http://www.w3.org/2000/svg"
   xmlns="http://www.w3.org/2000/svg"
   xmlns:sodipodi="http://sodipodi.sourceforge.net/DTD/sodipodi-0.dtd"
   xmlns:inkscape="http://www.inkscape.org/namespaces/inkscape"
   version="1.1"
   id="svg903"
   width="827.92548"
   height="234.6924"
   viewBox="0 0 827.92548 234.6924"
   sodipodi:docname="angeliny.svg"
   inkscape:version="0.92.4 5da689c313, 2019-01-14">
  <metadata
     id="metadata909">
    <rdf:RDF>
      <cc:Work
         rdf:about="">
        <dc:format>image/svg+xml</dc:format>
        <dc:type
           rdf:resource="http://purl.org/dc/dcmitype/StillImage" />
        <dc:title></dc:title>
      </cc:Work>
    </rdf:RDF>
  </metadata>
  <defs
     id="defs907">
    <inkscape:path-effect
       effect="bend_path"
       id="path-effect927"
       is_visible="true"
       bendpath="M 0,0 H 1"
       prop_scale="1"
       scale_y_rel="false"
       vertical="false" />
  </defs>
  <sodipodi:namedview
     pagecolor="#ffffff"
     bordercolor="#666666"
     borderopacity="1"
     objecttolerance="10"
     gridtolerance="10"
     guidetolerance="10"
     inkscape:pageopacity="0"
     inkscape:pageshadow="2"
     inkscape:window-width="2560"
     inkscape:window-height="1440"
     id="namedview905"
     showgrid="false"
     fit-margin-top="0"
     fit-margin-left="0"
     fit-margin-right="0"
     fit-margin-bottom="0"
     inkscape:zoom="1.5175468"
     inkscape:cx="410.99012"
     inkscape:cy="321.46337"
     inkscape:window-x="0"
     inkscape:window-y="0"
     inkscape:window-maximized="1"
     inkscape:current-layer="svg903" />
  <path
     style="fill:#46bd94;fill-opacity:1"
     d="m 261.53573,234.06249 c -16.93299,-2.66446 -32.60185,-11.44915 -43.34531,-24.3014 -6.18652,-7.40085 -12.92731,-21.76921 -15.40211,-32.83043 -1.93421,-8.64506 -2.11805,-13.17166 -2.52096,-62.07506 l -0.4346,-52.75 H 190.41638 181 v -20 -20 h 44.5 44.5 v 20 20 h -11 -11 v 53.46249 c 0,51.44252 0.0774,53.66943 2.04928,58.93967 3.95191,10.56244 14.18115,16.01543 28.95072,15.43302 15.30989,-0.60371 24.19581,-7.19529 26.93824,-19.98279 C 306.60935,166.82871 307,146.07695 307,113.55638 V 62.1056 h -11 -11 v -20 -20 h 44.5 44.5 v 20 20 h -9.94525 -9.94525 l -0.36398,54.75 c -0.41618,62.60206 -0.48396,63.18113 -9.42027,80.48348 -9.18767,17.78903 -24.31246,29.86955 -44.20692,35.30909 -6.82087,1.86496 -30.25867,2.72412 -38.5826,1.41432 z m 36.27359,-13.03105 c 7.21508,-1.9271 14.79447,-5.29867 18.69068,-8.31427 1.81503,-1.4048 -1.78004,-1.5509 -38.87244,-1.57977 -35.92629,-0.028 -40.7242,0.14683 -39.64737,1.44433 1.5814,1.90548 12.37689,7.00425 18.08633,8.54228 12.25398,3.30103 29.17763,3.2635 41.7428,-0.0926 z m 29.44535,-17.91026 c 1.87578,-2.19143 4.63893,-6.24143 6.14033,-9 l 2.72982,-5.01558 h -13.14411 -13.14412 l -4.3628,3.57499 C 290.7875,204.7149 262.774,204.5042 248.82235,192.25449 l -3.58638,-3.14889 h -13.11799 c -7.21489,0 -13.1163,0.3375 -13.11424,0.75 0.006,1.13083 3.77595,7.16225 7.8139,12.5 l 3.59333,4.75 h 46.71659 46.71659 z m -87.0472,-22.26558 c -0.90158,-1.7875 -2.13943,-5.725 -2.75077,-8.75 l -1.11153,-5.5 -11.67259,-0.28174 c -13.50306,-0.32591 -12.80196,-1.07856 -10.09243,10.83433 l 1.58016,6.94741 h 12.8432 12.8432 z m 99.94806,-4.25 c 2.73584,-11.39072 3.59734,-10.5 -10.15553,-10.5 -11.77013,0 -12.00049,0.0431 -12.02582,2.25 -0.0142,1.2375 -1.0653,5.30039 -2.33578,9.02865 l -2.30996,6.77865 12.57291,-0.27865 12.57291,-0.27865 z M 236,153.1056 v -9 h -12 -12 v 9 9 h 12 12 z m 106.78893,-0.25 0.28894,-8.75 H 330.53893 318 v 9.03078 9.03078 l 12.25,-0.28078 12.25,-0.28078 z M 236,130.1056 v -9 h -12 -12 v 9 9 h 12 12 z m 107,0 v -9 H 330.5 318 v 9 9 h 12.5 12.5 z m -107,-22.5 v -9.5 h -12 -12 v 9.5 9.5 h 12 12 z m 107,-0.0308 v -9.53078 l -12.25,0.28078 -12.25,0.2808 -0.29497,7.91161 c -0.16224,4.35138 -0.0639,8.51388 0.21861,9.25 0.38958,1.01523 3.41858,1.33839 12.54498,1.33839 H 343 v -9.53078 z M 236,85.1056 v -9 h -12 -12 v 9 9 h 12 12 z m 107,0 v -9 H 330.5 318 v 9 9 h 12.5 12.5 z m -107,-22.5 v -9.5 h -12 -12 v 9.5 9.5 h 12 12 z m 106.78753,-0.25 0.28752,-9.25 H 330.53753 318 v 8.83333 c 0,4.85834 0.31352,9.14685 0.6967,9.53004 0.38319,0.38318 5.89569,0.57068 12.25,0.41667 L 342.5,71.6056 Z M 258,41.1056 v -8 h -33 -33 v 8 8 h 33 33 z m 104,0 v -8 h -33 -33 v 8 8 h 33 33 z m -362,170 v -20 h 10.4082 10.40819 l 1.99558,-5.75 c 1.09757,-3.1625 5.67451,-16.325 10.17099,-29.25 4.49648,-12.925 10.11615,-29.125 12.48815,-36 4.13116,-11.97375 7.62568,-22.03888 16.580543,-47.75632 2.249045,-6.45902 5.405445,-15.56868 7.014223,-20.24368 1.608777,-4.675 4.672889,-13.225 6.80914,-19 l 3.88409,-10.5 22.068424,-0.26899 22.06842,-0.26899 2.76561,9.26899 c 1.52108,5.09794 14.03199,43.01899 27.80202,84.26899 l 25.03642,75 10.25,0.28498 10.25,0.28499 v 19.96501 19.96502 h -44 -44 v -20 -20 h 9 c 4.95,0 9,-0.37568 9,-0.83485 0,-0.45917 -1.59349,-5.86713 -3.54108,-12.01769 l -3.54109,-11.18283 -24.160004,0.26768 -24.160007,0.26769 -3.261769,10 c -4.649766,14.25536 -4.938704,13.5 5.16395,13.5 H 85 v 20 20 H 42.5 0 Z m 73.808198,4.23567 0.308198,-4.26433 -31.308196,0.26433 -31.3082,0.26433 -0.32457,2.83447 c -0.68067,5.94422 -1.99341,5.71828 31.54874,5.43002 L 73.5,219.6056 Z M 188,215.6056 v -4.5 h -32 -32 v 4.5 4.5 h 32 32 z m -114,-11 v -2.5 H 63 c -6.05,0 -10.99513,-0.3375 -10.98918,-0.75 0.006,-0.4125 0.68096,-2.95902 1.5,-5.65893 C 54.32987,192.99676 55,190.40926 55,189.94667 55,189.48408 50.13664,189.1056 44.19254,189.1056 H 33.38509 l -1.9968,6.25 -1.9968,6.25 -9.19575,0.28753 C 11.16883,202.17537 11,202.22586 11,204.64313 v 2.46247 H 42.5 74 Z m 114,0.0389 c 0,-2.40393 -0.20189,-2.46777 -8.69593,-2.75 l -8.69593,-0.28893 -1.99662,-6.25 -1.99661,-6.25 h -12.30745 c -6.7691,3e-5 -12.30746,0.15458 -12.30746,0.34348 0,0.1889 0.9,2.95934 2,6.15655 1.1,3.19721 2,5.96765 2,6.15655 0,0.1889 -4.95,0.34345 -11,0.34345 h -11 v 2.5 2.5 h 32 32 v -2.46107 z M 59.565055,176.9399 c 1.235663,-3.66614 2.544348,-7.60364 2.908189,-8.75 0.642632,-2.02476 0.352502,-2.08427 -10.155854,-2.08325 l -10.81739,0.001 -3.08501,9.03016 -3.08501,9.03016 10.99421,-0.28121 10.994204,-0.28121 z m 102.523055,-1.5843 -2.69346,-8.75 -12.19732,-0.28078 C 140.4888,166.17039 135,166.36862 135,166.76527 c 0,0.39668 1.21775,4.46053 2.70612,9.03078 l 2.70612,8.30955 h 12.18466 12.18466 z M 65.5,159.1056 l 0.658911,-3 H 98.954455 131.75 l 0.6,3 0.6,3 h 12.025 c 8.93579,0 12.025,-0.32025 12.025,-1.24659 0,-0.68563 -1.16195,-4.73563 -2.58212,-9 l -2.58212,-7.75341 H 100.5 49.16424 l -2.66488,7.75 c -1.46568,4.2625 -2.89014,8.3125 -3.16545,9 -0.38228,0.9546 2.09989,1.25 10.5033,1.25 h 11.003878 z m 83.97325,-22.0843 c -0.36385,-1.14636 -1.67263,-5.08386 -2.90842,-8.75 l -2.24688,-6.6657 -12.06229,-0.28 -12.0623,-0.28001 2.40332,7.5681 c 1.32183,4.16246 2.40332,8.00096 2.40332,8.53001 0,0.59115 -9.99838,0.9619 -25.940428,0.9619 H 73.119146 l 2.440427,-7.17515 C 76.901808,126.98411 78,123.15911 78,122.43045 78,121.41543 75.563657,121.1056 67.582121,121.1056 H 57.164244 l -2.664884,7.75 c -1.46568,4.2625 -2.89014,8.3125 -3.16545,9 -0.39643,0.98994 9.82926,1.25 49.15014,1.25 h 49.65073 z m -39.48933,-10.1657 c -0.009,-0.1375 -2.40293,-7.44101 -5.3202,-16.23001 L 99.359585,94.64557 94.179793,110.34851 C 91.330907,118.98513 89,126.28864 89,126.57853 c 0,0.28989 4.724999,0.52707 10.5,0.52707 5.775,0 10.49277,-0.1125 10.48392,-0.25 z m -27.419387,-18 c 1.500828,-4.5375 2.935928,-8.8125 3.189111,-9.5 0.34975,-0.94972 -2.054851,-1.25 -10.00981,-1.25 H 65.27369 l -3.136845,8.76926 C 60.41158,111.69796 59,115.97296 59,116.37486 c 0,0.40191 4.688045,0.73074 10.417878,0.73074 h 10.417878 z m 59.372747,6.5 c -0.0345,-0.9625 -1.272,-5.125 -2.75,-9.25 L 136.5,98.6056 124.75,98.32387 C 118.2875,98.16891 113,98.42759 113,98.89871 c 0,0.70025 3.66189,12.03944 5.47607,16.95689 0.33243,0.90107 3.68006,1.25 11.99255,1.25 10.33949,0 11.5249,-0.18088 11.46866,-1.75 z M 90.293881,85.79606 C 91.782246,81.2258 93,77.16006 93,76.76107 93,76.36208 88.452357,76.16388 82.894125,76.32062 L 72.788251,76.6056 69.894125,84.54979 C 68.302357,88.91909 67,92.85659 67,93.29979 c 0,0.4432 4.632247,0.80581 10.293881,0.80581 h 10.293882 z m 44.179369,6.22524 c -0.36385,-1.14636 -1.67258,-5.08386 -2.90831,-8.75 l -2.24678,-6.6657 -11.65908,-0.28173 C 111.24659,76.16891 106,76.36717 106,76.76432 c 0,0.3972 1.21775,4.46148 2.70612,9.03174 l 2.70612,8.30954 h 11.86127 c 11.5661,0 11.8448,-0.0519 11.19974,-2.0843 z M 94.774281,70.8556 c 0.560542,-0.6875 1.591504,-3.275 2.291022,-5.75 1.872095,-6.62374 2.528982,-6.74752 4.456817,-0.8398 0.95838,2.93689 2.18807,5.9023 2.73264,6.5898 C 105.61689,72.57524 127,72.63122 127,70.9152 c 0,-0.65475 -1.22063,-4.93859 -2.71251,-9.51964 l -2.71252,-8.32919 -20.39191,0.26964 -20.391903,0.26964 -2.895579,7.94419 C 76.30301,65.91914 75,70.08164 75,70.79984 c 0,1.8088 18.302887,1.86046 19.774281,0.0558 z m 24.585949,-24.5 c -0.37283,-1.5125 -1.43684,-5 -2.36448,-7.75 l -1.6866,-5 H 101.53569 87.762236 l -2.735494,7.75 -2.735491,7.75 h 18.873429 18.87342 z m 232.86906,164.5 0.27071,-20.25 11.63959,-0.28078 11.63958,-0.28078 2.09713,-5.71922 c 1.15342,-3.14557 13.30809,-37.89422 27.01038,-77.21922 13.70229,-39.325 25.97394,-74.425 27.27034,-78 l 2.35709,-6.5 22.05473,-0.26863 22.05472,-0.26863 6.21022,19.76863 c 3.41562,10.87275 15.80934,48.56863 27.54161,83.76863 l 21.33138,64 10.14662,0.28498 10.14661,0.28499 0.0961,8.71501 c 0.0528,4.79326 0.16533,14.00188 0.25,20.46359 l 0.15393,11.74857 -43.77071,10e-4 -43.7707,0.001 0.2707,-20.25 0.27071,-20.25 8.84154,-0.29027 c 7.35038,-0.24131 8.74505,-0.54171 8.26943,-1.78115 -0.31466,-0.81998 -1.96825,-5.98478 -3.67466,-11.47732 l -3.10254,-9.98644 -24.09854,0.26759 -24.09853,0.26759 -3.68383,11.25 -3.68383,11.25 h 8.86548 8.86548 v 20.5 20.5 h -44.02071 -44.0207 l 0.2707,-20.25 z m 76.27071,4.75 v -4 L 396.25,211.34175 364,211.07789 v 4.52771 4.52771 l 32.25,-0.26386 32.25,-0.26385 z M 543,215.5918 v -4.51386 l -32.25,0.26386 -32.25,0.26385 -0.32457,2.83447 c -0.67588,5.90235 -2.04692,5.66548 32.79319,5.66548 H 543 v -4.51385 z M 429,204.6056 v -2.5 h -11.44614 -11.44614 l 1.94614,-5.65655 c 1.07038,-3.1111 1.94614,-6.0361 1.94614,-6.5 0,-0.4639 -4.84152,-0.84345 -10.75894,-0.84345 h -10.75895 l -2.33115,6.5 -2.33116,6.5 h -9.9099 c -9.90389,0 -9.9099,0.002 -9.9099,2.5 v 2.5 h 32.5 32.5 z m 114,0.0389 c 0,-2.40393 -0.20189,-2.46777 -8.69593,-2.75 l -8.69593,-0.28893 -1.99662,-6.25 -1.99661,-6.25 h -12.30745 c -6.7691,0 -12.30402,0.1125 -12.29982,0.25 0.004,0.1375 0.86295,3.0625 1.90833,6.5 l 1.90068,6.25 H 489.40833 478 v 2.5 2.5 H 510.5 543 Z M 414.56505,176.9399 c 1.23567,-3.66614 2.54435,-7.60364 2.9082,-8.75 0.64281,-2.02534 0.35332,-2.0843 -10.23316,-2.0843 h -10.89468 l -3.14106,9.03246 -3.14105,9.03245 11.12755,-0.28245 11.12754,-0.28246 z m 102.2747,-1.8343 -3.01844,-9 h -11.91066 c -6.84155,0 -11.91065,0.40362 -11.91065,0.94838 0,0.52161 1.14458,4.57161 2.54351,9 l 2.5435,8.05162 h 12.3856 12.38559 z m -96.33975,-16 0.65891,-3 h 32.47256 32.47257 l 1.0458,3 1.04581,3 h 11.90218 c 6.54619,0 11.90217,-0.3107 11.90217,-0.69045 0,-0.37975 -1.21775,-4.42975 -2.70612,-9 l -2.70612,-8.30955 h -51.18689 c -47.81147,0 -51.23385,0.1154 -51.89902,1.75 C 402.55517,148.18202 398,161.36699 398,161.78075 c 0,0.17867 4.91425,0.32485 10.92054,0.32485 h 10.92055 z m 81.33975,-29 -3.01844,-9 h -11.91066 c -6.55086,0 -11.91065,0.14618 -11.91065,0.32485 0,0.17866 1.125,3.63248 2.5,7.67515 1.375,4.04267 2.5,7.72149 2.5,8.17515 0,0.45367 -11.7,0.82485 -26,0.82485 -14.3,0 -26,-0.14618 -26,-0.32485 0,-0.17866 1.125,-3.63248 2.5,-7.67515 1.375,-4.04267 2.5,-7.72149 2.5,-8.17515 0,-0.45367 -4.67686,-0.82485 -10.39301,-0.82485 -8.96016,0 -10.49119,0.24127 -11.10514,1.75 C 410.55517,125.18202 406,138.36699 406,138.78075 c 0,0.17867 22.24309,0.32485 49.4291,0.32485 h 49.4291 z m -41.51673,-17.12095 c -2.46233,-7.76653 -4.8261,-15.06479 -5.25284,-16.21838 -0.59583,-1.61067 -1.97038,1.51984 -5.92303,13.48964 C 446.31622,118.8288 444,126.12707 444,126.47429 c 0,0.34722 4.67999,0.63131 10.39998,0.63131 h 10.39999 z m -22.75849,-4.12905 c 1.50083,-4.5375 2.93593,-8.8125 3.18911,-9.5 0.34981,-0.94986 -2.06082,-1.25 -10.03966,-1.25 -9.06205,0 -10.59753,0.23966 -11.21213,1.75 C 418.00938,103.52326 414,115.49281 414,116.28075 c 0,0.45367 4.68805,0.82485 10.41788,0.82485 h 10.41788 z M 497,116.31037 c 0,-0.43738 -1.27764,-4.59988 -2.83919,-9.25 l -2.8392,-8.45477 -11.6608,-0.28173 C 473.24736,98.16891 468,98.42759 468,98.89871 c 0,0.70025 3.66189,12.03944 5.47607,16.95689 C 473.99749,117.26894 497,117.71363 497,116.31037 Z M 444.73368,86.8556 c 1.17389,-3.9875 2.44346,-8.05384 2.82126,-9.03632 0.63646,-1.65511 -0.0749,-1.76528 -9.68401,-1.5 L 427.5,76.6056 l -2.68728,7.5 c -1.478,4.125 -2.7155,8.0625 -2.75,8.75 -0.0463,0.92315 2.63043,1.25 10.23695,1.25 h 10.29966 z m 42.10607,-1.75 -3.01844,-9 H 472.41065 C 463.96544,76.1056 461,76.42957 461,77.35219 c 0,0.68563 1.16195,4.73563 2.58212,9 l 2.58212,7.75341 h 11.84698 11.84698 z M 451.50659,65.93052 c 1.10563,-3.12129 2.29769,-5.96254 2.64903,-6.31388 0.35134,-0.35134 1.62175,2.31495 2.82312,5.92508 l 2.18432,6.56388 h 11.41847 c 6.28016,0 11.41847,-0.35785 11.41847,-0.79523 0,-0.43737 -1.27842,-4.59987 -2.84093,-9.25 L 476.31813,53.6056 H 455.90907 435.5 l -2.68728,7.5 c -4.1597,11.60942 -4.47363,11.12119 6.93546,10.78621 l 9.74818,-0.28621 z M 474.98105,48.8556 c -0.0104,-0.1375 -1.05883,-3.625 -2.3298,-7.75 l -2.31086,-7.5 H 456.54819 442.756 l -2.85057,7.75 -2.85056,7.75 h 18.97257 c 10.43491,0 18.96403,-0.1125 18.95361,-0.25 z m 63.23002,47.5 0.28893,-8.75 8.75,-0.28893 8.75,-0.28893 v 9.03893 9.03893 h -9.03893 -9.03894 z M 586,103.17892 c 0,-1.05967 0.77996,-2.07688 1.73325,-2.26047 1.18819,-0.22882 2.86546,-3.47527 5.33355,-10.32332 3.43585,-9.53324 3.51273,-10.02373 1.683,-10.73828 -4.01694,-1.56873 -1.13434,-3.24942 6.08019,-3.54506 6.65041,-0.27252 7.17001,-0.1457 7.17001,1.75 0,1.21053 -0.65518,2.04381 -1.60699,2.04381 -0.88384,0 -1.3934,0.5625 -1.13234,1.25 0.26106,0.6875 1.96772,5.38186 3.79259,10.43191 2.25546,6.24163 3.89896,9.33384 5.13234,9.65637 0.99792,0.26097 1.8144,1.19161 1.8144,2.0681 0,1.28109 -1.17668,1.59362 -6,1.59362 -4.82332,0 -6,-0.31253 -6,-1.59362 0,-0.87649 0.86178,-1.81898 1.91507,-2.09442 1.64744,-0.43082 1.77351,-0.90685 0.90217,-3.40638 -0.93329,-2.67723 -1.4001,-2.90558 -5.93982,-2.90558 -4.36859,0 -5.03744,0.29068 -5.90217,2.5651 -1.26421,3.32512 -1.24744,3.4349 0.52475,3.4349 0.83333,0 1.5,0.88889 1.5,2 0,1.75758 -0.66667,2 -5.5,2 -4.76356,0 -5.5,-0.25798 -5.5,-1.92668 z m 18,-12.7073 c 0,-2.44669 -2.21631,-9.36602 -3,-9.36602 -0.37588,0 -1.23675,1.84684 -1.91304,4.10409 -0.67629,2.25725 -1.47066,4.73225 -1.76528,5.5 -0.39737,1.03555 0.3955,1.39591 3.07133,1.39591 2.671,0 3.60699,-0.42401 3.60699,-1.63398 z m 18.75546,13.94117 c -0.23829,-0.44396 -1.91924,-6.09469 -3.73545,-12.55719 -2.75604,-9.80661 -3.62178,-11.75 -5.23443,-11.75 -1.30029,0 -1.82342,-0.57234 -1.59954,-1.75 0.25713,-1.35252 1.523,-1.81865 5.57333,-2.05226 4.71663,-0.27204 5.24063,-0.0971 5.24063,1.75 0,1.15757 -0.65393,2.05226 -1.5,2.05226 -0.825,0 -1.49513,0.1125 -1.48918,0.25 0.006,0.1375 0.6936,2.5 1.5281,5.25 0.8345,2.75 2.01417,6.8 2.62149,9 l 1.10422,4 1.78528,-6.23657 c 3.12389,-10.91278 3.29235,-12.26343 1.52955,-12.26343 -0.91279,0 -1.57946,-0.84417 -1.57946,-2 0,-1.79487 0.66667,-2 6.5,-2 5.83333,0 6.5,0.20513 6.5,2 0,1.14933 -0.66667,2 -1.56739,2 -1.02066,0 -1.38922,0.61042 -1.05661,1.75 0.28092,0.9625 1.26107,4.45 2.1781,7.75 0.91703,3.3 1.99273,6.35273 2.39045,6.78384 0.39772,0.43111 1.6979,-2.77302 2.88929,-7.12029 2.57695,-9.40306 2.55953,-9.16355 0.66616,-9.16355 -0.84607,0 -1.5,-0.89469 -1.5,-2.05226 0,-1.84706 0.524,-2.02204 5.24063,-1.75 4.05033,0.23361 5.3162,0.69974 5.57333,2.05226 0.22404,1.17849 -0.29941,1.75 -1.60283,1.75 -1.619,0 -2.50549,2.00323 -5.42099,12.25 -3.18891,11.20771 -3.68564,12.25 -5.83811,12.25 -2.10177,0 -2.63212,-0.9597 -4.97362,-9 -1.44154,-4.95 -2.83971,-9.63994 -3.10706,-10.42209 -0.26734,-0.78214 -1.82478,3.26786 -3.46098,9 -2.48699,8.71277 -3.32316,10.47247 -5.09828,10.72928 -1.16785,0.16895 -2.31834,-0.056 -2.55663,-0.5 z M 651,103.1056 c 0,-1.28875 0.66667,-2 1.87464,-2 1.45703,0 2.5559,-1.94924 4.93276,-8.75 1.68196,-4.8125 3.36152,-9.5375 3.73235,-10.5 0.47018,-1.22038 0.18789,-1.75 -0.93276,-1.75 -0.95181,0 -1.60699,-0.83328 -1.60699,-2.04381 0,-1.8957 0.5196,-2.02252 7.17001,-1.75 7.24301,0.2968 10.12271,1.99487 6.01193,3.54506 -1.9166,0.72275 -1.85539,1.096 1.76266,10.74875 2.43341,6.49221 4.32825,10.11342 5.4018,10.32332 0.90948,0.17783 1.6536,1.19033 1.6536,2.25 0,1.6687 -0.73644,1.92668 -5.5,1.92668 -4.83333,0 -5.5,-0.24242 -5.5,-2 0,-1.11111 0.66667,-2 1.5,-2 1.77219,0 1.78896,-0.10978 0.52475,-3.4349 -0.86473,-2.27442 -1.53358,-2.5651 -5.90217,-2.5651 -4.5753,0 -5.00157,0.21411 -5.97274,3 -0.84835,2.4336 -0.77242,3 0.40218,3 0.79639,0 1.44798,0.9 1.44798,2 0,1.75758 -0.66667,2 -5.5,2 -4.83333,0 -5.5,-0.24242 -5.5,-2 z m 18.3636,-13.75 c -0.37097,-1.5125 -1.20556,-4.30547 -1.85465,-6.20659 l -1.18016,-3.4566 -1.66439,4.88473 c -2.36081,6.92858 -2.21302,7.52846 1.85465,7.52846 3.33582,0 3.48393,-0.14319 2.84455,-2.75 z M 682,103.1056 c 0,-1.33333 0.66667,-2 2,-2 1.87302,0 2,-0.66667 2,-10.5 0,-9.83333 -0.12698,-10.5 -2,-10.5 -1.37657,0 -2,-0.66667 -2,-2.1387 0,-2.06514 0.31078,-2.12099 9.03472,-1.62357 C 701.72514,76.95287 704,78.32738 704,84.17718 c 0,2.89289 -0.59688,4.19641 -2.58452,5.6443 l -2.58452,1.88269 2.28379,4.70072 c 1.46487,3.01515 2.92948,4.70071 4.08452,4.70071 1.13406,0 1.80073,0.74044 1.80073,2 0,1.59416 -0.66667,2 -3.28537,2 -3.04811,0 -3.51684,-0.4694 -6.49066,-6.5 -2.35709,-4.77993 -3.73702,-6.5 -5.21463,-6.5 -1.70685,0 -2.00934,0.65988 -2.00934,4.38337 0,3.54236 0.38372,4.48371 2,4.90638 1.1,0.28766 2,1.24014 2,2.11663 0,1.28109 -1.17668,1.59362 -6,1.59362 -5.33333,0 -6,-0.22222 -6,-2 z m 16.96482,-16.93426 c 1.33879,-2.50156 1.32284,-2.63522 -0.53625,-4.49431 -0.86428,-0.86429 -3.11428,-1.57143 -5,-1.57143 -3.33333,0 -3.42857,0.11111 -3.42857,4 0,3.99409 0.006,4 3.96482,4 2.89644,0 4.24376,-0.52121 5,-1.93426 z M 708,103.1056 c 0,-1.33333 0.66667,-2 2,-2 1.87302,0 2,-0.66667 2,-10.5 0,-9.83333 -0.12698,-10.5 -2,-10.5 -1.37896,0 -2,-0.66667 -2,-2.14692 0,-2.08763 0.26703,-2.131 9.66756,-1.57015 10.81882,0.64546 13.60638,1.95479 16.58089,7.78816 3.58279,7.02628 1.12923,15.99135 -5.24845,19.17736 -2.53068,1.26421 -5.92331,1.74887 -12.25,1.75 -8.08385,0.001 -8.75,-0.15071 -8.75,-1.99845 z m 20.54545,-4.45454 C 730.49562,96.70089 731,95.17118 731,91.20682 731,84.1512 728.17168,81.02069 721.19116,80.34995 L 716,79.85114 v 10.62723 10.62723 h 5.04545 c 4.02357,0 5.54259,-0.49713 7.5,-2.45454 z M 749,103.6056 c 0,-0.825 0.675,-1.5 1.5,-1.5 1.22222,0 1.5,-1.66667 1.5,-9 0,-7.33333 -0.27778,-9 -1.5,-9 -0.825,0 -1.5,-0.675 -1.5,-1.5 0,-1.04762 1.05556,-1.5 3.5,-1.5 h 3.5 v 10.5 c 0,8.66667 0.2619,10.5 1.5,10.5 0.825,0 1.5,0.675 1.5,1.5 0,1.13333 -1.22222,1.5 -5,1.5 -3.77778,0 -5,-0.36667 -5,-1.5 z m 14.5567,-0.72251 C 762.70052,101.66072 762,100.08572 762,99.3831 c 0,-1.9678 2.37184,-1.513 3.76793,0.7225 2.42663,3.88566 6.39827,2.17031 7.78711,-3.36326 0.66508,-2.64992 0.56913,-2.77356 -1.35387,-1.7444 C 766.6273,97.98098 762,95.00294 762,88.43185 c 0,-5.57448 2.58263,-7.76816 8.7647,-7.44473 6.18755,0.32371 8.55281,15.95825 3.26565,21.58617 -3.10861,3.30896 -8.2661,3.46152 -10.47365,0.3098 z m 8.1631,-11.29378 c 1.88818,-1.32254 2.02946,-1.90453 1.10563,-4.55464 -0.91534,-2.62573 -1.48467,-2.99698 -4.1923,-2.73371 -2.60136,0.25294 -3.18783,0.78165 -3.45539,3.11511 -0.33541,2.92519 1.23015,5.68953 3.2222,5.68953 0.63528,0 2.12921,-0.68233 3.31986,-1.51629 z m 13.2408,1.5949 c 5.61552,-11.20227 7.48756,-13.96378 8.66672,-12.78463 0.98468,0.98469 -11.63424,24.70602 -13.14274,24.70602 -1.08302,0 0.16123,-3.31394 4.47602,-11.92139 z m 31.95274,10.63959 C 814.20816,101.74683 813,98.44277 813,93.12168 c 0,-8.98091 4.58836,-13.89155 10.47414,-11.20982 5.33853,2.4324 6.08357,16.59694 1.09852,20.8849 -2.97306,2.55732 -5.26576,2.86475 -7.65932,1.02704 z m 6.7968,-4.72706 c 1.56086,-3.08505 1.63571,-7.70059 0.19203,-11.84192 -1.43011,-4.10242 -5.46006,-4.44225 -6.92692,-0.58412 -3.51112,9.23494 2.62318,20.55287 6.73489,12.42604 z M 797,101.40656 c 0,-1.95155 1.40532,-4.01842 5.07438,-7.46312 5.86357,-5.50501 6.48339,-9.10123 1.66413,-9.65537 -2.38077,-0.27375 -2.84608,0.10539 -3.375,2.75 C 799.62323,90.73943 797,91.18206 797,87.6056 c 0,-6.11536 8.10606,-8.72321 11.94494,-3.84287 2.77873,3.53259 1.98029,5.79098 -4.04346,11.43694 -2.69582,2.52674 -4.90148,4.88924 -4.90148,5.25 0,0.36076 1.8,0.65593 4,0.65593 3.6,0 4,-0.25 4,-2.5 0,-1.55555 0.56667,-2.5 1.5,-2.5 1.08333,0 1.5,1.11111 1.5,4 v 4 h -7 c -6.93766,0 -7,-0.024 -7,-2.69904 z M 543.5773,68.8556 c -1.33574,-8.4569 -3.58229,-42.65773 -3.57993,-54.5 l 0.003,-13.25 h 7 7 l -0.0123,18.25 c -0.007,10.0375 -0.67623,25.675 -1.48765,34.75 -0.81142,9.075 -1.48086,16.8375 -1.48765,17.25 -0.007,0.4125 -1.56696,0.75 -3.46704,0.75 -3.12563,0 -3.50358,-0.30956 -3.96801,-3.25 z m 52.71751,-1.85717 C 591.0574,65.48402 590,62.94495 590,51.8831 c 0,-8.02444 -0.26894,-9.7775 -1.5,-9.7775 -0.83333,0 -1.5,-0.88889 -1.5,-2 0,-1.75757 0.66667,-2 5.5,-2 4.83333,0 5.5,0.24243 5.5,2 0,1.11111 -0.66667,2 -1.5,2 -1.23298,0 -1.5,1.77387 -1.5,9.96482 0,8.82846 0.22058,10.08286 1.93426,11 2.77493,1.4851 5.6809,1.27717 7.49431,-0.53625 2.24742,-2.24742 2.31099,-20.42857 0.0714,-20.42857 -0.83333,0 -1.5,-0.88889 -1.5,-2 0,-1.75757 0.66667,-2 5.5,-2 4.83333,0 5.5,0.24243 5.5,2 0,1.1 -0.60956,2 -1.35459,2 -1.01128,0 -1.49251,2.50315 -1.89882,9.87669 -0.29933,5.43218 -1.04506,10.81249 -1.65718,11.95625 -0.90195,1.68531 -7.0132,4.42264 -9.08941,4.0713 -0.275,-0.0465 -1.94234,-0.50167 -3.70519,-1.01141 z M 748.25,66.59048 C 746.4625,65.8269 745,65.63043 745,66.15388 c 0,0.52344 -0.9,0.95172 -2,0.95172 -1.73333,0 -2,-0.66667 -2,-5 0,-4.33333 0.26667,-5 2,-5 1.1,0 2,0.64234 2,1.42742 0,1.80658 4.71706,5.57258 6.97987,5.57258 0.94059,0 2.49546,-0.86775 3.45528,-1.92833 2.80797,-3.10279 1.1956,-5.70576 -4.73197,-7.63917 -6.17623,-2.01452 -7.60047,-3.03216 -8.85251,-6.32527 -2.45989,-6.47 5.72232,-12.54686 12.21507,-9.07204 1.33333,0.71357 1.93426,0.71357 1.93426,0 0,-0.56936 0.9,-1.03519 2,-1.03519 1.7037,0 2,0.66667 2,4.5 0,3.83333 -0.2963,4.5 -2,4.5 -1.1,0 -2,-0.65917 -2,-1.46481 0,-3.45664 -8.22922,-4.84391 -9.92607,-1.67333 -1.43612,2.68341 0.51911,4.61483 6.21409,6.13841 8.12345,2.17328 11.25101,9.11606 6.46198,14.34478 -2.89705,3.16303 -6.42275,3.88155 -10.5,2.13983 z M 615,65.1056 c 0,-1.33333 0.66667,-2 2,-2 1.87302,0 2,-0.66667 2,-10.5 0,-9.83333 -0.12698,-10.5 -2,-10.5 -1.33333,0 -2,-0.66667 -2,-2 0,-1.72842 0.66667,-2 4.90961,-2 h 4.90962 l 4.21946,7.68808 c 2.3207,4.22844 5.05969,9.06594 6.08665,10.75 l 1.86718,3.06192 0.004,-8.75 c 0.004,-8.18768 -0.1295,-8.75 -2.06958,-8.75 -1.43481,0 -1.97076,-0.53895 -1.74029,-1.75 0.26272,-1.38044 1.54526,-1.81333 6.07333,-2.0499 5.21747,-0.27261 5.74002,-0.1133 5.74002,1.75 0,1.38323 -0.65044,2.0499 -2,2.0499 -1.89333,0 -2,0.66667 -2,12.5 v 12.5 h -2.45717 c -2.08911,0 -3.37539,-1.64767 -8.58732,-11 -3.37159,-6.05 -6.31586,-11 -6.54284,-11 -0.22697,0 -0.41267,4.05 -0.41267,9 0,8.33333 0.14815,9 2,9 1.33333,0 2,0.66667 2,2 0,1.77778 -0.66667,2 -6,2 -5.33333,0 -6,-0.22222 -6,-2 z m 31,0.46862 c 0,-0.84226 0.675,-1.79041 1.5,-2.10699 2.27924,-0.87463 2.20891,-21.36163 -0.0733,-21.36163 -0.95848,0 -1.44331,-0.68389 -1.24064,-1.75 0.25713,-1.35252 1.523,-1.81865 5.57333,-2.05226 4.71663,-0.27204 5.24063,-0.0971 5.24063,1.75 0,1.15757 -0.65393,2.05226 -1.5,2.05226 -1.2381,0 -1.5,1.83333 -1.5,10.5 0,8.66667 0.2619,10.5 1.5,10.5 0.83333,0 1.5,0.88889 1.5,2 0,1.75758 -0.66667,2 -5.5,2 -4.27232,0 -5.5,-0.34183 -5.5,-1.53138 z m 22.97514,-4.21862 c -1.1927,-3.1625 -3.30217,-8.7875 -4.68771,-12.5 -1.9319,-5.17647 -2.97547,-6.75 -4.47661,-6.75 -1.32598,0 -1.84874,-0.56456 -1.62045,-1.75 0.27201,-1.41243 1.39268,-1.75 5.80963,-1.75 4.41695,0 5.53762,0.33757 5.80963,1.75 0.20567,1.06794 -0.27618,1.75 -1.23631,1.75 -0.86532,0 -1.57332,0.41155 -1.57332,0.91456 0,1.15424 6.06088,17.08544 6.5,17.08544 0.43912,0 6.5,-15.9312 6.5,-17.08544 0,-0.50301 -0.708,-0.91456 -1.57332,-0.91456 -0.95848,0 -1.44331,-0.68389 -1.24064,-1.75 0.25713,-1.35252 1.523,-1.81865 5.57333,-2.05226 4.61997,-0.26646 5.24063,-0.073 5.24063,1.63337 0,1.0646 -0.78794,2.14168 -1.75098,2.39352 -1.1981,0.31331 -3.14008,4.29705 -6.15032,12.61663 -3.87111,10.69883 -4.67284,12.15874 -6.67717,12.15874 -1.85492,0 -2.68046,-1.06757 -4.44639,-5.75 z M 689,65.51198 c 0,-0.87649 0.9,-1.82897 2,-2.11663 1.83801,-0.48065 2,-1.36402 2,-10.90638 0,-9.83911 -0.10868,-10.38337 -2.07332,-10.38337 -1.4357,0 -1.97018,-0.53819 -1.73793,-1.75 0.29296,-1.52852 1.82096,-1.78565 12.07333,-2.03173 L 713,38.04213 v 4.53174 c 0,3.36154 -0.38733,4.53173 -1.5,4.53173 -0.93333,0 -1.5,-0.94444 -1.5,-2.5 0,-2.38889 -0.26667,-2.5 -6,-2.5 h -6 v 4 4 h 5 c 4.33333,0 5,0.26667 5,2 0,1.73333 -0.66667,2 -5,2 h -5 v 4.5 4.5 h 6 c 5.73333,0 6,-0.11111 6,-2.5 0,-1.55555 0.56667,-2.5 1.5,-2.5 1.11111,0 1.5,1.16667 1.5,4.5 v 4.5 h -12 c -10.31331,0 -12,-0.22399 -12,-1.59362 z m 26,-0.40638 c 0,-1.33333 0.66667,-2 2,-2 1.87302,0 2,-0.66667 2,-10.5 0,-9.83333 -0.12698,-10.5 -2,-10.5 -1.37657,0 -2,-0.66667 -2,-2.1387 0,-2.06632 0.3081,-2.12114 9.10252,-1.61971 7.42734,0.42349 9.48239,0.89888 11.16667,2.58315 3.0398,3.03981 2.73182,7.96536 -0.66755,10.67591 l -2.73169,2.17818 2.26429,4.66058 c 1.44961,2.98373 2.91219,4.66059 4.06503,4.66059 1.13406,0 1.80073,0.74044 1.80073,2 0,1.55694 -0.66667,2 -3.00934,2 -2.70838,0 -3.32988,-0.65004 -6.21463,-6.5 -4.00587,-8.12348 -6.77603,-8.94111 -6.77603,-2 0,3.33333 0.38889,4.5 1.5,4.5 0.83333,0 1.5,0.88889 1.5,2 0,1.77778 -0.66667,2 -6,2 -5.33333,0 -6,-0.22222 -6,-2 z m 17.39361,-17.25 c 1.68856,-2.69575 -0.44373,-5.1945 -4.74489,-5.56036 L 724,41.98487 v 4.12073 4.12073 l 3.64872,-0.31036 c 2.12659,-0.18089 4.10601,-1.04042 4.74489,-2.06037 z M 763,65.1056 c 0,-1.11111 0.66667,-2 1.5,-2 1.2381,0 1.5,-1.83333 1.5,-10.5 0,-8.66667 -0.2619,-10.5 -1.5,-10.5 -0.84607,0 -1.5,-0.89469 -1.5,-2.05226 0,-1.84706 0.524,-2.02204 5.24063,-1.75 4.05033,0.23361 5.3162,0.69974 5.57333,2.05226 0.23021,1.21094 -0.30597,1.75 -1.74064,1.75 -1.96464,0 -2.07332,0.54426 -2.07332,10.38337 0,9.54236 0.16199,10.42573 2,10.90638 1.1,0.28766 2,1.24014 2,2.11663 0,1.265 -1.13418,1.59362 -5.5,1.59362 -4.83333,0 -5.5,-0.24242 -5.5,-2 z m 18,0 c 0,-1.11111 0.66667,-2 1.5,-2 1.2381,0 1.5,-1.83333 1.5,-10.5 v -10.5 h -2.5 c -2.19048,0 -2.5,0.43333 -2.5,3.5 0,2.83333 -0.38095,3.5 -2,3.5 -1.75758,0 -2,-0.66667 -2,-5.5 v -5.5 h 11.5 11.5 v 5.5 c 0,4.22222 -0.34848,5.5 -1.5,5.5 -1.04762,0 -1.5,-1.05555 -1.5,-3.5 0,-3.22222 -0.2381,-3.5 -3,-3.5 h -3 v 10.38337 c 0,9.54236 0.16199,10.42573 2,10.90638 1.1,0.28766 2,1.24014 2,2.11663 0,1.28109 -1.17668,1.59362 -6,1.59362 -5.33333,0 -6,-0.22222 -6,-2 z m 26,0 c 0,-1.33333 0.66667,-2 2,-2 1.68587,0 2,-0.66667 2,-4.24446 0,-3.34248 -0.90148,-5.57383 -4.24206,-10.5 -2.50435,-3.69304 -4.96217,-6.25554 -6,-6.25554 -1.10554,0 -1.75794,-0.76075 -1.75794,-2.0499 0,-1.8633 0.52255,-2.02261 5.74028,-1.75 4.52807,0.23657 5.81061,0.66946 6.07333,2.0499 0.20292,1.06626 -0.28168,1.75 -1.24029,1.75 -2.24577,0 -1.96447,1.10702 1.26397,4.97417 l 2.83729,3.39862 2.68314,-3.9364 c 2.16205,-3.17193 2.38786,-3.99918 1.1627,-4.25971 C 816.68419,42.10445 816,41.09195 816,40.03228 c 0,-1.6687 0.73644,-1.92668 5.5,-1.92668 4.83333,0 5.5,0.24243 5.5,2 0,1.29174 -0.66667,2 -1.88254,2 -3.0832,0 -10.11746,11.69406 -10.11746,16.81972 0,3.51361 0.31896,4.18028 2,4.18028 1.33333,0 2,0.66667 2,2 0,1.77778 -0.66667,2 -6,2 -5.33333,0 -6,-0.22222 -6,-2 z M 658.27505,29.09508 C 651.0293,27.4625 647,22.20103 647,14.37212 647,3.7464 658.52901,-3.29204 667.95216,1.58086 c 2.5146,1.30035 2.91997,1.30035 3.41896,0 0.31136,-0.81139 1.25523,-1.47526 2.0975,-1.47526 1.17099,0 1.53138,1.17668 1.53138,5 0,4.33333 -0.26667,5 -2,5 -1.1,0 -2,-0.45661 -2,-1.0147 0,-1.75586 -6.35551,-4.97766 -9.82692,-4.98156 -2.34699,-0.003 -4.18791,0.85724 -6.25,2.91934 -5.73358,5.73358 -2.70448,16.87064 5.00809,18.41315 3.70966,0.74194 8.79718,-0.96014 10.08994,-3.37567 1.41706,-2.64781 1.25637,-2.96056 -1.52111,-2.96056 -1.83333,0 -2.5,-0.53333 -2.5,-2 0,-1.76296 0.66667,-2 5.625,-2 h 5.625 l -0.63655,3.25 c -1.57882,8.06097 -9.53833,12.72228 -18.3384,10.73948 z M 586,27.17893 c 0,-1.05968 0.77996,-2.07689 1.73325,-2.26047 1.18819,-0.22883 2.86546,-3.47528 5.33355,-10.32333 3.43585,-9.53324 3.51273,-10.02373 1.683,-10.73828 -4.01694,-1.56873 -1.13434,-3.24942 6.08019,-3.54506 C 607.4804,0.03927 608,0.16609 608,2.06179 c 0,1.21053 -0.65518,2.04381 -1.60699,2.04381 -0.88384,0 -1.3934,0.5625 -1.13234,1.25 0.26106,0.6875 1.96772,5.38186 3.79259,10.43191 3.3886,9.37743 4.64957,10.73158 8.94674,9.60784 1.83801,-0.48065 2,-1.36402 2,-10.90638 0,-9.83911 -0.10868,-10.38337 -2.07332,-10.38337 -1.43453,0 -1.97094,-0.53918 -1.74101,-1.75 0.24977,-1.31532 1.49782,-1.82521 5.02456,-2.0528 L 625.90247,0 l 4.29877,7.60188 c 2.36432,4.18104 5.29722,9.2673 6.51755,11.3028 l 2.21879,3.70092 0.0312,-9.25 c 0.029,-8.59374 -0.11067,-9.25 -1.96878,-9.25 -1.34956,0 -2,-0.66667 -2,-2.0499 0,-1.8633 0.52255,-2.02261 5.74028,-1.75 4.52807,0.23657 5.81061,0.66946 6.07333,2.0499 0.24732,1.29958 -0.32929,1.75 -2.24029,1.75 H 642 v 12.5 c 0,12.32908 -0.031,12.5 -2.27009,12.5 -1.83955,0 -3.35755,-1.94401 -8.00384,-10.25 -3.15356,-5.6375 -6.17512,-10.925 -6.71459,-11.75 -0.6771,-1.03548 -0.9856,1.51939 -0.99617,8.25 -0.0143,9.08844 0.1204,9.75 1.98469,9.75 1.33333,0 2,0.66667 2,2 0,1.88889 -0.66667,2 -12,2 -10.31331,0 -12,-0.22399 -12,-1.59362 0,-0.87649 0.86178,-1.81898 1.91507,-2.09442 1.64744,-0.43081 1.77351,-0.90685 0.90217,-3.40638 -0.93329,-2.67723 -1.4001,-2.90558 -5.93982,-2.90558 -4.36859,0 -5.03744,0.29068 -5.90217,2.5651 -1.26421,3.32512 -1.24744,3.4349 0.52475,3.4349 0.83333,0 1.5,0.88889 1.5,2 0,1.75758 -0.66667,2 -5.5,2 -4.76356,0 -5.5,-0.25798 -5.5,-1.92667 z m 18,-12.70731 c 0,-2.44669 -2.21631,-9.36602 -3,-9.36602 -0.37588,0 -1.23675,1.84684 -1.91304,4.10409 -0.67629,2.25725 -1.47066,4.73225 -1.76528,5.5 -0.39737,1.03555 0.3955,1.39591 3.07133,1.39591 2.671,0 3.60699,-0.42401 3.60699,-1.63398 z m 74,13.04036 c 0,-0.87649 0.9,-1.82897 2,-2.11663 1.83801,-0.48065 2,-1.36402 2,-10.90638 0,-9.83911 -0.10868,-10.38337 -2.07332,-10.38337 -1.4357,0 -1.97018,-0.53819 -1.73793,-1.75 0.29296,-1.52852 1.82096,-1.78565 12.07333,-2.03173 L 702,0.04213 v 4.53174 c 0,3.86506 -0.29422,4.53173 -2,4.53173 -1.46667,0 -2,-0.66667 -2,-2.5 0,-2.38889 -0.26667,-2.5 -6,-2.5 h -6 v 4 4 h 5.5 c 4.78414,0 5.5,0.25351 5.5,1.94774 0,1.64461 -0.81708,1.99478 -5.25,2.25 l -5.25,0.30226 -0.3075,4.25 -0.3075,4.25 h 5.98795 c 5.43985,0 6.0172,-0.20501 6.3075,-2.23978 0.17575,-1.23188 1.10705,-2.38988 2.06955,-2.57333 1.46019,-0.2783 1.75,0.42384 1.75,4.23979 v 4.57332 h -12 c -10.31331,0 -12,-0.22399 -12,-1.59362 z m 26,-0.40638 c 0,-1.33333 0.66667,-2 2,-2 1.87302,0 2,-0.66667 2,-10.5 0,-9.83333 -0.12698,-10.5 -2,-10.5 -1.33333,0 -2,-0.66667 -2,-2 0,-1.77778 0.66667,-2 6,-2 5.33333,0 6,0.22222 6,2 0,1.33333 -0.66667,2 -2,2 -1.87302,0 -2,0.66667 -2,10.5 v 10.5 h 4.5 4.5 v -4.5 c 0,-3.83333 0.2963,-4.5 2,-4.5 1.79487,0 2,0.66667 2,6.5 v 6.5 h -10.5 c -9.83333,0 -10.5,-0.12698 -10.5,-2 z m 23,0 c 0,-1.11111 0.66667,-2 1.5,-2 1.2381,0 1.5,-1.83333 1.5,-10.5 0,-8.66667 -0.2619,-10.5 -1.5,-10.5 -0.83333,0 -1.5,-0.88889 -1.5,-2 0,-1.73333 0.66667,-2 5,-2 4.33333,0 5,0.26667 5,2 0,1.11111 -0.66667,2 -1.5,2 -1.2381,0 -1.5,1.83333 -1.5,10.5 0,8.66667 0.2619,10.5 1.5,10.5 0.83333,0 1.5,0.88889 1.5,2 0,1.73333 -0.66667,2 -5,2 -4.33333,0 -5,-0.26667 -5,-2 z m 12,0 c 0,-1.33333 0.66667,-2 2,-2 1.87302,0 2,-0.66667 2,-10.5 0,-9.83333 -0.12698,-10.5 -2,-10.5 -1.35111,0 -2,-0.66667 -2,-2.05479 0,-1.82611 0.52579,-2.02087 4.72432,-1.75 l 4.72432,0.30479 6.26859,11 6.26859,11 0.007,-9.25 c 0.007,-8.5857 -0.13645,-9.25 -1.99282,-9.25 -1.34956,0 -2,-0.66667 -2,-2.0499 0,-1.8633 0.52255,-2.02261 5.74028,-1.75 4.52807,0.23657 5.81061,0.66946 6.07333,2.0499 0.23047,1.21105 -0.30548,1.75 -1.74029,1.75 -1.98718,0 -2.07332,0.51931 -2.07332,12.5 v 12.5 l -2.75,-0.0279 c -2.46449,-0.025 -3.40632,-1.21893 -9.07167,-11.5 -3.47691,-6.30967 -6.51441,-11.47212 -6.75,-11.47212 -0.23558,0 -0.42833,4.275 -0.42833,9.5 0,8.83333 0.14035,9.5 2,9.5 1.33333,0 2,0.66667 2,2 0,1.75758 -0.66667,2 -5.5,2 -4.83333,0 -5.5,-0.24242 -5.5,-2 z m 31,0 c 0,-1.11111 0.66667,-2 1.5,-2 1.2381,0 1.5,-1.83333 1.5,-10.5 0,-8.66667 -0.2619,-10.5 -1.5,-10.5 -0.84607,0 -1.5,-0.89469 -1.5,-2.05226 0,-1.84706 0.524,-2.02204 5.24063,-1.75 4.05033,0.23361 5.3162,0.69974 5.57333,2.05226 0.20267,1.06611 -0.28216,1.75 -1.24064,1.75 -2.28223,0 -2.35256,20.487 -0.0733,21.36163 0.825,0.31658 1.5,1.26473 1.5,2.10699 -2e-5,1.18955 -1.2277,1.53138 -5.50002,1.53138 -4.83333,0 -5.5,-0.24242 -5.5,-2 z"
     id="path935"
     inkscape:connector-curvature="0" />
  <path
     style="fill:#000000"
     d=""
     id="path925"
     inkscape:connector-curvature="0" />
  <path
     style="fill:#000000"
     d=""
     id="path923"
     inkscape:connector-curvature="0" />
  <path
     style="fill:#000000"
     d=""
     id="path921"
     inkscape:connector-curvature="0" />
  <path
     style="fill:#000000"
     d=""
     id="path917"
     inkscape:connector-curvature="0" />
  <path
     style="fill:#000000"
     d=""
     id="path915"
     inkscape:connector-curvature="0" />
  <path
     style="fill:#000000"
     d=""
     id="path913"
     inkscape:connector-curvature="0" />
</svg>
