<?xml version="1.0" encoding="UTF-8" standalone="no"?>
<svg
   xmlns:dc="http://purl.org/dc/elements/1.1/"
   xmlns:cc="http://creativecommons.org/ns#"
   xmlns:rdf="http://www.w3.org/1999/02/22-rdf-syntax-ns#"
   xmlns:svg="http://www.w3.org/2000/svg"
   xmlns="http://www.w3.org/2000/svg"
   xmlns:sodipodi="http://sodipodi.sourceforge.net/DTD/sodipodi-0.dtd"
   xmlns:inkscape="http://www.inkscape.org/namespaces/inkscape"
   width="563.28766"
   height="563.28766"
   viewBox="0 0 5.6328766 5.6328766"
   version="1.1"
   id="svg888"
   sodipodi:docname="DE.svg"
   inkscape:version="0.92.4 5da689c313, 2019-01-14">
  <metadata
     id="metadata894">
    <rdf:RDF>
      <cc:Work
         rdf:about="">
        <dc:format>image/svg+xml</dc:format>
        <dc:type
           rdf:resource="http://purl.org/dc/dcmitype/StillImage" />
        <dc:title>Flag of Slovakia</dc:title>
      </cc:Work>
    </rdf:RDF>
  </metadata>
  <defs
     id="defs892" />
  <sodipodi:namedview
     pagecolor="#ffffff"
     bordercolor="#666666"
     borderopacity="1"
     objecttolerance="10"
     gridtolerance="10"
     guidetolerance="10"
     inkscape:pageopacity="0"
     inkscape:pageshadow="2"
     inkscape:window-width="2560"
     inkscape:window-height="1440"
     id="namedview890"
     showgrid="false"
     inkscape:snap-center="true"
     fit-margin-top="0"
     fit-margin-left="0"
     fit-margin-right="0"
     fit-margin-bottom="0"
     inkscape:zoom="0.74422989"
     inkscape:cx="104.3095"
     inkscape:cy="-127.51515"
     inkscape:window-x="0"
     inkscape:window-y="0"
     inkscape:window-maximized="1"
     inkscape:current-layer="svg888" />
  <title
     id="title870">Flag of Slovakia</title>
  <path
     style="fill:#eec01c;stroke-width:1;fill-opacity:1"
     d="M 2.8125728,0.0612951 A 2.7619977,2.7619977 0 0 0 0.05058057,2.8232873 2.7619977,2.7619977 0 0 0 2.8125728,5.585299 2.7619977,2.7619977 0 0 0 5.574565,2.8232873 2.7619977,2.7619977 0 0 0 2.8125728,0.0612951 Z"
     id="rect872"
     inkscape:connector-curvature="0" />
  <path
     style="fill:#dd0000;stroke-width:1;fill-opacity:1"
     d="m 2.8125728,0.0612951 a 2.7619977,2.7619977 0 0 0 -2.76199223,2.7619922 2.7619977,2.7619977 0 0 0 0.2280274,1.090957 H 5.3491158 A 2.7619977,2.7619977 0 0 0 5.574565,2.8232873 2.7619977,2.7619977 0 0 0 2.8125728,0.0612951 Z"
     id="rect874"
     inkscape:connector-curvature="0" />
  <path
     style="fill:#1b1b1b;stroke-width:1;fill-opacity:1"
     d="M 2.8125728,0.0612951 A 2.7619977,2.7619977 0 0 0 0.20782667,1.9142443 H 5.417358 A 2.7619977,2.7619977 0 0 0 2.8125728,0.0612951 Z"
     id="rect876"
     inkscape:connector-curvature="0" />
  <circle
     style="opacity:1;vector-effect:none;fill:#171717;fill-opacity:0;stroke:#ffffff;stroke-width:0.10888113;stroke-linecap:round;stroke-linejoin:round;stroke-miterlimit:4;stroke-dasharray:none;stroke-dashoffset:0;stroke-opacity:0.95035466;paint-order:normal"
     id="path896-7"
     cx="2.8164382"
     cy="2.8164382"
     r="2.7619977" />
</svg>
