<?xml version="1.0" encoding="UTF-8" standalone="no"?>
<!-- Created with Inkscape (http://www.inkscape.org/) -->

<svg
   xmlns:dc="http://purl.org/dc/elements/1.1/"
   xmlns:cc="http://creativecommons.org/ns#"
   xmlns:rdf="http://www.w3.org/1999/02/22-rdf-syntax-ns#"
   xmlns:svg="http://www.w3.org/2000/svg"
   xmlns="http://www.w3.org/2000/svg"
   xmlns:sodipodi="http://sodipodi.sourceforge.net/DTD/sodipodi-0.dtd"
   xmlns:inkscape="http://www.inkscape.org/namespaces/inkscape"
   width="77.016411mm"
   height="128.24146mm"
   viewBox="0 0 77.016411 128.24146"
   version="1.1"
   id="svg8"
   inkscape:version="0.92.4 5da689c313, 2019-01-14"
   sodipodi:docname="dusi.svg">
  <defs
     id="defs2" />
  <sodipodi:namedview
     id="base"
     pagecolor="#ffffff"
     bordercolor="#666666"
     borderopacity="1.0"
     inkscape:pageopacity="0.0"
     inkscape:pageshadow="2"
     inkscape:zoom="0.98994949"
     inkscape:cx="14.996308"
     inkscape:cy="165.9696"
     inkscape:document-units="mm"
     inkscape:current-layer="layer1"
     showgrid="false"
     fit-margin-top="0"
     fit-margin-left="0"
     fit-margin-right="0"
     fit-margin-bottom="0"
     inkscape:window-width="1600"
     inkscape:window-height="900"
     inkscape:window-x="0"
     inkscape:window-y="0"
     inkscape:window-maximized="1" />
  <metadata
     id="metadata5">
    <rdf:RDF>
      <cc:Work
         rdf:about="">
        <dc:format>image/svg+xml</dc:format>
        <dc:type
           rdf:resource="http://purl.org/dc/dcmitype/StillImage" />
        <dc:title />
      </cc:Work>
    </rdf:RDF>
  </metadata>
  <g
     inkscape:label="Layer 1"
     inkscape:groupmode="layer"
     id="layer1"
     transform="translate(-51.569329,-101.60333)">
    <ellipse
       style="opacity:1;vector-effect:none;fill:#ffffff;fill-opacity:0.9958678;stroke:none;stroke-width:2;stroke-linecap:round;stroke-linejoin:round;stroke-miterlimit:4;stroke-dasharray:none;stroke-dashoffset:0;stroke-opacity:1;paint-order:normal"
       id="path816"
       cx="96.470612"
       cy="146.72395"
       rx="28.865108"
       ry="29.399649" />
    <path
       style="fill:#622f92;fill-opacity:1;stroke:none;stroke-width:0.35277775"
       d="m 94.120919,229.18139 c -2.76493,-0.71817 -6.99741,-2.52926 -6.99741,-2.99421 0,-0.42389 3.34878,-6.2183 4.99845,-8.64881 1.70122,-2.50649 1.78519,-2.31136 -3.301,-7.6706 l -3.77061,-3.97303 -0.72599,1.19082 c -1.05613,1.73235 -0.91634,2.38712 0.90426,4.23551 l 1.63288,1.65782 -0.77673,1.09081 -0.77673,1.09082 -1.50985,-1.23721 c -0.83042,-0.68046 -1.70584,-1.2372 -1.94539,-1.2372 -0.23954,0 -1.129702,0.75406 -1.978129,1.67569 l -1.542592,1.6757 -0.014,-2.02847 c -0.0077,-1.11566 -0.133071,-2.02726 -0.278592,-2.02578 -0.145521,0.001 -1.296458,0.31777 -2.557639,0.70286 -3.068817,0.93704 -3.196286,0.92432 -2.744078,-0.27372 0.299978,-0.79472 0.229528,-1.25392 -0.373814,-2.43656 l -0.743451,-1.45729 1.666088,-0.3693 c 0.916348,-0.20312 2.340776,-0.47 3.165394,-0.59306 2.039059,-0.30431 1.969918,-1.0201 -0.383748,-3.97293 -3.58147,-4.49319 -12.674525,-16.84121 -15.254576,-20.71513 -3.16304,-4.74927 -4.649455,-7.90385 -6.319018,-13.41068 -3.070586,-10.12791 -3.753585,-21.17166 -1.908203,-30.85466 0.729061,-3.8255 2.80369,-9.81186 4.680475,-13.50555 2.492463,-4.90541 4.577514,-7.81317 8.467767,-11.80894 20.165746,-20.712718 50.538857,-12.87219 59.996117,15.48743 1.65577,4.96518 3.04803,13.4433 2.83293,17.25094 -0.6987,12.36747 -4.23386,22.67941 -10.73088,31.30161 -4.24017,5.62713 -22.393021,22.03226 -28.498221,25.75448 -1.67967,1.02406 -3.10916,1.91715 -3.17665,1.98464 -0.0675,0.0675 0.67085,0.69282 1.64076,1.38963 0.98703,0.70912 2.8575,2.72245 4.24829,4.57277 3.46181,4.60563 3.44713,4.87848 -0.6182,11.48773 -2.56844,4.17564 -2.45177,4.32525 4.03618,5.17575 3.57823,0.46906 6.475171,1.32717 6.475171,1.91801 0,0.47479 -5.500581,0.17237 -7.819251,-0.42989 z m 3.38021,-61.59069 c 0.74067,-1.51914 1.60589,-3.10371 1.92272,-3.52126 l 0.57605,-0.75917 3.782041,1.2282 c 2.08013,0.67551 4.08589,1.2282 4.45725,1.2282 0.50196,0 0.97481,-0.68176 1.84295,-2.6572 0.64226,-1.46145 1.33597,-2.59264 1.54156,-2.51375 1.56592,0.6009 7.36435,2.34873 7.79192,2.34873 0.56489,0 1.22178,-1.3441 1.22178,-2.49998 0,-0.78652 -0.36053,-0.95833 -4.7625,-2.26969 -1.74625,-0.52021 -3.23286,-1.00094 -3.30358,-1.06828 -0.0707,-0.0674 0.21746,-0.83726 0.64039,-1.71093 l 0.76897,-1.58848 1.72302,1.06019 c 2.2735,1.39889 3.84423,1.64106 5.25166,0.80967 0.60123,-0.35516 1.09315,-0.76211 1.09315,-0.90435 0,-0.14223 -1.50813,-1.23558 -3.35139,-2.42965 -1.84327,-1.19408 -3.35139,-2.3032 -3.35139,-2.46472 0,-0.16152 0.65412,-2.13691 1.4536,-4.38975 0.79948,-2.25285 1.36106,-4.18862 1.24796,-4.30173 -0.17009,-0.17009 -4.50234,-0.73301 -6.16492,-0.80106 -0.27587,-0.0113 -0.38856,-0.26992 -0.27728,-0.63638 0.62634,-2.06275 1.63573,-9.38977 1.33499,-9.69051 -0.36854,-0.36854 -2.56985,0.50601 -3.20744,1.27426 -0.19463,0.23451 -0.6436,2.16458 -0.99769,4.28903 -0.61632,3.69764 -0.68101,3.86264 -1.51444,3.86264 -0.78275,0 -0.86927,-0.14241 -0.85729,-1.41112 0.007,-0.77611 0.23652,-3.3671 0.50933,-5.75776 0.55231,-4.83993 0.50503,-4.98608 -1.61611,-4.99655 l -1.09344,-0.005 -0.81187,5.90903 c -0.44652,3.24997 -0.83909,5.94698 -0.87237,5.99337 -0.0333,0.0464 -1.99985,-0.16667 -4.370161,-0.47347 -2.37031,-0.3068 -4.51854,-0.47765 -4.77385,-0.37968 -0.25531,0.098 -0.75601,1.30322 -1.11267,2.67833 -0.35666,1.37511 -0.78186,2.5002 -0.9449,2.5002 -0.16303,0 -2.174,-0.71437 -4.4688,-1.5875 -2.29481,-0.87312 -4.33633,-1.5875 -4.53671,-1.5875 -0.72069,0 -1.122502,2.8626 -0.52262,3.72322 0.14255,0.20451 2.11993,0.96345 4.39417,1.68655 l 4.13498,1.3147 -0.66737,1.66485 c -0.36706,0.91567 -0.79905,1.63414 -0.95999,1.5966 -0.16093,-0.0375 -1.88009,-0.95034 -3.82034,-2.02847 -1.94025,-1.07812 -3.639623,-1.96023 -3.776377,-1.96023 -0.262738,0 -0.810955,2.42988 -0.587544,2.6042 0.0718,0.056 1.797421,1.09746 3.834711,2.31431 2.03729,1.21684 3.75241,2.25696 3.81137,2.31135 0.059,0.0544 -0.29822,1.09668 -0.79375,2.31618 -0.49553,1.2195 -0.90096,2.33961 -0.90096,2.48914 0,0.14953 1.16054,0.7119 2.57897,1.24972 l 2.57896,0.97786 -2.22618,3.76285 c -1.22441,2.06957 -2.22619,3.96029 -2.22619,4.20161 0,0.30325 0.34045,0.37066 1.10243,0.21827 0.60634,-0.12127 1.52618,-0.22049 2.0441,-0.22049 0.83596,0 1.11793,-0.35962 2.51199,-3.20371 0.86368,-1.76204 1.74596,-3.34948 1.96062,-3.52763 0.23924,-0.19855 0.81621,-0.17545 1.49071,0.0597 l 1.1004,0.3836 -1.69921,2.52667 c -2.71724,4.04042 -2.6869,3.93397 -1.36271,4.78204 0.62807,0.40224 1.3086,0.73403 1.51229,0.73729 0.20368,0.003 0.97633,-1.23699 1.717,-2.75613 z"
       id="path888"
       inkscape:connector-curvature="0" />
  </g>
</svg>
