<?xml version="1.0" encoding="UTF-8" standalone="no"?>
<svg
   xmlns:dc="http://purl.org/dc/elements/1.1/"
   xmlns:cc="http://creativecommons.org/ns#"
   xmlns:rdf="http://www.w3.org/1999/02/22-rdf-syntax-ns#"
   xmlns:svg="http://www.w3.org/2000/svg"
   xmlns="http://www.w3.org/2000/svg"
   xmlns:sodipodi="http://sodipodi.sourceforge.net/DTD/sodipodi-0.dtd"
   xmlns:inkscape="http://www.inkscape.org/namespaces/inkscape"
   inkscape:version="1.0 (4035a4fb49, 2020-05-01)"
   sodipodi:docname="fb.svg"
   xml:space="preserve"
   enable-background="new 0 0 266.893 266.895"
   viewBox="0 0 266.893 266.895"
   height="266.895px"
   width="266.893px"
   y="0px"
   x="0px"
   id="Layer_1"
   version="1.1"><metadata
   id="metadata885"><rdf:RDF><cc:Work
       rdf:about=""><dc:format>image/svg+xml</dc:format><dc:type
         rdf:resource="http://purl.org/dc/dcmitype/StillImage" /></cc:Work></rdf:RDF></metadata><defs
   id="defs883" /><sodipodi:namedview
   inkscape:current-layer="Layer_1"
   inkscape:window-maximized="1"
   inkscape:window-y="0"
   inkscape:window-x="0"
   inkscape:cy="133.44749"
   inkscape:cx="133.4465"
   inkscape:zoom="3.6119343"
   showgrid="false"
   id="namedview881"
   inkscape:window-height="1440"
   inkscape:window-width="2560"
   inkscape:pageshadow="2"
   inkscape:pageopacity="0"
   guidetolerance="10"
   gridtolerance="10"
   objecttolerance="10"
   borderopacity="1"
   bordercolor="#666666"
   pagecolor="#ffffff" />
<path
   style="fill:#ffffff;fill-opacity:0.99988496"
   d="M 18.8125 4.5878906 C 10.9555 4.5878906 4.5878906 10.9555 4.5878906 18.8125 L 4.5878906 248.08203 C 4.5878906 255.93703 10.9545 262.30664 18.8125 262.30664 L 142.24219 262.30664 L 142.24219 162.50391 L 108.6582 162.50391 L 108.6582 123.60938 L 142.24219 123.60938 L 142.24219 94.925781 C 142.24219 61.638781 162.57258 43.511719 192.26758 43.511719 C 206.49158 43.511719 218.7173 44.570922 222.2793 45.044922 L 222.2793 79.832031 L 201.68359 79.841797 C 185.53559 79.841797 182.4082 87.516344 182.4082 98.777344 L 182.4082 123.60938 L 220.92383 123.60938 L 215.9082 162.50391 L 182.4082 162.50391 L 182.4082 262.30664 L 248.08203 262.30664 C 255.93603 262.30664 262.30469 255.93803 262.30469 248.08203 L 262.30469 18.8125 C 262.30469 10.9555 255.93703 4.5878906 248.08203 4.5878906 L 18.8125 4.5878906 z "
   id="Blue_1_" />

</svg>
