<?xml version="1.0" encoding="UTF-8" standalone="no"?>
<svg
   xmlns:dc="http://purl.org/dc/elements/1.1/"
   xmlns:cc="http://creativecommons.org/ns#"
   xmlns:rdf="http://www.w3.org/1999/02/22-rdf-syntax-ns#"
   xmlns:svg="http://www.w3.org/2000/svg"
   xmlns="http://www.w3.org/2000/svg"
   xmlns:xlink="http://www.w3.org/1999/xlink"
   xmlns:sodipodi="http://sodipodi.sourceforge.net/DTD/sodipodi-0.dtd"
   xmlns:inkscape="http://www.inkscape.org/namespaces/inkscape"
   width="12.031623mm"
   height="12.031623mm"
   viewBox="0 0 12.031623 12.031623"
   version="1.1"
   id="svg8"
   inkscape:version="1.0.1 (3bc2e813f5, 2020-09-07)"
   sodipodi:docname="gear.svg">
  <style
     id="style1504"></style>
  <sodipodi:namedview
     id="base"
     pagecolor="#ffffff"
     bordercolor="#666666"
     borderopacity="1.0"
     inkscape:pageopacity="0.0"
     inkscape:pageshadow="2"
     inkscape:zoom="7.9195959"
     inkscape:cx="27.654667"
     inkscape:cy="13.920896"
     inkscape:document-units="mm"
     inkscape:current-layer="g2691"
     showgrid="false"
     fit-margin-top="0"
     fit-margin-left="0"
     fit-margin-right="0"
     fit-margin-bottom="0"
     inkscape:window-width="2560"
     inkscape:window-height="1440"
     inkscape:window-x="0"
     inkscape:window-y="0"
     inkscape:window-maximized="1"
     inkscape:snap-center="true"
     inkscape:document-rotation="0" />
  <defs
     id="defs2">
    <linearGradient
       inkscape:collect="always"
       id="linearGradient1510">
      <stop
         style="stop-color:#e3e3e3;stop-opacity:1;"
         offset="0"
         id="stop1506" />
      <stop
         style="stop-color:#e3e3e3;stop-opacity:0;"
         offset="1"
         id="stop1508" />
    </linearGradient>
    <radialGradient
       inkscape:collect="always"
       xlink:href="#linearGradient1510"
       id="radialGradient1512"
       cx="22.737305"
       cy="22.737305"
       fx="22.737305"
       fy="22.737305"
       r="22.237305"
       gradientUnits="userSpaceOnUse"
       gradientTransform="matrix(1.3227753,0,0,1.2664939,-7.3390414,-6.0593541)" />
  </defs>
  <metadata
     id="metadata5">
    <rdf:RDF>
      <cc:Work
         rdf:about="">
        <dc:format>image/svg+xml</dc:format>
        <dc:type
           rdf:resource="http://purl.org/dc/dcmitype/StillImage" />
        <dc:title />
      </cc:Work>
    </rdf:RDF>
  </metadata>
  <g
     transform="translate(-3.385676,-3.5314599)"
     id="layer1"
     inkscape:groupmode="layer"
     inkscape:label="Layer 1" />
  <g
     transform="translate(6.0158117,6.0158116)"
     inkscape:label="Gear12"
     id="g2691"
     style="fill:#e3e3e3;fill-opacity:0.97520661;stroke:#9f9f9f;stroke-opacity:1;stroke-width:0.5;stroke-miterlimit:4;stroke-dasharray:none;stroke-linecap:round;stroke-linejoin:round;opacity:0.8">
    <path
       style="fill:url(#radialGradient1512);fill-opacity:1;stroke:none;stroke-width:1.88976383;stroke-linecap:round;stroke-linejoin:round;stroke-miterlimit:4;stroke-dasharray:none;stroke-opacity:1"
       d="M 21.324219 0.5 L 20.244141 3.8007812 L 20.248047 4.09375 L 20.630859 6.9609375 L 16.671875 8.0214844 L 15.570312 5.3476562 L 15.427734 5.0917969 L 12.841797 2.7734375 L 10.396484 4.1855469 L 11.111328 7.5859375 L 11.259766 7.8359375 L 13.025391 10.126953 L 10.126953 13.025391 L 7.8359375 11.259766 L 7.5859375 11.111328 L 4.1855469 10.396484 L 2.7734375 12.841797 L 5.0917969 15.427734 L 5.3476562 15.570312 L 8.0214844 16.671875 L 6.9609375 20.630859 L 4.09375 20.248047 L 3.8007812 20.244141 L 0.5 21.324219 L 0.5 24.148438 L 3.8007812 25.230469 L 4.09375 25.224609 L 6.9609375 24.841797 L 8.0214844 28.800781 L 5.3476562 29.904297 L 5.0917969 30.044922 L 2.7734375 32.632812 L 4.1855469 35.078125 L 7.5859375 34.363281 L 7.8359375 34.212891 L 10.126953 32.449219 L 13.025391 35.345703 L 11.259766 37.638672 L 11.111328 37.888672 L 10.396484 41.289062 L 12.841797 42.701172 L 15.427734 40.380859 L 15.570312 40.126953 L 16.671875 37.451172 L 20.630859 38.511719 L 20.248047 41.380859 L 20.244141 41.671875 L 21.324219 44.974609 L 24.148438 44.974609 L 25.230469 41.671875 L 25.224609 41.380859 L 24.841797 38.511719 L 28.800781 37.451172 L 29.904297 40.126953 L 30.044922 40.380859 L 32.632812 42.701172 L 35.078125 41.289062 L 34.363281 37.888672 L 34.212891 37.638672 L 32.449219 35.345703 L 35.345703 32.449219 L 37.638672 34.212891 L 37.888672 34.363281 L 41.289062 35.078125 L 42.701172 32.632812 L 40.380859 30.044922 L 40.126953 29.904297 L 37.451172 28.800781 L 38.511719 24.841797 L 41.380859 25.224609 L 41.671875 25.230469 L 44.974609 24.148438 L 44.974609 21.324219 L 41.671875 20.244141 L 41.380859 20.248047 L 38.511719 20.630859 L 37.451172 16.671875 L 40.126953 15.570312 L 40.380859 15.427734 L 42.701172 12.841797 L 41.289062 10.396484 L 37.888672 11.111328 L 37.638672 11.259766 L 35.345703 13.025391 L 32.449219 10.126953 L 34.212891 7.8359375 L 34.363281 7.5859375 L 35.078125 4.1855469 L 32.632812 2.7734375 L 30.044922 5.0917969 L 29.904297 5.3476562 L 28.800781 8.0214844 L 24.841797 6.9609375 L 25.224609 4.09375 L 25.230469 3.8007812 L 24.148438 0.5 L 21.324219 0.5 z M 22.736328 17.736328 A 4.9999997 4.9999997 0 0 1 27.736328 22.736328 A 4.9999997 4.9999997 0 0 1 22.736328 27.736328 A 4.9999997 4.9999997 0 0 1 17.736328 22.736328 A 4.9999997 4.9999997 0 0 1 22.736328 17.736328 z "
       transform="matrix(0.26458333,0,0,0.26458333,-6.0158117,-6.0158116)"
       id="path2687" />
  </g>
</svg>
