<?xml version="1.0" encoding="UTF-8" standalone="no"?>
<svg
   xmlns:dc="http://purl.org/dc/elements/1.1/"
   xmlns:cc="http://creativecommons.org/ns#"
   xmlns:rdf="http://www.w3.org/1999/02/22-rdf-syntax-ns#"
   xmlns:svg="http://www.w3.org/2000/svg"
   xmlns="http://www.w3.org/2000/svg"
   xmlns:xlink="http://www.w3.org/1999/xlink"
   xmlns:sodipodi="http://sodipodi.sourceforge.net/DTD/sodipodi-0.dtd"
   xmlns:inkscape="http://www.inkscape.org/namespaces/inkscape"
   width="130.02397"
   height="129.98828"
   version="1.1"
   id="svg1643"
   sodipodi:docname="instagram.svg"
   inkscape:version="1.0 (4035a4fb49, 2020-05-01)">
  <metadata
     id="metadata1647">
    <rdf:RDF>
      <cc:Work
         rdf:about="">
        <dc:format>image/svg+xml</dc:format>
        <dc:type
           rdf:resource="http://purl.org/dc/dcmitype/StillImage" />
        <dc:title></dc:title>
      </cc:Work>
    </rdf:RDF>
  </metadata>
  <sodipodi:namedview
     inkscape:document-rotation="0"
     pagecolor="#ffffff"
     bordercolor="#666666"
     borderopacity="1"
     objecttolerance="10"
     gridtolerance="10"
     guidetolerance="10"
     inkscape:pageopacity="0"
     inkscape:pageshadow="2"
     inkscape:window-width="2560"
     inkscape:window-height="1440"
     id="namedview1645"
     showgrid="false"
     fit-margin-top="0"
     fit-margin-left="0"
     fit-margin-right="0"
     fit-margin-bottom="0"
     inkscape:zoom="7.6363636"
     inkscape:cx="42.692082"
     inkscape:cy="57.897675"
     inkscape:window-x="0"
     inkscape:window-y="0"
     inkscape:window-maximized="1"
     inkscape:current-layer="g938" />
  <defs
     id="defs1635">
    <linearGradient
       id="b">
      <stop
         offset="0"
         stop-color="#3771c8"
         id="stop1617" />
      <stop
         stop-color="#3771c8"
         offset=".128"
         id="stop1619" />
      <stop
         offset="1"
         stop-color="#60f"
         stop-opacity="0"
         id="stop1621" />
    </linearGradient>
    <linearGradient
       id="a">
      <stop
         offset="0"
         stop-color="#fd5"
         id="stop1624" />
      <stop
         offset=".1"
         stop-color="#fd5"
         id="stop1626" />
      <stop
         offset=".5"
         stop-color="#ff543e"
         id="stop1628" />
      <stop
         offset="1"
         stop-color="#c837ab"
         id="stop1630" />
    </linearGradient>
    <radialGradient
       id="c"
       cx="158.429"
       cy="578.08801"
       r="65"
       xlink:href="#a"
       gradientUnits="userSpaceOnUse"
       gradientTransform="matrix(0,-1.98198,1.8439,0,-1080.1523,456.72243)"
       fx="158.429"
       fy="578.08801" />
    <radialGradient
       id="d"
       cx="147.694"
       cy="473.45499"
       r="65"
       xlink:href="#b"
       gradientUnits="userSpaceOnUse"
       gradientTransform="matrix(0.17394,0.86872,-3.5818,0.71718,1662.5646,-466.00163)"
       fx="147.694"
       fy="473.45499" />
    <radialGradient
       id="c-3"
       cx="158.429"
       cy="578.08801"
       r="65"
       xlink:href="#a"
       gradientUnits="userSpaceOnUse"
       gradientTransform="matrix(0,-1.98198,1.8439,0,-1006.3155,461.16426)"
       fx="158.429"
       fy="578.08801" />
    <radialGradient
       id="d-6"
       cx="147.694"
       cy="473.45499"
       r="65"
       xlink:href="#b"
       gradientUnits="userSpaceOnUse"
       gradientTransform="matrix(0.17394,0.86872,-3.5818,0.71718,1648.348,-458.493)"
       fx="147.694"
       fy="473.45499" />
  </defs>
  <path
     id="path1639"
     style="fill:#ffffff;fill-opacity:1;stroke-width:0"
     d="m -177.35345,-7.1601562 c 208746.11345,0 269796.75345,0 281663.79345,0 42838.25,0 69483.7,0 98524.49,0 22380.49,0 40036.5,0 57456.36,0 31724.91,0 50946.73,0 57906.98,0 3383.99,0 4366.51,0 4566.47,0 76.91,0 0,0 0,0 0,0 -216.88,0 -1216.72,0 -3460.9,0 -10010.18,0 -23853.78,0 -26456.66,0 -76985.8,0 -136513.28,0 -20611.59,0 -43372.41,0 -72597.79,0 -12382.33,0 -138585.61,0 -264870.01345,0 -126284.39655,0 -252570.02655,0 -264644.71655,0 -33839.94,0 -53499.77,0 -75226.53,0 -59912.03,0 -109518.26,0 -136513.28,0 -13574.42,0 -20453.54,0 -23568.35,0 -676.8,0 -961.36,0 -961.36,0 0,0 314.56,0 991.43,0 3153.27,0 10036.23,0 24049.03,0 11497.88,0 24260.52,0 42795.57,0 33078.51,0 73525.89,0 121732.39,0 23357.23,0 28022.44,0 147538.88,0 z m 345.47,0 H 47.906553 c -100121.816553,0 -112736.886553,0 -152090.326553,0 -39300.48,0 -66142.83,0 -89676.95,0 -24303.21,0 -44837.86,0 -65372.53,0 -20534.67,0 -33140.58,0 -42600.37,0 -9075.25,0 -15308.41,0 -17154.22,0 -1768.91,0 -2223.21,0 -2223.21,0 0,0 454.53,0 2223.21,0 1845.81,0 8078.97,0 17154.22,0 9459.79,0 22065.7,0 42600.37,0 20511.6,0 41085.01,0 65357.53,0 23487.97,0 50346.48,0 89646.89,0 39377.35,0 51914.33,0 152180.456553,0 100250.733447,0 112833.153447,0 152210.503447,0 39292.75,0 66113.88,0 89601.86,0 24264.75,0 44860.95,0 65372.56,0 20526.98,0 33148.57,0 42585.29,0 9121.4,0 15346.94,0 17154.29,0 1784.28,0 2223.15,0 2223.15,0 0,0 -461.92,0 -2223.15,0 -1768.91,0 -8002.13,0 -17154.29,0 -9459.79,0 -22065.64,0 -42600.31,0 -20519.3,0 -41122.47,0 -65402.6,0 -23472.59,0 -50301.42,0 -89601.87,0 -39353.44,0 -51999.16,0 -152090.33345,0 z m 33001.72045,0 c 68802.703,0 81999.063,0 116054.323,0 35993.36,0 55529.06,0 68542.05,0 17227.58,0 29529.4,0 42450.1,0 12920.69,0 20948.06,0 27639.13,0 5052.91,0 11062.14,0 12707.99,0 1768.91,0 2118,0 2118,0 0,0 -349.09,0 -2118,0 -1638.15,0 -7655.08,0 -12707.99,0 -6706.46,0 -14718.44,0 -27639.13,0 -12920.7,0 -25222.51,0 -42450.1,0 -13020.68,0 -32548.69,0 -68542.05,0 -38915.9,0 -50602.083,0 -149176.213447,0 -98566.429553,0 -110260.306553,0 -149176.206553,0 -35993.36,0 -55544.45,0 -68542.05,0 -17235.28,0 -29499.33,0 -42420.02,0 -12920.78,0 -20933.07,0 -27624.14,0 -5052.92,0 -11062.19,0 -12708.04,0 -1768.91,0 -2163.07,0 -2163.07,0 0,0 394.55,0 2163.07,0 1638.15,0 7655.12,0 12708.04,0 6706.45,0 14703.36,0 27624.14,0 12913,0 25192.43,0 42420.02,0 13012.98,0 32548.69,0 68542.05,0 38923.59,0 50609.777,0 149176.206553,0 12320.810447,0 23292.940447,0 33121.890447,0 z m -230185.877,0 c -24457.03,0 -44297.75,0 -44297.75,0 0,0 19840.72,0 44297.75,0 24457.02,0 44312.72,0 44312.72,0 0,0 -19855.7,0 -44312.72,0 z m 197063.986553,0 c -104696.066553,0 -189553.376553,0 -189553.376553,0 0,0 84857.31,0 189553.376553,0 104696.073447,0 189583.423447,0 189583.423447,0 0,0 -84887.35,0 -189583.423447,0 z m 0,0 c 67964.390447,0 123054.233447,0 123054.233447,0 0,0 -55089.843,0 -123054.233447,0 -67956.689553,0 -123054.216553,0 -123054.216553,0 0,0 55097.527,0 123054.216553,0 z" />
  <g
     transform="translate(-1.0009856,-0.999894)"
     id="g938">
    <path
       transform="translate(-24.082461,-6.1602622)"
       d="m 90.117188,7.1601562 c -27.142001,0 -35.080047,0.02825 -36.623047,0.15625 -5.57,0.4630001 -9.0365,1.3407032 -12.8125,3.2207028 -2.91,1.445 -5.205703,3.118797 -7.470703,5.466797 -4.125,4.282 -6.624297,9.5505 -7.529297,15.8125 -0.44,3.04 -0.56775,3.6595 -0.59375,19.1875 -0.01,5.176 0,11.988 0,21.125 0,27.12 0.03016,35.049844 0.160156,36.589844 0.45,5.42 1.299609,8.83055 3.099609,12.56055 3.44,7.14 10.01,12.5 17.75,14.5 2.68,0.69 5.639453,1.07 9.439453,1.25 1.61,0.07 18.019454,0.11914 34.439453,0.11914 16.419998,0 32.840158,-0.0196 34.410158,-0.0996 4.4,-0.207 6.95625,-0.5493 9.78125,-1.2793 7.79,-2.01 14.24,-7.2893 17.75,-14.5293 1.765,-3.64 2.65945,-7.18135 3.06445,-12.31835 0.088,-1.12001 0.125,-18.977552 0.125,-36.810552 0,-17.836 -0.0409,-35.659297 -0.1289,-36.779297 -0.41,-5.22 -1.30496,-8.729453 -3.12696,-12.439453 -1.495,-3.037 -3.15445,-5.306 -5.56445,-7.625 -4.301,-4.108 -9.56013,-6.6077186 -15.82813,-7.5117186 -3.037,-0.439 -3.64164,-0.5687032 -19.18164,-0.5957032 z m -0.04492,16.9999998 h 0.01367 c 13.020952,6.1e-5 14.658112,0.05814 19.775392,0.291016 5.11,0.234 8.60015,1.041515 11.66015,2.228516 3.16,1.224999 5.83,2.865156 8.5,5.535156 2.67,2.668 4.30907,5.346906 5.53907,8.503906 1.18,3.052 1.99047,6.540391 2.23047,11.650391 0.23,5.12 0.29101,6.755015 0.29101,19.791015 0,13.036 -0.061,14.669063 -0.29101,19.789063 -0.24,5.108 -1.05047,8.595441 -2.23047,11.648441 -1.23,3.156 -2.86907,5.83395 -5.53907,8.50195 -2.667,2.67 -5.34009,4.31502 -8.49609,5.54101 -3.054,1.18701 -6.54625,1.99647 -11.65625,2.23047 -5.12,0.233 -6.75206,0.28907 -19.789062,0.28907 -13.035,0 -14.669062,-0.0561 -19.789062,-0.28907 -5.109,-0.234 -8.598344,-1.04347 -11.652344,-2.23047 -3.155,-1.226 -5.833,-2.87101 -8.5,-5.54101 -2.669,-2.668 -4.31011,-5.34495 -5.53711,-8.50195 -1.186,-3.052 -1.993515,-6.540394 -2.228515,-11.650394 -0.232,-5.12 -0.291016,-6.75111 -0.291016,-19.78711 0,-13.036 0.06006,-14.672969 0.289063,-19.792968 0.23,-5.108 1.040469,-8.597391 2.230468,-11.650391 1.230001,-3.156 2.869063,-5.833953 5.539063,-8.501953 2.668,-2.669 5.346906,-4.309157 8.503906,-5.535156 3.052,-1.187001 6.540391,-1.994516 11.650391,-2.228516 5.117279,-0.232876 6.760377,-0.290955 19.777344,-0.291016 z m -4.291016,8.638672 c -8.946,0.01 -10.661844,0.06953 -15.089844,0.269531 -4.68,0.215 -7.222062,0.994297 -8.914062,1.654297 -2.24,0.872 -3.839531,1.911797 -5.519532,3.591797 -1.679999,1.68 -2.721796,3.281484 -3.591796,5.521485 -0.657,1.691999 -1.440297,4.232109 -1.654297,8.912109 -0.23,5.06 -0.275391,6.570672 -0.275391,19.388672 0,12.818 0.04539,14.338437 0.275391,19.398437 0.213,4.68 0.997297,7.220157 1.654297,8.910154 0.872,2.241 1.911797,3.83758 3.591796,5.51758 1.68,1.68 3.279532,2.71984 5.519532,3.58984 1.693,0.657 4.234062,1.4383 8.914062,1.6543 5.06,0.23 6.577532,0.2793 19.394532,0.2793 12.816,0 14.33648,-0.0493 19.39648,-0.2793 4.68,-0.214 7.22211,-0.9943 8.91211,-1.6543 2.241,-0.87 3.83563,-1.90984 5.51563,-3.58984 1.68,-1.679 2.72179,-3.27367 3.59179,-5.51367 0.657,-1.690001 1.4403,-4.230157 1.6543,-8.910158 0.23,-5.06 0.2793,-6.580624 0.2793,-19.390624 0,-12.810001 -0.0493,-14.328672 -0.2793,-19.388672 -0.213,-4.68 -0.9973,-7.220157 -1.6543,-8.910157 -0.872,-2.24 -1.91179,-3.839531 -3.59179,-5.519531 -1.679,-1.68 -3.27563,-2.719844 -5.51563,-3.589844 -1.692,-0.657 -4.23211,-1.440297 -8.91211,-1.654296 -5.061,-0.230001 -6.58048,-0.275391 -19.39648,-0.275391 -1.602001,0 -3.026688,-0.002 -4.304688,0 z m 29.927728,7.978516 c 3.18,0 5.75977,2.581719 5.75977,5.761718 0,3.18 -2.57977,5.759766 -5.75977,5.759766 -3.18,0 -5.75976,-2.579766 -5.75976,-5.759766 0,-3.181 2.57976,-5.759765 5.75976,-5.759765 z m -25.62304,6.732422 c 13.613,0 24.64648,11.03739 24.64648,24.65039 0,13.613 -11.03348,24.644532 -24.64648,24.644532 -13.613001,0 -24.650391,-11.031532 -24.650391,-24.644532 0,-13.613 11.037391,-24.65039 24.650391,-24.65039 z m 0,8.65039 c -8.837,0 -16,7.163 -16,16 0,8.836 7.162999,16 16,16 8.836,0 16,-7.164 16,-16 0,-8.837 -7.164001,-16 -16,-16 z"
       style="fill:#ffffff;fill-opacity:1"
       id="path921" />
  </g>
</svg>
