<svg xmlns="http://www.w3.org/2000/svg" width="368" height="58" viewBox="0 0 368 58"><g fill="#FFF"><path d="M339.591 1c-15.333 0-28.031 12.627-28.031 28.031 0 15.234 12.697 27.854 28.032 27.854 15.703 0 28.221-12.62 28.221-27.856C367.812 13.627 355.295 1 339.591 1zm.002 54.125c-14.323 0-26.263-11.684-26.263-26.097 0-14.413 11.939-26.26 26.263-26.26v-.001c14.686 0 26.441 11.848 26.441 26.262 0 14.412-11.756 26.096-26.441 26.096z"/><path d="M344.607 44.766c-.758-1.308-2.25-.75-3.364-1.115h-.001c1.309 1.662.183 2.602 4.482 3.35l-1.31-1.305c-.747-.557-.565-.741.193-.93z"/><path d="M350.579 7.997c-3.547-3.531-8.222-.743-8.027 3.335.549-.549 1.116-.738 1.674-.358.382.742 0 1.294-.185 2.032.375 0 .566 0 .939.196.178 0 .368.369.564.745.184.36.551.36.733.36l1.123-.36c.383 0 .561.179.749.55.373 2.783-.188 5.013-1.487 6.68l.927 1.494c.373 1.483.194 2.223-.927 1.483l-6.37-3.898c-1.299-.935-2.79-.746-4.1.37l2.246-.2-.576 1.127 2.816-.182 3.928 4.077c-3.738-.553-7.858-2.229-9.538-.742.93-.185 1.498 0 2.052.558 0 .375-.373.563-.743.745 1.31.182 2.425-.561 3.915-.745l5.803 3.16c.378.184.936 0 1.494-.374-1.688 4.086-6.347 5.943-12.341 6.503-.74.367-1.11 1.11-1.3 2.417h1.12c3.37 6.871 6.918 12.065 10.279 15.966-.367-1.498-.933-2.969.553-2.969-.921-2.787-2.233-1.492-2.985-2.787-3.188-5.758-4.112-8.731-3.922-10.21h11.585c2.245-5.391 1.874-13.558-.752-24.144 1.873-.747 2.065-2.414.753-4.829z"/><path d="M337.844 30.46a.829.829 0 0 0-.84-.835h-5.982a.77.77 0 0 0-.153.015.86.86 0 0 0-.066-.392l-3.057-6.315a.842.842 0 0 0-1.106-.379.855.855 0 0 0-.437.493.782.782 0 0 0 .045.608l3.065 6.331a.826.826 0 0 0 .887.415.824.824 0 0 0 .818.879h6.004a.827.827 0 0 0 .822-.82zm-6.826.568zm-30.013-29.83c-1.59 0-2.959.452-4.092 1.575-1.13 1.133-1.81 2.489-1.81 4.071 0 1.575.68 2.93 1.811 4.052 1.131 1.133 2.501 1.806 4.091 1.806 1.595 0 2.942-.673 4.095-1.806 1.128-1.122 1.807-2.477 1.807-4.052v-.001c0-1.581-.679-2.937-1.807-4.07-1.153-1.123-2.5-1.575-4.095-1.575zm3.499 9.129c-.875 1.078-2.171 1.51-3.495 1.51-1.311 0-2.403-.432-3.493-1.51-.877-.878-1.312-1.963-1.312-3.479 0-1.304.436-2.391 1.312-3.477 1.09-.869 2.182-1.302 3.493-1.302 1.325 0 2.621.432 3.495 1.302.887 1.087 1.532 2.173 1.532 3.477 0 1.516-.645 2.601-1.532 3.479z"/><path d="M302.818 7.969c0-.454-.219-.454-.438-.679 0 0-.246-.224-.468-.224.468-.222.905-.222 1.37-.452.217-.453.445-.898.445-1.352 0-.448-.229-.902-.445-1.122-.465-.45-1.148-.45-2.043-.45h-2.5v6.084h.902V7.066h.453c.682 0 1.145.224 1.367.224.239.224.45.679.917 1.584l.67.9h.898l-.446-1.123c-.217-.232-.45-.454-.682-.682zm-3.175-1.573V4.36h1.135c.925 0 1.604 0 1.82.231.221.223.221.447.221.671v.684c-.219.215-.438.215-.684.45h-2.492zM65.588 2.912H39.09L21.725 23.286V2.912H0V56.71h21.725V36.743L39.09 56.71h26.497L41.74 28.79zm101.509 13.424V2.806c-5.78 0-10.213-.2-13.293 4.31v-4.31h-23.71V56.71h23.709V27.193c-.386-6.76 4.05-10.449 13.294-10.857zm96.423 6.737c-11.23.193-9.935-9.835-.928-9.835 8.096 0 10.301 4.046 9.932 8.3h22.268c0-8.3-5.525-19.499-32.016-19.499-26.5 0-28.885 11.199-28.885 19.499 0 10.228 9.935 12.155 26.313 12.735 3.487.379 6.983.773 9.93 1.156 5.71.775 4.976 9.264-3.864 9.264-7.17.772-9.554-2.697-10.474-8.109-7.37.006-14.535.006-21.905.006 0 7.145 4.784 19.88 31.455 19.878 26.867 0 31.088-10.229 31.088-19.884 0-9.841-11.401-13.318-32.914-13.511z"/><path d="M198.619 1.571c-18.42 0-33.312 9.392-33.312 27.584 0 17.997 14.892 27.592 33.312 27.592 15.451 0 28.486-5.872 32.384-19.372h-21.21c-1.49 4.703-4.652 7.83-10.43 7.83-6.874 0-9.854-4.501-10.793-10.768l43.557-.192v-5.09c0-19.366-15.075-27.584-33.508-27.584zm-9.855 22.112c1.479-5.868 4.832-9.98 10.6-9.98 5.777 0 9.309 4.112 10.611 9.98h-21.211zM92.121 1.605c-18.709.001-34.065 9.438-34.065 27.701 0 18.07 15.356 27.702 34.065 27.702 18.534 0 33.874-8.447 33.874-27.702 0-19.441-15.341-27.701-33.874-27.701zm-.563 41.45c-8.23 0-10.853-6.287-10.853-14.145 0-7.653 3.553-13.945 10.853-13.945 7.304 0 10.87 6.292 10.87 13.945 0 7.858-2.628 14.145-10.87 14.145z"/></g></svg>