<?xml version="1.0" encoding="UTF-8" standalone="no"?>
<!-- Created with Inkscape (http://www.inkscape.org/) -->

<svg
   xmlns:dc="http://purl.org/dc/elements/1.1/"
   xmlns:cc="http://creativecommons.org/ns#"
   xmlns:rdf="http://www.w3.org/1999/02/22-rdf-syntax-ns#"
   xmlns:svg="http://www.w3.org/2000/svg"
   xmlns="http://www.w3.org/2000/svg"
   xmlns:sodipodi="http://sodipodi.sourceforge.net/DTD/sodipodi-0.dtd"
   xmlns:inkscape="http://www.inkscape.org/namespaces/inkscape"
   width="68.347488mm"
   height="68.334259mm"
   viewBox="0 0 68.347489 68.334259"
   version="1.1"
   id="svg915"
   inkscape:version="0.92.4 5da689c313, 2019-01-14"
   sodipodi:docname="mlceni.svg">
  <defs
     id="defs909" />
  <sodipodi:namedview
     id="base"
     pagecolor="#ffffff"
     bordercolor="#666666"
     borderopacity="1.0"
     inkscape:pageopacity="0.0"
     inkscape:pageshadow="2"
     inkscape:zoom="2.8284271"
     inkscape:cx="120.22263"
     inkscape:cy="129.73271"
     inkscape:document-units="mm"
     inkscape:current-layer="layer1"
     showgrid="false"
     fit-margin-top="0"
     fit-margin-left="0"
     fit-margin-right="0"
     fit-margin-bottom="0"
     inkscape:window-width="1600"
     inkscape:window-height="900"
     inkscape:window-x="0"
     inkscape:window-y="0"
     inkscape:window-maximized="1"
     inkscape:snap-center="true"
     inkscape:snap-object-midpoints="true" />
  <metadata
     id="metadata912">
    <rdf:RDF>
      <cc:Work
         rdf:about="">
        <dc:format>image/svg+xml</dc:format>
        <dc:type
           rdf:resource="http://purl.org/dc/dcmitype/StillImage" />
        <dc:title></dc:title>
      </cc:Work>
    </rdf:RDF>
  </metadata>
  <g
     inkscape:label="Layer 1"
     inkscape:groupmode="layer"
     id="layer1"
     transform="translate(-51.372064,-33.690664)">
    <circle
       style="opacity:1;vector-effect:none;fill:#ffffff;fill-opacity:0.9958678;stroke:none;stroke-width:2;stroke-linecap:round;stroke-linejoin:round;stroke-miterlimit:4;stroke-dasharray:none;stroke-dashoffset:0;stroke-opacity:1;paint-order:normal"
       id="path1415"
       cx="85.545807"
       cy="67.857796"
       r="34.065105" />
    <path
       style="fill:#622f92;fill-opacity:1;stroke-width:0.3054257"
       d="M 82.12371,101.86673 C 74.569554,101.06128 67.570156,97.842582 62.125074,92.670273 58.971036,89.674245 57.06704,87.081506 55.084289,83.082641 52.04064,76.944136 50.891322,70.93474 51.552773,64.617529 53.158462,49.282296 63.830504,37.481591 79.069452,34.190713 c 3.087421,-0.666732 10.045886,-0.666732 13.133307,0 7.183068,1.5512 12.536741,4.435236 17.594971,9.478451 4.8974,4.882866 7.95942,10.594408 9.44903,17.625139 0.61758,2.914901 0.63305,9.713378 0.0292,12.805031 -2.07419,10.618501 -8.81606,19.518565 -18.47072,24.38356 -5.342885,2.692306 -12.688599,4.022856 -18.681467,3.383836 z m 0.916278,-7.941446 c 0,-0.168104 -0.137442,-0.305546 -0.305438,-0.305546 -0.167996,0 -0.305438,-0.545437 -0.305438,-1.212119 0,-1.55731 0.600952,-1.391623 1.405284,0.387434 l 0.579982,1.282824 2.68783,-0.04726 c 3.672075,-0.06421 4.189259,-0.220411 4.163578,-1.256779 -0.0202,-0.816568 -0.02778,-0.819779 -0.349628,-0.152592 -0.203493,0.421704 -0.718881,0.75481 -1.351444,0.873457 -1.505685,0.282459 -1.94337,0.0032 -1.94337,-1.240112 0,-1.005488 0.06501,-1.078574 0.958964,-1.078574 0.527426,0 1.116007,0.21464 1.307953,0.477258 0.277444,0.379461 0.324485,0.220411 0.22943,-0.776383 -0.09661,-1.012883 -0.186502,-1.166431 -0.468034,-0.799434 -0.19166,0.249993 -0.712993,0.542047 -1.158509,0.649295 -0.716894,0.172433 -0.833625,0.08766 -1.015264,-0.739371 -0.112876,-0.513963 -0.118215,-1.075273 -0.0119,-1.247345 0.306484,-0.495872 2.288615,-0.380255 2.490272,0.145377 0.262149,0.683096 0.689134,0.553807 0.504374,-0.152592 -0.135277,-0.517228 -0.399962,-0.605284 -1.727604,-0.574694 -1.554554,0.03607 -3.875474,0.469142 -2.884635,0.538584 0.590342,0.04149 0.968472,1.850826 0.805386,3.853973 -0.136648,1.678411 -1.043763,1.681585 -1.983149,0.0072 -0.56698,-1.010755 -0.614879,-1.292889 -0.2852,-1.679853 1.261963,-1.481249 0.654525,-2.414337 -1.732067,-2.660649 -1.211408,-0.125177 -1.749425,-0.07359 -1.749425,0.167744 0,0.191552 0.137441,0.348113 0.305437,0.348113 0.178169,0 0.305438,1.018131 0.305438,2.443447 0,1.968301 -0.08907,2.443394 -0.458138,2.443394 -0.251977,0 -0.458139,0.137442 -0.458139,0.305546 0,0.168105 0.549766,0.305546 1.2217,0.305546 0.671938,0 1.221704,-0.137441 1.221704,-0.305546 z m -0.610851,-4.123247 c 0,-0.977981 0.08257,-1.099767 0.687208,-1.013911 0.538255,0.07648 0.687208,0.296167 0.687208,1.013911 0,0.717654 -0.148949,0.937417 -0.687208,1.013857 -0.604645,0.08586 -0.687208,-0.03607 -0.687208,-1.013857 z m 11.84364,3.036918 c 0.771083,-0.540063 0.922825,-1.996041 0.264927,-2.542056 -0.227627,-0.189027 -0.949198,-0.528663 -1.603485,-0.755009 -1.339817,-0.463477 -1.680849,-1.217061 -0.771105,-1.703951 0.463557,-0.248188 0.716803,-0.216804 1.065601,0.132031 0.586782,0.586778 0.921429,0.586489 0.69614,-6.13e-4 -0.101548,-0.264783 -0.0054,-0.458139 0.227266,-0.458139 0.596828,0 2.353039,4.127342 1.934358,4.546015 -0.673081,0.673103 -0.0079,0.531441 2.148421,-0.457597 1.89786,-0.870427 2.21434,-1.126047 2.21434,-1.788436 0,-0.425077 -0.13744,-0.772865 -0.30544,-0.772865 -0.167995,0 -0.305437,0.318171 -0.305437,0.70703 0,0.50857 -0.302912,0.851452 -1.079352,1.221679 -1.452213,0.692511 -1.556579,0.667187 -1.954715,-0.474913 -0.292776,-0.839891 -0.265324,-1.047929 0.181199,-1.374434 0.673583,-0.492553 1.536164,-0.494032 1.7343,-0.0031 0.104361,0.25865 0.158328,0.23412 0.167346,-0.07648 0.0072,-0.252156 -0.183147,-0.801742 -0.423204,-1.221679 -0.326613,-0.571374 -0.439218,-0.63104 -0.447313,-0.237005 -0.0061,0.289673 -0.403992,0.729991 -0.884532,0.978468 -0.834043,0.4313 -0.889507,0.417123 -1.2217,-0.312039 -0.505003,-1.108334 -0.449492,-1.277701 0.596052,-1.818341 0.879792,-0.454964 0.986495,-0.45031 1.567718,0.06854 0.609891,0.544392 0.618945,0.541506 0.409785,-0.130587 -0.393674,-1.264859 0.393552,-0.71935 1.666103,1.154581 0.9101,1.340182 1.19477,2.018119 1.04525,2.489226 l -0.20548,0.647418 0.9514,-0.677432 c 1.06432,-0.757894 1.21779,-1.061312 0.4169,-0.824306 -0.38885,0.115075 -0.85627,-0.304103 -1.71542,-1.538408 -0.90832,-1.304973 -1.049329,-1.658786 -0.61085,-1.532708 3.21,0.922879 5.3898,1.449341 5.6466,1.363738 0.17131,-0.057 -0.3854,-1.059743 -1.23716,-2.228105 -0.85177,-1.168253 -1.54867,-2.374059 -1.54867,-2.679461 0,-0.534976 -0.0267,-0.535229 -0.7321,-0.0072 -0.74757,0.560372 -0.79299,1.10415 -0.069,0.826345 0.50722,-0.194799 1.75869,1.627099 1.99641,2.07672 0.1795,0.294472 0.18704,0.458586 0.33181,0.529259 0,0.430722 -0.0592,0.422389 -3.04483,-0.429424 -1.64882,-0.470404 -2.711106,-0.63472 -2.929826,-0.453196 -0.686165,0.569462 -4.821407,2.122336 -5.651713,2.122336 -1.043005,0 -1.812364,0.714732 -1.812364,1.683641 0,0.81343 0.243355,1.019827 1.985089,1.683515 1.402579,0.534435 1.805081,1.573219 0.814921,2.103144 -0.466775,0.249632 -0.77016,0.182895 -1.392954,-0.306989 -0.767649,-0.603841 -0.796206,-0.605428 -0.796206,-0.04437 0,0.320336 0.09163,0.673752 0.203638,0.785725 0.368217,0.368207 1.785478,0.212836 2.477252,-0.271997 z M 83.77921,87.147954 c 0.554207,-0.791245 0.390316,-1.110138 -0.283252,-0.551101 -0.396279,0.328994 -0.547854,0.29797 -0.913947,-0.18542 -0.534986,-0.706796 -0.582099,-0.422101 -0.103856,0.627506 0.433893,0.952315 0.695133,0.974211 1.301048,0.109304 z m 8.849008,-0.730605 c 0.101981,-0.265865 0.17669,-0.712387 0.166048,-0.992645 -0.01262,-0.336931 -0.119512,-0.259011 -0.314744,0.22943 -0.225462,0.564087 -0.379931,0.654452 -0.652577,0.381806 -0.617286,-0.617297 -0.968191,-0.387759 -0.387744,0.253599 0.667003,0.737026 0.943805,0.766787 1.189024,0.127702 z m 15.914812,-1.932587 c 0.63099,-0.714949 0.7477,-0.978144 0.37485,-0.84532 -0.38623,0.137802 -1.03908,-0.277769 -2.27751,-1.448944 -1.50764,-1.425821 -1.68265,-1.706224 -1.33008,-2.131066 0.78015,-0.940014 -0.16875,-0.479999 -1.19593,0.579816 -0.56986,0.587932 -0.89919,1.068978 -0.73185,1.068978 0.16735,0 0.43482,-0.128063 0.59441,-0.284623 0.18091,-0.177484 0.94528,0.32214 2.03015,1.327014 1.43938,1.333256 1.70863,1.738618 1.55839,2.346319 -0.0999,0.404028 -0.12694,0.665203 -0.0602,0.580357 0.0668,-0.08477 0.53378,-0.621409 1.03773,-1.192459 z M 75.443401,83.41582 c 3.155727,-1.318718 4.843603,-4.199327 4.882296,-8.332307 l 0.0202,-2.143006 1.499008,-1.11911 c 3.073114,-2.294293 4.087491,-5.26802 2.31659,-6.79128 -0.925833,-0.796371 -2.172659,-0.934863 -3.396451,-0.377265 -0.649645,0.295987 -0.879309,0.261031 -1.403979,-0.21381 -0.891281,-0.806594 -2.541006,-0.734129 -3.485421,0.153098 -1.785647,1.67753 -1.061117,4.292466 1.980584,7.148224 l 1.796235,1.68643 -0.148769,2.057764 c -0.159699,2.208801 -0.968227,4.399988 -2.0525,5.562397 -1.746435,1.872272 -4.811422,2.428098 -6.903975,1.252017 -2.016961,-1.133586 -3.972451,-4.832944 -4.463424,-8.443804 -0.109376,-0.80434 -0.263015,-1.69578 -0.341404,-1.980977 -0.107248,-0.390118 0.148553,-0.596933 1.032857,-0.835049 1.41751,-0.381698 2.520758,-1.482652 3.550535,-3.543161 1.208428,-2.417976 2.801748,-8.821841 2.433614,-9.781179 -0.07233,-0.18845 -0.755684,-0.366259 -1.518589,-0.395118 -0.762909,-0.02886 -1.662837,-0.20003 -1.99984,-0.380392 -1.356674,-0.72607 -2.828082,0.581071 -2.27539,2.021365 0.452659,1.179613 2.538773,1.041309 2.860678,-0.18964 0.112299,-0.429467 0.427076,-0.580563 1.209457,-0.580563 1.030098,0 1.052496,0.02597 0.860258,0.992631 -1.021097,5.135236 -2.413791,8.806553 -3.869932,10.201624 -0.767527,0.735331 -1.161692,0.87006 -2.545537,0.87006 -2.077579,0 -2.997475,-0.654832 -4.320287,-3.075405 -0.928444,-1.69893 -1.992675,-5.242209 -2.355835,-7.843563 l -0.159879,-1.145347 h 1.306189 c 1.096874,0 1.361938,0.122363 1.654089,0.763562 0.251435,0.551844 0.586847,0.763565 1.209645,0.763565 1.073895,0 1.594759,-0.498775 1.594759,-1.527127 0,-1.408307 -1.119969,-1.929986 -2.526894,-1.177023 -0.359801,0.192563 -1.347213,0.364361 -2.194257,0.381781 l -1.540074,0.03175 -0.09736,1.188671 c -0.219581,2.680428 1.812465,8.774018 3.65617,10.963913 0.394443,0.468506 1.266933,1.039567 1.938871,1.269026 1.192153,0.407105 1.227173,0.460086 1.447841,2.190541 0.840064,6.587654 3.967469,10.778684 8.059411,10.800472 0.69342,0.0036 1.724232,-0.186863 2.290693,-0.423688 z m 28.365529,-3.845586 c 0,-0.503917 -0.13744,-0.916259 -0.30543,-0.916259 -0.168,0 -0.30544,0.412342 -0.30544,0.916259 0,0.503952 0.13744,0.916277 0.30544,0.916277 0.16799,0 0.30543,-0.412325 0.30543,-0.916277 z M 96.212124,67.350953 c -0.05743,-2.855145 0.0032,-3.357413 0.404963,-3.357413 0.259876,0 0.472481,-0.118683 0.472481,-0.263772 0,-0.145089 -0.553237,-0.263773 -1.229417,-0.263773 -0.67618,0 -1.302776,0.118684 -1.392441,0.263773 -0.08968,0.145089 0.100393,0.263772 0.422346,0.263772 0.492098,0 0.616629,0.299125 0.781588,1.877358 0.381737,3.65227 0.415838,3.627011 -1.742337,1.290436 -1.066208,-1.15434 -2.270936,-2.48748 -2.677182,-2.962526 -0.620511,-0.725609 -0.881578,-0.827842 -1.632625,-0.639341 -0.850944,0.213557 -0.861752,0.23632 -0.22438,0.472099 0.625298,0.231306 0.669643,0.441166 0.669643,3.168944 0,2.743962 -0.0417,2.937992 -0.687207,3.197454 -0.543136,0.218319 -0.347248,0.280294 0.934303,0.29559 1.00762,0.0119 1.550045,-0.09628 1.432747,-0.286067 -0.103821,-0.167996 -0.386817,-0.305437 -0.62888,-0.305437 -0.346887,0 -0.440112,-0.522765 -0.440112,-2.468018 v -2.468018 l 1.473391,1.628098 c 0.810364,0.895456 1.997892,2.215858 2.638951,2.93423 0.641058,0.718369 1.238936,1.232757 1.328616,1.143074 0.08968,-0.08968 0.13268,-1.673891 0.09552,-3.520467 z M 112.37055,63.99354 c 0.16266,0 0.29559,-0.103063 0.29544,-0.229069 -1.6e-4,-0.126006 -0.54992,-0.250209 -1.2217,-0.276074 -0.67178,-0.02597 -1.22141,0.07724 -1.22141,0.22907 0,0.151835 0.26478,0.276073 0.58841,0.276073 0.52733,0 0.59866,0.270987 0.68721,2.61091 l 0.0988,2.61091 -2.74883,-2.941386 c -2.49876,-2.673798 -2.81625,-2.915843 -3.48987,-2.660609 -0.73408,0.278129 -0.7348,0.282422 -0.0764,0.454596 0.62456,0.163306 0.66469,0.351323 0.66469,3.113798 0,2.763409 -0.0413,2.95657 -0.68721,3.216205 -0.53552,0.215253 -0.31641,0.277805 0.99263,0.28336 1.65949,0.0072 1.66967,0.0015 0.83992,-0.448535 -0.80757,-0.438118 -0.83992,-0.549128 -0.83992,-2.882489 v -2.426829 l 1.28273,1.443945 c 0.70549,0.794171 1.97683,2.170711 2.82519,3.058973 l 1.54245,1.615022 0.086,-3.52393 c 0.0491,-2.009428 0.21316,-3.523937 0.38178,-3.523937 z m -8.25202,6.337583 c 0.002,-0.209987 0.0812,-0.725385 0.17539,-1.145347 l 0.17121,-0.763562 -0.659,0.83992 c -0.57561,0.733638 -0.87046,0.839919 -2.33011,0.839919 h -1.671093 l 0.09311,-1.414977 c 0.08954,-1.360989 0.131663,-1.41796 1.104393,-1.493084 0.71858,-0.05552 1.11557,0.08885 1.37153,0.4987 0.55918,0.895394 0.6856,0.6975 0.55831,-0.873963 -0.0966,-1.192567 -0.1632,-1.328464 -0.37414,-0.763565 -0.20786,0.556613 -0.49067,0.687208 -1.48817,0.687208 H 99.83841 V 65.367956 63.99354 h 1.50655 c 1.2383,0 1.54106,0.108763 1.70042,0.610854 0.27265,0.859078 0.76357,0.760896 0.76357,-0.152701 v -0.763562 l -3.13062,0.03535 c -1.721836,0.01948 -2.89009,0.0983 -2.596116,0.175103 0.462059,0.120739 0.534496,0.535643 0.534496,3.061512 0,2.424517 -0.09098,2.990898 -0.534496,3.327576 -0.455159,0.345516 -0.04711,0.407181 2.748836,0.415453 2.42606,0.0072 3.28441,-0.08997 3.28749,-0.37207 z m 12.671,0.07637 c -0.10382,-0.167996 -0.38682,-0.305438 -0.62888,-0.305438 -0.35385,0 -0.44011,-0.59857 -0.44011,-3.054254 0,-2.511278 0.0815,-3.054259 0.45814,-3.054259 0.25197,0 0.45814,-0.109195 0.45814,-0.242633 0,-0.133437 -0.75593,-0.260345 -1.67985,-0.28199 -0.92391,-0.02164 -1.67984,0.08755 -1.67984,0.242634 0,0.155081 0.27488,0.281953 0.61085,0.281953 0.57013,0 0.61085,0.203637 0.61085,3.054259 0,2.850639 -0.0407,3.054254 -0.61085,3.054254 -0.33595,0 -0.61085,0.137442 -0.61085,0.305438 0,0.170016 0.82048,0.305438 1.85058,0.305438 1.15595,0 1.77973,-0.114643 1.66182,-0.305438 z m -1.23364,-8.091247 c 0.91026,-0.743901 0.86699,-1.471476 -0.053,-0.891166 -0.61524,0.388087 -1.47876,1.656106 -1.11766,1.641211 0.14646,-0.0061 0.67327,-0.343567 1.17066,-0.750045 z M 100.78318,50.436452 c -0.4927,-0.593672 2.50345,-3.916216 3.26722,-3.623133 0.28296,0.108582 0.0354,-0.230765 -0.55049,-0.754125 -1.02858,-0.919037 -1.64133,-1.11955 -0.98463,-0.322213 0.48896,0.59368 -2.39004,3.681663 -3.171706,3.401939 -0.422956,-0.151366 -0.337941,0.04823 0.322897,0.757927 0.868429,0.932651 1.827529,1.396096 1.116709,0.539601 z M 73.571789,48.381617 c 0.43815,-0.362936 0.549023,-0.564459 0.260165,-0.47286 -0.371727,0.117853 -0.760521,-0.322754 -1.48632,-1.684496 l -0.982906,-1.844127 2.049045,1.610281 2.049044,1.610281 -0.205946,-1.806263 c -0.113272,-0.993447 -0.271708,-2.081147 -0.352081,-2.417114 -0.08037,-0.335956 0.273945,0.13167 0.787353,1.039177 0.712524,1.259477 0.852617,1.747453 0.591879,2.061624 -0.444095,0.535102 0.04015,0.529143 0.810591,-0.0101 0.331339,-0.231847 1.701985,-0.767241 3.04586,-1.189735 1.943305,-0.610948 2.463379,-0.899738 2.541003,-1.410991 0.05368,-0.353561 -0.04939,-0.642819 -0.229069,-0.642819 -0.179649,0 -0.326686,0.209553 -0.326686,0.465699 0,0.411939 -1.118269,1.061432 -1.827536,1.061432 -0.143358,0 -0.563269,-0.909398 -0.933149,-2.020886 -0.548666,-1.648746 -0.597063,-2.067507 -0.262835,-2.274084 0.721298,-0.445787 0.159916,-0.499393 -1.099745,-0.105011 -0.671938,0.210383 -0.989107,0.393065 -0.704823,0.405976 0.364188,0.01659 0.721983,0.660289 1.211153,2.179112 0.598823,1.859278 0.632736,2.194563 0.246673,2.43873 -0.898356,0.568185 -1.408184,0.257062 -2.395473,-1.461848 -0.804574,-1.40079 -0.940111,-1.862377 -0.672623,-2.290693 0.399165,-0.639165 0.0557,-0.697262 -0.729176,-0.123337 -0.489094,0.357637 -0.539305,0.687031 -0.37422,2.454901 l 0.190686,2.041845 -1.37189,-1.004132 c -0.754544,-0.55227 -1.555074,-1.128612 -1.778963,-1.280757 -0.265215,-0.180225 -0.658684,-0.100394 -1.129056,0.229069 -0.671385,0.47026 -0.679008,0.505699 -0.108726,0.505699 0.45075,0 0.872671,0.526069 1.592233,1.985266 0.538439,1.091895 0.842824,1.985266 0.676408,1.985266 -0.166409,0 -0.302588,0.137441 -0.302588,0.305437 0,0.463499 0.378224,0.358034 1.2217,-0.340646 z m 25.850852,-1.797332 c 0.781909,-1.175886 1.573299,-2.142349 1.758629,-2.147692 0.39973,-0.01154 -0.71909,-0.906562 -1.13322,-0.906562 -0.156449,0 -0.13751,0.17705 0.0421,0.393443 0.24187,0.291441 0.0737,0.782079 -0.648602,1.892513 l -0.975132,1.499069 -0.459347,-2.834153 c -0.345011,-2.128739 -0.600071,-2.911944 -1.024729,-3.146677 -0.493661,-0.272863 -0.537942,-0.226075 -0.349052,0.369037 0.160638,0.506163 0.05916,0.446273 -0.08993,0.685952 -0.391762,0.563406 -1.627146,2.514982 -2.408568,3.14791 -0.765982,-0.29393 -0.403688,0.305329 0.511402,0.845868 0.888944,0.525113 1.244236,0.346021 0.597182,-0.301073 -0.221855,-0.221854 -0.0021,-0.800382 0.720911,-1.898266 l 1.040011,-1.579172 0.203854,2.066252 c 0.237871,2.410743 0.511849,4.051518 0.676559,4.051518 0.06396,0 0.756033,-0.962091 1.537949,-2.137981 z m 5.607999,-1.2217 c 0,-0.167996 -0.3436,-0.305438 -0.76357,-0.305438 -0.41996,0 -0.76356,0.137442 -0.76356,0.305438 0,0.167996 0.3436,0.305438 0.76356,0.305438 0.41997,0 0.76357,-0.137442 0.76357,-0.305438 z m -11.606181,-0.61085 c 0.372503,-0.696021 0.232172,-0.761019 -0.566381,-0.26233 -0.340682,0.212764 -1.001408,0.26536 -1.696087,0.135061 -1.092138,-0.2049 -1.129575,-0.25277 -0.92921,-1.188458 0.267055,-1.247025 0.233218,-1.222256 1.337285,-0.979764 0.680682,0.14949 0.946471,0.387964 0.968563,0.868984 0.02814,0.610389 0.04982,0.602413 0.274991,-0.10061 0.405471,-1.266082 0.369574,-1.655161 -0.115545,-1.252533 -0.299197,0.248297 -0.65859,0.259047 -1.242212,0.03716 -0.666162,-0.253274 -0.782035,-0.441937 -0.613675,-0.9992 0.114138,-0.377834 0.295193,-0.770953 0.402289,-0.873594 0.358647,-0.343676 2.180008,0.344938 2.180008,0.824234 0,0.257099 0.137441,0.382488 0.305437,0.278671 0.653988,-0.404186 0.252806,-1.055093 -0.839919,-1.362738 -1.169411,-0.329247 -4.035591,-0.739018 -3.04156,-0.434857 0.330869,0.101223 0.491254,0.368917 0.405694,0.677089 -1.042958,3.756513 -1.15167,4.02368 -1.648624,4.051587 -0.575264,0.03247 3.119379,1.114752 3.968317,1.162629 0.28805,0.01623 0.670862,-0.245339 0.850666,-0.581313 z m -5.864173,-0.671938 c 0.201581,-0.201581 0.366511,-0.566487 0.366511,-0.810902 0,-0.379396 -0.07817,-0.375746 -0.534493,0.02489 -0.961838,0.844606 -1.824582,0.93136 -2.504139,0.251796 -0.761678,-0.761679 -0.83975,-2.629466 -0.151005,-3.612773 0.569661,-0.813304 2.105886,-0.923859 2.52136,-0.181451 0.216119,0.38616 0.332349,0.409944 0.519973,0.106382 0.264963,-0.428692 -0.588895,-1.214591 -1.319598,-1.214591 -0.358791,0 -0.347355,-0.133617 0.0654,-0.763562 0.275172,-0.419961 0.367806,-0.763565 0.205874,-0.763565 -0.161936,0 -0.383509,0.144115 -0.492369,0.320264 -0.135313,0.218933 -0.334261,0.2071 -0.628876,-0.03741 -0.505785,-0.419763 -0.554766,-0.168645 -0.124058,0.636135 0.253491,0.473679 0.160528,0.64283 -0.534493,0.972556 -0.46276,0.219546 -1.082542,0.892198 -1.377298,1.494823 -0.968927,1.980952 0.344253,3.900834 2.689172,3.931616 0.512351,0.0069 1.096477,-0.152701 1.298058,-0.354282 z"
       id="path5280"
       inkscape:connector-curvature="0"
       sodipodi:nodetypes="ccsssssscccccssccccccssccccccccccscccssssssccscscsccccccsccssscccccccccccccscccccccsccccccsscccscccccccccccccccccccccsccccccccccccccscccccccscscscsccssccscssccccssscccssssscssscssccccscccsscccccccccssccsccscccsccccsccccccscccsccscccscscccscccccsssssssssssccccccccsccccccccsccccccscccssscccccccscccccsssssccccscccccccccccccsccssssscccccccccccscccccccccsccccsscscscccccc" />
    <path
       style="fill:#000000;stroke-width:0.08466666"
       d=""
       id="path5241"
       inkscape:connector-curvature="0" />
  </g>
</svg>
