<?xml version="1.0" encoding="UTF-8" standalone="no"?>
<svg
   xmlns:dc="http://purl.org/dc/elements/1.1/"
   xmlns:cc="http://creativecommons.org/ns#"
   xmlns:rdf="http://www.w3.org/1999/02/22-rdf-syntax-ns#"
   xmlns:svg="http://www.w3.org/2000/svg"
   xmlns="http://www.w3.org/2000/svg"
   xmlns:sodipodi="http://sodipodi.sourceforge.net/DTD/sodipodi-0.dtd"
   xmlns:inkscape="http://www.inkscape.org/namespaces/inkscape"
   version="1.1"
   id="svg2"
   xml:space="preserve"
   width="2044.0928"
   height="2116.7561"
   viewBox="0 0 2044.0928 2116.7561"
   sodipodi:docname="ppf.svg"
   inkscape:version="1.0.2 (e86c870879, 2021-01-15)"><metadata
     id="metadata8"><rdf:RDF><cc:Work
         rdf:about=""><dc:format>image/svg+xml</dc:format><dc:type
           rdf:resource="http://purl.org/dc/dcmitype/StillImage" /><dc:title></dc:title></cc:Work></rdf:RDF></metadata><defs
     id="defs6"><clipPath
       clipPathUnits="userSpaceOnUse"
       id="clipPath18"><path
         d="M 0,0 H 51.024 V 52.838 H 0 Z"
         id="path16" /></clipPath></defs><sodipodi:namedview
     pagecolor="#ffffff"
     bordercolor="#666666"
     borderopacity="1"
     objecttolerance="10"
     gridtolerance="10"
     guidetolerance="10"
     inkscape:pageopacity="0"
     inkscape:pageshadow="2"
     inkscape:window-width="2560"
     inkscape:window-height="1440"
     id="namedview4"
     showgrid="false"
     inkscape:zoom="0.44712306"
     inkscape:cx="90.844369"
     inkscape:cy="912.66614"
     inkscape:window-x="0"
     inkscape:window-y="0"
     inkscape:window-maximized="1"
     inkscape:current-layer="g10"
     inkscape:document-rotation="0"
     fit-margin-top="0"
     fit-margin-left="0"
     fit-margin-right="0"
     fit-margin-bottom="0" /><g
     id="g10"
     inkscape:groupmode="layer"
     inkscape:label="Nadace PPF modrá RGB pro obrazovku"
     transform="matrix(1.3333333,0,0,-1.3333333,0,70.450651)"><g
       id="g12"
       transform="matrix(30.04605,0,0,30.04605,0,-1534.7352)"><g
         id="g14"
         clip-path="url(#clipPath18)"><path
           d="M 51.024,52.838 H 0 V 13.153 H 51.024 Z M 18.134,42.171 c 0,-2.744 -3.088,-4.364 -5.572,-4.364 -0.605,0 -0.908,0.065 -0.994,0.087 v 0.626 c 1.987,0 3.478,1.016 3.478,3.435 0,2.419 -1.448,3.693 -3.564,3.693 -0.432,0 -0.886,-0.065 -1.037,-0.108 V 32.818 l 2.7,-1.231 V 31.522 H 5.304 v 0.065 l 2.182,1.231 v 12.528 l -2.182,1.231 v 0.065 h 6.739 c 4.558,0 6.091,-2.117 6.091,-4.471 m 14.105,0 c 0,-2.744 -3.089,-4.364 -5.573,-4.364 -0.605,0 -0.907,0.065 -0.993,0.087 v 0.626 c 1.987,0 3.477,1.016 3.477,3.435 0,2.419 -1.447,3.693 -3.564,3.693 -0.432,0 -0.885,-0.065 -1.037,-0.108 V 32.818 l 2.7,-1.231 v -0.065 h -7.84 v 0.065 l 2.181,1.231 v 12.528 l -2.181,1.231 v 0.065 h 6.739 c 4.557,0 6.091,-2.117 6.091,-4.471 M 45.436,41.89 h -0.065 l -2.419,3.715 h -4.298 v -5.81 h 2.635 l 1.858,2.678 h 0.064 v -6.415 h -0.064 l -1.88,2.7 h -2.613 v -5.94 l 2.7,-1.231 v -0.065 h -7.841 v 0.065 l 2.182,1.231 v 12.528 l -2.182,1.231 v 0.065 h 11.923 z"
           style="fill:#002c5a;fill-opacity:1;fill-rule:nonzero;stroke:none"
           id="path20" /><g
           id="g22"
           transform="translate(0.0188,0.1752)"><path
             d="M 0,0 H 3.24 V 0.035 L 1.836,0.702 V 6.397 H 1.871 L 6.526,0 h 1.17 V 7.485 L 8.877,8.152 V 8.187 H 5.637 V 8.152 L 7.041,7.485 V 2.117 H 7.006 L 2.608,8.187 H 0 V 8.152 L 1.181,7.216 V 0.702 L 0,0.035 Z m 8.889,0 h 2.97 v 0.035 l -1.356,0.678 0.678,1.93 h 2.971 L 14.853,0.69 13.59,0.035 V 0 h 4.012 V 0.035 L 16.619,0.713 13.801,8.187 H 12.538 L 9.777,0.702 8.889,0.035 Z m 2.502,3.205 1.24,3.497 h 0.035 L 13.929,3.205 Z M 17.906,0 h 3.672 c 2.491,0 4.351,1.602 4.351,4.187 0,2.386 -1.813,4 -4.047,4 H 17.906 V 8.152 L 19.087,7.485 V 0.702 L 17.906,0.035 Z m 3.625,0.538 c -0.421,0 -0.713,0.094 -0.842,0.164 V 7.59 c 0.141,0.036 0.328,0.059 0.761,0.059 1.695,0 2.678,-1.357 2.678,-3.825 0,-1.649 -0.714,-3.286 -2.597,-3.286 M 26.235,0 h 2.971 v 0.035 l -1.357,0.678 0.678,1.93 h 2.971 L 32.2,0.69 30.937,0.035 V 0 h 4.011 V 0.035 L 33.966,0.713 31.147,8.187 H 29.884 L 27.124,0.702 26.235,0.035 Z m 2.503,3.205 1.24,3.497 h 0.035 l 1.263,-3.497 z m 10.382,-3.38 c 0.561,0 1.251,0.187 1.684,0.397 0.597,0.293 1.1,0.585 1.848,1.135 L 42.383,1.708 C 42.114,1.509 41.167,0.924 40.091,0.924 c -1.603,0 -3.006,1.24 -3.006,3.544 0,1.649 0.561,2.549 1.275,2.982 0.503,0.304 0.912,0.374 1.38,0.374 0.561,0 0.924,-0.175 1.006,-0.222 L 42.184,5.38 h 0.035 v 2.433 c -0.082,0.046 -1.099,0.549 -2.362,0.549 -2.76,0 -4.573,-1.707 -4.573,-4.397 0,-2.257 1.684,-4.14 3.836,-4.14 M 43.372,0 h 6.842 v 2.807 h -0.035 l -1.31,-2.246 h -2.713 v 3.357 h 1.532 L 48.67,2.456 h 0.036 V 5.93 H 48.67 L 47.688,4.479 h -1.532 v 3.147 h 2.421 l 1.31,-2.012 h 0.035 v 2.573 h -6.55 V 8.152 L 44.554,7.485 V 0.702 L 43.372,0.035 Z"
             style="fill:#002c5a;fill-opacity:1;fill-rule:nonzero;stroke:none"
             id="path24" /></g></g></g></g></svg>
