<?xml version="1.0" encoding="UTF-8" standalone="no"?>
<svg
   xmlns:dc="http://purl.org/dc/elements/1.1/"
   xmlns:cc="http://creativecommons.org/ns#"
   xmlns:rdf="http://www.w3.org/1999/02/22-rdf-syntax-ns#"
   xmlns:svg="http://www.w3.org/2000/svg"
   xmlns="http://www.w3.org/2000/svg"
   xmlns:sodipodi="http://sodipodi.sourceforge.net/DTD/sodipodi-0.dtd"
   xmlns:inkscape="http://www.inkscape.org/namespaces/inkscape"
   version="1.0"
   viewBox="0 0 454.20413 402.30951"
   id="svg8"
   sodipodi:docname="sms.svg"
   width="454.20413"
   height="402.30951"
   inkscape:version="0.92.4 5da689c313, 2019-01-14">
  <defs
     id="defs12" />
  <sodipodi:namedview
     pagecolor="#ffffff"
     bordercolor="#666666"
     borderopacity="1"
     objecttolerance="10"
     gridtolerance="10"
     guidetolerance="10"
     inkscape:pageopacity="0"
     inkscape:pageshadow="2"
     inkscape:window-width="2560"
     inkscape:window-height="1440"
     id="namedview10"
     showgrid="false"
     fit-margin-top="0"
     fit-margin-left="0"
     fit-margin-right="0"
     fit-margin-bottom="0"
     inkscape:zoom="0.71315043"
     inkscape:cx="178.0913"
     inkscape:cy="184.25188"
     inkscape:window-x="0"
     inkscape:window-y="0"
     inkscape:window-maximized="1"
     inkscape:current-layer="svg8" />
  <g
     transform="matrix(0.066857,0,0,-0.066857,-7.019985,435.21379)"
     id="g4"
     style="fill:#ffffff;fill-opacity:1">
    <path
       d="M 650,6501 C 449,6461 239,6231 138,5940 l -33,-95 V 4040 c 0,-1721 1,-1808 18,-1870 99,-349 496,-586 1035,-617 61,-3 112,-10 112,-14 0,-28 -54,-147 -93,-205 C 1128,1261 967,1096 835,984 711,880 630,799 609,758 585,711 584,627 608,580 c 41,-81 117,-99 352,-82 459,34 884,197 1280,490 145,108 383,344 485,482 l 78,105 1766,5 1766,5 46,21 c 201,93 457,356 504,517 13,47 15,275 13,1958 l -3,1906 -39,77 c -65,127 -198,274 -334,366 -130,88 174,80 -3006,79 -1557,-1 -2847,-4 -2866,-8 z m 5675,-395 c 28,-17 73,-53 101,-80 27,-28 63,-73 80,-101 l 29,-50 3,-1800 c 3,-2042 12,-1830 -88,-1963 -58,-77 -132,-142 -183,-161 -20,-8 -598,-11 -1863,-11 H 2569 l -25,-28 c -24,-25 -104,-151 -240,-376 -70,-116 -133,-178 -282,-277 -132,-87 -290,-165 -446,-218 -65,-23 -120,-41 -122,-41 -3,0 5,19 17,42 40,79 107,254 128,338 17,65 23,128 28,265 l 6,180 -47,57 -47,58 h -372 c -340,0 -375,2 -413,19 -103,47 -216,196 -269,356 l -25,74 v 1684 c 0,1630 1,1687 19,1746 37,119 171,282 252,308 24,8 828,11 2789,10 l 2755,-2 z"
       id="path2"
       style="fill:#ffffff;fill-opacity:1"
       inkscape:connector-curvature="0" />
  </g>
  <metadata
     id="metadata6">
    <rdf:RDF>
      <cc:Work>
        <dc:format>image/svg+xml</dc:format>
        <dc:type
           rdf:resource="http://purl.org/dc/dcmitype/StillImage" />
        <cc:license
           rdf:resource="http://creativecommons.org/publicdomain/zero/1.0/" />
        <dc:publisher>
          <cc:Agent
             rdf:about="http://openclipart.org/">
            <dc:title>Openclipart</dc:title>
          </cc:Agent>
        </dc:publisher>
        <dc:title></dc:title>
        <dc:date>2012-02-06T15:31:36</dc:date>
        <dc:description>A Speech Bubble</dc:description>
        <dc:source>https://openclipart.org/detail/167796/speech-1-by-dripsandcastle</dc:source>
        <dc:creator>
          <cc:Agent>
            <dc:title>dripsandcastle</dc:title>
          </cc:Agent>
        </dc:creator>
        <dc:subject>
          <rdf:Bag>
            <rdf:li>bubble</rdf:li>
            <rdf:li>cartoon</rdf:li>
            <rdf:li>speech</rdf:li>
            <rdf:li>talk</rdf:li>
            <rdf:li>words</rdf:li>
          </rdf:Bag>
        </dc:subject>
      </cc:Work>
      <cc:License
         rdf:about="http://creativecommons.org/publicdomain/zero/1.0/">
        <cc:permits
           rdf:resource="http://creativecommons.org/ns#Reproduction" />
        <cc:permits
           rdf:resource="http://creativecommons.org/ns#Distribution" />
        <cc:permits
           rdf:resource="http://creativecommons.org/ns#DerivativeWorks" />
      </cc:License>
    </rdf:RDF>
  </metadata>
  <path
     style="fill:none;stroke:#ffffff;stroke-width:20;stroke-linecap:butt;stroke-linejoin:miter;stroke-miterlimit:4;stroke-dasharray:none;stroke-opacity:1"
     d="M 71.504822,95.874436 H 370.17953"
     id="path822"
     inkscape:connector-curvature="0" />
  <path
     style="fill:none;stroke:#ffffff;stroke-width:20;stroke-linecap:butt;stroke-linejoin:miter;stroke-miterlimit:4;stroke-dasharray:none;stroke-opacity:1"
     d="M 73.608167,171.59479 H 372.28287"
     id="path822-3"
     inkscape:connector-curvature="0" />
  <path
     style="fill:none;stroke:#ffffff;stroke-width:16.21452332;stroke-linecap:butt;stroke-linejoin:miter;stroke-miterlimit:4;stroke-dasharray:none;stroke-opacity:1"
     d="M 73.608167,251.52183 H 269.92017"
     id="path822-6"
     inkscape:connector-curvature="0" />
</svg>
